<?xml version="1.0" encoding="utf-8"?>
<svg version="1.1" xmlns:xlink="http://www.w3.org/1999/xlink" width="29px" height="24px" xmlns="http://www.w3.org/2000/svg">
  <g transform="matrix(1 0 0 1 -358 -26 )">
    <path d="M 28.641276041666668 19.55625  C 28.88042534722222 19.793750000000003  29 20.075000000000003  29 20.4  L 29 22.799999999999997  C 29 23.125  28.88042534722222 23.40625  28.641276041666668 23.643749999999997  C 28.402126736111114 23.88125  28.118923611111114 24  27.791666666666668 24  L 1.2083333333333333 24  C 0.881076388888889 24  0.5978732638888888 23.88125  0.3587239583333333 23.643749999999997  C 0.11957465277777778 23.40625  0 23.125  0 22.799999999999997  L 0 20.4  C 0 20.075000000000003  0.11957465277777778 19.793750000000003  0.3587239583333333 19.55625  C 0.5978732638888888 19.31875  0.881076388888889 19.200000000000003  1.2083333333333333 19  L 27.791666666666668 19  C 28.118923611111114 19.200000000000003  28.402126736111114 19.31875  28.641276041666668 19.55625  Z M 28.641276041666668 9.956249999999999  C 28.88042534722222 10.193749999999998  29 10.474999999999998  29 10.799999999999999  L 29 13.200000000000001  C 29 13.524999999999999  28.88042534722222 13.806249999999999  28.641276041666668 14.043750000000001  C 28.402126736111114 14.281249999999998  28.118923611111114 14.399999999999999  27.791666666666668 14  L 1.2083333333333333 14  C 0.881076388888889 14.399999999999999  0.5978732638888888 14.281249999999998  0.3587239583333333 14.043750000000001  C 0.11957465277777778 13.806249999999999  0 13.524999999999999  0 13.200000000000001  L 0 10.799999999999999  C 0 10.474999999999998  0.11957465277777778 10.193749999999998  0.3587239583333333 9.956249999999999  C 0.5978732638888888 9.718750000000002  0.881076388888889 9.600000000000001  1.2083333333333333 10  L 27.791666666666668 10  C 28.118923611111114 9.600000000000001  28.402126736111114 9.718750000000002  28.641276041666668 9.956249999999999  Z M 28.641276041666668 0.35625000000000107  C 28.88042534722222 0.5937499999999982  29 0.8749999999999982  29 1.200000000000001  L 29 3.6000000000000005  C 29 3.924999999999998  28.88042534722222 4.206249999999998  28.641276041666668 4.4437500000000005  C 28.402126736111114 4.681249999999998  28.118923611111114 4.799999999999999  27.791666666666668 5  L 1.2083333333333333 5  C 0.881076388888889 4.799999999999999  0.5978732638888888 4.681249999999998  0.3587239583333333 4.4437500000000005  C 0.11957465277777778 4.206249999999998  0 3.924999999999998  0 3.6000000000000005  L 0 1.200000000000001  C 0 0.8749999999999982  0.11957465277777778 0.5937499999999982  0.3587239583333333 0.35625000000000107  C 0.5978732638888888 0.11874999999999858  0.881076388888889 0  1.2083333333333333 0  L 27.791666666666668 0  C 28.118923611111114 0  28.402126736111114 0.11874999999999858  28.641276041666668 0.35625000000000107  Z " fill-rule="nonzero" fill="#ef9652" stroke="none" transform="matrix(1 0 0 1 358 26 )" />
  </g>
</svg>