<?xml version="1.0" encoding="UTF-8" standalone="no"?>
<!-- Created with Inkscape (http://www.inkscape.org/) -->

<svg
   width="508mm"
   height="285.75mm"
   viewBox="0 0 508 285.75"
   version="1.1"
   id="svg5"
   xml:space="preserve"
   inkscape:export-filename="bitmap.svg"
   inkscape:export-xdpi="96"
   inkscape:export-ydpi="96"
   inkscape:version="1.2.2 (732a01da63, 2022-12-09)"
   sodipodi:docname="bg-login.svg"
   xmlns:inkscape="http://www.inkscape.org/namespaces/inkscape"
   xmlns:sodipodi="http://sodipodi.sourceforge.net/DTD/sodipodi-0.dtd"
   xmlns="http://www.w3.org/2000/svg"
   xmlns:svg="http://www.w3.org/2000/svg"><sodipodi:namedview
     id="namedview7"
     pagecolor="#ffffff"
     bordercolor="#000000"
     borderopacity="0.25"
     inkscape:showpageshadow="2"
     inkscape:pageopacity="0.0"
     inkscape:pagecheckerboard="0"
     inkscape:deskcolor="#d1d1d1"
     inkscape:document-units="mm"
     showgrid="false"
     inkscape:zoom="0.38618476"
     inkscape:cx="684.90532"
     inkscape:cy="422.07776"
     inkscape:window-width="1920"
     inkscape:window-height="1017"
     inkscape:window-x="-8"
     inkscape:window-y="-8"
     inkscape:window-maximized="1"
     inkscape:current-layer="layer1" /><defs
     id="defs2" /><g
     inkscape:label="Camada 1"
     inkscape:groupmode="layer"
     id="layer1"
     transform="translate(0,0.34256055)"><rect
       style="fill:#ffffff;stroke-width:0.325001"
       id="rect5282"
       width="331.31479"
       height="198.36319"
       x="-6.8950524"
       y="119.35014" /><rect
       style="fill:#ffffff;stroke-width:0.325001"
       id="rect5284"
       width="156.3508"
       height="69.166107"
       x="-15.829385"
       y="96.512268" /><path
       d="M 133.26779,323.38331 V -22.041981 h 140.89196 c 35.19058,41.171906 79.50121,74.031203 128.06539,65.836371 89.19297,-15.050632 155.51935,184.56618 181.84307,279.58892 z"
       fill-rule="nonzero"
       fill="#dee3e9"
       stroke="none"
       id="path10418"
       style="stroke-width:0.264583" /><path
       d="m -18.160209,-20.736958 156.866889,0.0013 c 26.2014,74.297809 92.20337,230.379978 180.96013,218.611758 80.23248,-10.63799 148.79822,67.20294 183.5368,116.37202 H -18.160209 Z"
       fill-rule="nonzero"
       fill="#e5e9ed"
       stroke="none"
       id="path10405"
       style="stroke-width:0.264583" /><path
       d="M -14.220828,321.9116 V 130.81213 c 31.741863,66.69642 82.081865,136.15491 150.252648,120.00919 72.89295,-17.26414 130.90368,29.19972 166.67711,71.09028 z"
       fill-rule="nonzero"
       fill="#eef1f4"
       stroke="none"
       id="path8565"
       style="stroke-width:0.264583" /><path
       d="M 528.3008,-22.52784 V 168.57164 C 496.55894,101.87523 446.21894,32.416723 378.04815,48.562457 305.15521,65.8266 247.14447,19.362727 211.37105,-22.52784 Z"
       fill-rule="nonzero"
       fill="#dbdee3"
       stroke="none"
       id="path10435"
       style="stroke-width:0.264583" /></g></svg>
