<?xml version="1.0" encoding="utf-8"?>
<!-- Generator: Adobe Illustrator 27.5.0, SVG Export Plug-In . SVG Version: 6.00 Build 0)  -->
<svg version="1.1" id="Camada_1" xmlns="http://www.w3.org/2000/svg" xmlns:xlink="http://www.w3.org/1999/xlink" x="0px" y="0px"
	 viewBox="0 0 500 500" style="enable-background:new 0 0 500 500;" xml:space="preserve">
<style type="text/css">
	.st0{fill:#2E353A;}
	.st1{fill:#EF9652;}
	.st2{opacity:0.2;enable-background:new    ;}
	.st3{fill:#FFFFFF;}
	.st4{opacity:0.4;enable-background:new    ;}
	.st5{opacity:0.2;fill:#FFFFFF;enable-background:new    ;}
</style>
<g id="freepik--Motorcycle--inject-17">
	<path class="st0" d="M146.4,360.7l9.7,22.4c3.8,8.6,12.3,14.2,21.7,14.2h40.8c5.4,0,10.6-2.2,14.4-6h76.1c6,0,11.6-2.9,15.1-7.7
		l10.1-13.9L146.4,360.7z"/>
	<path class="st1" d="M208.5,271.9c0,10.7,42.8,87,47.1,90c4.3,3,60.1-0.4,60.1-0.4l-4.2,15.8H158.1L94.4,253.7l42.1-60.8l76.8,2.1
		C213.3,195,208.5,261.2,208.5,271.9z"/>
	<path class="st2" d="M208.5,271.9c0,10.7,42.8,87,47.1,90c4.3,3,60.1-0.4,60.1-0.4l-4.2,15.8H158.1L94.4,253.7l42.1-60.8l76.8,2.1
		C213.3,195,208.5,261.2,208.5,271.9z"/>
	<ellipse class="st0" cx="83.9" cy="360.8" rx="62.6" ry="75.5"/>
	<ellipse class="st3" cx="73.4" cy="360.8" rx="39.5" ry="47.6"/>
	<ellipse class="st1" cx="64.4" cy="360.2" rx="16.4" ry="19.8"/>
	<ellipse class="st4" cx="64.4" cy="360.2" rx="16.4" ry="19.8"/>
	<path class="st1" d="M432.4,246.8c0,0-56.5,43.3-78,132.6H264L349.6,240l45.2-18.8L432.4,246.8z"/>
	<path class="st4" d="M438.2,242.4c0,0-52.8,40.4-78,116.3c-4,12.2-15.4,20.6-28.3,20.6h-68L349.6,240l45.2-18.8L438.2,242.4z"/>
	<path class="st1" d="M432.8,245.9h-34.9c-6.6-0.1-13.1,1.8-18.6,5.5c-20.7,13.8-69.7,52.2-74.8,113.1c-0.7,8.3-7.6,14.8-15.9,14.9
		H136.9c-25.5,0-50.5-6.8-72.5-19.6l-43.3-25.3C11.5,329,6.6,317.9,8.8,307c5.2-24.9,19.7-67.6,61.3-84.3c0.7-0.3-0.3-0.6,1.7-0.8
		v-25.8h108.7c0,0-21.8,52-21.8,73.4c0,20.2,21.4,97.9,49.2,105.9h37.8c10.2-0.2,19.6-5.9,24.5-14.9c18.4-32.9,59.4-118.3,46.6-199
		c-1.5-9.4,5.8-19.1,15.3-19.1h48.8c0,0,43.8,50.8,58,93.8C440.4,240.3,437.2,245.9,432.8,245.9z"/>
	<path class="st0" d="M354.6,126.2h-13.9c-3.7,0-7.2-1.3-10.1-3.5l-28.7-23.2c-1.1-0.9-2.5-1.4-4-1.4h-55.1c-2.2,0-4-1.8-4-4
		c0-2.2,1.8-4,4-4h55.1c3.3,0,6.5,1.1,9,3.2l28.7,23.2c1.4,1.2,3.2,1.8,5,1.8h13.9c4,0,7.4-2.9,8-6.9l1.3-9
		c1-7.1,7.1-12.3,14.2-12.3h10.5c2.2,0,4,1.8,4,4c0,2.2-1.8,4-4,4h-10.5c-3.2,0-5.8,2.3-6.3,5.5l-1.3,9
		C369.2,120.3,362.5,126.1,354.6,126.2z"/>
	<path class="st1" d="M330,109.3c0,0,0.2,9.4-8.6,8.8l-2.9,10.2c-0.8,2.9-0.4,6,1.2,8.6l6.2,10h57.8l4.5-8.6c1.5-2.8,1-6.2-1.2-8.5
		l-17.2-17.6c-1.8-1.9-4.3-2.9-6.9-2.9L330,109.3z"/>
	<path class="st4" d="M330,109.3c0,0,0.2,9.4-8.6,8.8l-2.9,10.2c-0.8,2.9-0.4,6,1.2,8.6l6.2,10h57.8l4.5-8.6c1.5-2.8,1-6.2-1.2-8.5
		l-17.2-17.6c-1.8-1.9-4.3-2.9-6.9-2.9L330,109.3z"/>
	<ellipse class="st0" cx="429.2" cy="360.8" rx="62.6" ry="75.5"/>
	<ellipse class="st3" cx="418.7" cy="360.8" rx="39.5" ry="47.6"/>
	<path class="st1" d="M490.7,312.2c-6.6-11.2-24.2-35.5-55.9-42.5c-8.1-1.9-16.5-2.1-24.8-0.7l-0.1-0.3l0.1-0.3h-0.3l-5.4-12.4h-6.2
		c-5,0-9.9,1.6-13.9,4.7l-10.9,8.2l5.1,17.7c-1.5,1.6-2.9,3.3-4.1,5c-9.2,11.4-15.4,24.9-18.2,39.2c-0.4,2.3,1.2,4.4,3.5,4.8
		c0.2,0,0.4,0,0.6,0h3.3c1.8,0,3.3-1,4-2.7c2.9-7.7,7.5-14.7,13.5-20.3l18.1,47.2l14.6-6.1l-5.1-58.9c0,0,33.6-9.4,55.6,17.7
		c2.6,3.2,6.5,5.1,10.6,5.1h12.8c2,0,3.6-1.7,3.6-3.7C491.2,313.3,491.1,312.7,490.7,312.2z"/>
	<path class="st2" d="M490.7,312.2c-6.6-11.2-24.2-35.5-55.9-42.5c-8.1-1.9-16.5-2.1-24.8-0.7l-0.1-0.3l0.1-0.3h-0.3l-5.4-12.4h-6.2
		c-5,0-9.9,1.6-13.9,4.7l-10.9,8.2l5.1,17.7c-1.5,1.6-2.9,3.3-4.1,5c-9.2,11.4-15.4,24.9-18.2,39.2c-0.4,2.3,1.2,4.4,3.5,4.8
		c0.2,0,0.4,0,0.6,0h3.3c1.8,0,3.3-1,4-2.7c2.9-7.7,7.5-14.7,13.5-20.3l18.1,47.2l14.6-6.1l-5.1-58.9c0,0,33.6-9.4,55.6,17.7
		c2.6,3.2,6.5,5.1,10.6,5.1h12.8c2,0,3.6-1.7,3.6-3.7C491.2,313.3,491.1,312.7,490.7,312.2z"/>
	<ellipse class="st1" cx="409.7" cy="360.2" rx="16.4" ry="19.8"/>
	<ellipse class="st4" cx="409.7" cy="360.2" rx="16.4" ry="19.8"/>
	<path class="st1" d="M350.5,149c0,0,10.3,65.1,44.5,65.5c32,0.4,35-60.7,4.5-70.1C374.8,136.9,350.5,149,350.5,149z"/>
	<path class="st2" d="M350.5,149c0,0,10.3,65.1,44.5,65.5c32,0.4,35-60.7,4.5-70.1C374.8,136.9,350.5,149,350.5,149z"/>
	<path class="st3" d="M418.6,179c0.8,16.5-9.2,29.9-22.2,29.9c-13,0-24.2-13.4-25-29.9s9.2-29.9,22.2-29.9
		C406.6,149.1,417.8,162.5,418.6,179z"/>
	<polygon class="st1" points="386.1,136.3 356.5,136.3 358.8,132.5 386.1,132.5 	"/>
	<path class="st0" d="M223.1,193.4v7.5c0,6.8-5.6,11.2-12.4,11.2H76.1c-6.8,0-12.3-4.4-12.3-11.2v-7.5c0-6.8,5.5-11.2,12.3-11.2
		h134.7C217.6,182.2,223.1,186.6,223.1,193.4z"/>
	<path class="st5" d="M179.3,193.4v7.5c0.3,5.9-4.3,10.9-10.2,11.2c-0.4,0-0.9,0-1.3,0H76.1c-6.8,0-12.3-4.4-12.3-11.2v-7.5
		c0-6.8,5.5-11.2,12.3-11.2h91.8c5.9-0.4,11,4,11.5,9.9C179.3,192.5,179.3,192.9,179.3,193.4z"/>
	<path class="st2" d="M162.4,331.3v48h-25.4c-25.5,0-50.5-6.8-72.5-19.6l-43.3-25.3C11.5,329,6.6,317.9,8.8,307
		c5.2-24.9,19.9-67.6,61.6-84.3l2,0.1h16.8c19.8,0,37.9,11.5,46.3,29.4l17.9,38.4C159.3,303.5,162.4,317.3,162.4,331.3z"/>
	<rect x="282" y="60.7" transform="matrix(0.7943 -0.6075 0.6075 0.7943 10.7842 188.6879)" class="st0" width="4" height="35.5"/>
	<path class="st1" d="M261.9,59.7H272c2.2,0,4.1,1.3,5,3.3l1.4,3.2c1.2,2.7-0.1,5.9-2.9,7.1c-0.7,0.3-1.4,0.4-2.1,0.4h-11.1
		c-2.7,0-5-2-5.3-4.6l-0.5-3.2c-0.4-3,1.6-5.7,4.6-6.1C261.4,59.7,261.6,59.7,261.9,59.7z"/>
	<rect x="362.6" y="78.6" transform="matrix(0.206 -0.9785 0.9785 0.206 219.2556 431.4103)" class="st0" width="25.8" height="4"/>
	<path class="st1" d="M390.1,59.7h-10.9c-2.2,0-4.1,1.6-4.4,3.8l-0.7,5c-0.3,2.4,1.4,4.7,3.8,5c0.2,0,0.5,0,0.7,0h10.9
		c2.2,0,4.1-1.6,4.4-3.8l0.7-5c0.3-2.4-1.4-4.7-3.8-5C390.5,59.7,390.3,59.7,390.1,59.7z"/>
</g>
</svg>
