<?xml version="1.0" encoding="utf-8"?>
<!-- Generator: Adobe Illustrator 27.5.0, SVG Export Plug-In . SVG Version: 6.00 Build 0)  -->
<svg version="1.1" id="Camada_1" xmlns="http://www.w3.org/2000/svg" xmlns:xlink="http://www.w3.org/1999/xlink" x="0px" y="0px"
	 viewBox="0 0 500 500" style="enable-background:new 0 0 500 500;" xml:space="preserve">
<style type="text/css">
	.st0{fill:#EBEBEB;}
	.st1{fill:#263238;}
	.st2{fill:#EF9652;}
	.st3{opacity:0.8;fill:#FFFFFF;enable-background:new    ;}
	.st4{opacity:0.3;enable-background:new    ;}
	.st5{opacity:0.1;enable-background:new    ;}
</style>
<g id="freepik--background-complete--inject-209">
	<rect x="426.5" y="325.4" class="st0" width="23.1" height="0.3"/>
	<rect x="74.9" y="327.4" class="st0" width="7.6" height="0.3"/>
</g>
<g id="freepik--Car--inject-209">
	<path class="st1" d="M233.2,342.6c15.1,0,27.3-24.2,27.3-54.1s-12.2-54.1-27.3-54.1h-35v108.2H233.2z"/>
	<ellipse class="st1" cx="198" cy="288.5" rx="27.3" ry="54.1"/>
	<path class="st1" d="M433.5,342.6c15.1,0,27.3-24.2,27.3-54.1s-12.2-54.1-27.3-54.1h-35v108.2H433.5z"/>
	<ellipse class="st1" cx="398.3" cy="288.5" rx="27.3" ry="54.1"/>
	<path class="st2" d="M54.1,315.4l-18.7-4.6c-6.4-1.6-11.8-5.9-14.7-11.8l0,0c-1.3-2.6-3-4.9-5.2-6.8l-4.6-4.1
		c-5.3-4.7-8.1-11.7-7.4-18.8l2.5-26.5c0.9-9.1,7.2-16.7,15.9-19.3l13.4-3.9l48.3-3.4L54.1,315.4z"/>
	<path class="st1" d="M94.9,342.6c15.1,0,27.3-24.2,27.3-54.1s-12.2-54.1-27.3-54.1h-35v108.2H94.9z"/>
	<ellipse class="st1" cx="59.8" cy="288.5" rx="27.3" ry="54.1"/>
	<ellipse class="st2" cx="59.8" cy="288.5" rx="19.2" ry="42.8"/>
	<path class="st2" d="M337,315.4l47.2-105.4c0,0-70.6-52.5-160.1-52.5c-145.1,0-140.2,19.6-188.7,62l21.2,15
		c37.7,0,40.9,59.8,46.9,76.6c0.9,2.6,3.4,4.4,6.2,4.4L337,315.4"/>
	<path class="st1" d="M295.2,342.6c15.1,0,27.3-24.2,27.3-54.1s-12.2-54.1-27.3-54.1h-35v108.2H295.2z"/>
	<ellipse class="st1" cx="260.1" cy="288.5" rx="27.3" ry="54.1"/>
	<ellipse class="st2" cx="260.1" cy="288.5" rx="19.2" ry="42.8"/>
	<path class="st2" d="M308.8,306.7c-4.3-19.7-25.1-72.2-50-72.2l-27-24.5h152.3c10.5,0,57.4,6.5,83.9,24.5
		c21.4,14.5,24.1,36.6,27.2,68.8c0.6,6.6-5.1,12.2-12.4,12.2c-61,0-134.9,0.2-161.8,0.3C315.1,315.7,310,311.9,308.8,306.7z"/>
	<path class="st3" d="M373.1,209.9h-99.3c-4.7,0-9-2.3-11.7-6.1c-11.1-16.4-30.6-33-45-40.8C317.6,163,373.1,209.9,373.1,209.9z"/>
	<path class="st3" d="M214.7,167.9c12,8.7,25.7,22.2,33.4,35.6c1.2,2,0.5,4.6-1.5,5.8c-0.6,0.4-1.3,0.6-2.1,0.6H81.8
		c-17.3,0-11.5-43,78.7-46.2c8.5-0.7,28.3-0.8,39.3-0.7C205.1,163,210.4,164.7,214.7,167.9z"/>
	<path class="st1" d="M326,291.9l52.2,3.9c1.7,0.1,3,1.5,3,3.2v3.6c0,1.8-1.4,3.2-3.2,3.2h-52.1c-1.8,0-3.2-1.4-3.2-3.2v-7.5
		c0-1.8,1.4-3.3,3.2-3.3C325.9,291.9,325.9,291.9,326,291.9z"/>
	<path class="st1" d="M491.8,292.6l-14.3,2.9c-1.5,0.3-2.6,1.6-2.6,3.2v3.9c0,1.8,1.4,3.2,3.2,3.2c0,0,0,0,0,0h15.2
		c1.8,0,3.2-1.4,3.2-3.2c0-0.1,0-0.3,0-0.4l-0.8-6.8c-0.2-1.8-1.8-3-3.6-2.8C492,292.6,491.9,292.6,491.8,292.6z"/>
	<path class="st3" d="M369,231.2l-72.8-3.5c0,0-0.7,12.9,26.2,15.7C338.8,244.8,355.3,240.5,369,231.2z"/>
	<path class="st4" d="M6.1,242.7c0.2-2.1,0.7-4.2,1.5-6.2l4.9-0.1c0,0,0.2,18.9-6.9,17.7c-0.2,0-0.4-0.1-0.6-0.1L6.1,242.7z"/>
	<path class="st3" d="M460.9,230.1c2.5,1.3,4.8,2.8,7.2,4.3c3.5,2.4,6.7,5.1,9.6,8.3c-1,0.3-2.1,0.5-3.1,0.7
		c-16.2,2.8-27.9-12.1-27.9-12.1L460.9,230.1z"/>
	<path class="st1" d="M391.5,251.6h51.5c1.8,0,3.6,0.6,5,1.6l9,6.3c2.1,1.4,3.4,3.7,3.8,6.2l2.3,17.1c0.7,4.2-2.2,8.1-6.4,8.8
		c-0.4,0.1-0.9,0.1-1.3,0.1h-55.1c-3.4,0-6.4-1.9-7.9-4.9l-10.3-20.1c-1.5-2.8-1.3-6.2,0.7-8.8l2.6-3.3
		C386.9,252.6,389.1,251.5,391.5,251.6z"/>
	<path class="st5" d="M119.8,293.2h100.8c1.3,0,2.4,1.1,2.4,2.4c0,0.1,0,0.1,0,0.2l-0.5,5.9c-0.1,1.2-1.2,2.2-2.4,2.2H119.3
		c-1.3,0-2.4-1.1-2.4-2.4c0-0.1,0-0.1,0-0.2l0.5-5.9C117.5,294.1,118.6,293.2,119.8,293.2z"/>
	<polygon class="st2" points="152,163 158,161.8 145.7,216 139.9,216 	"/>
	<path class="st1" d="M174,222.1h-20.6l-0.5,2.2c-0.5,1.6,0.3,3.4,1.9,3.9c0.4,0.1,0.8,0.2,1.1,0.2h12.5c2.4-0.1,4.4-1.8,5.1-4.1
		L174,222.1z"/>
	<path class="st1" d="M103,222.1H82.3l-0.5,2.2c-0.5,1.6,0.3,3.4,1.9,3.9c0.4,0.1,0.8,0.2,1.1,0.2h12.5c2.4-0.1,4.4-1.8,5.1-4.1
		L103,222.1z"/>
	<path class="st5" d="M143.4,286.2c-0.4,0-0.7-0.3-0.7-0.7l-1.5-70.9c0-0.4,0.3-0.7,0.7-0.7l0,0c0.4,0,0.7,0.3,0.7,0.7l1.5,70.9
		C144,285.9,143.7,286.2,143.4,286.2L143.4,286.2z"/>
</g>
</svg>
