<?xml version="1.0" encoding="utf-8"?>
<!-- Generator: Adobe Illustrator 27.2.0, SVG Export Plug-In . SVG Version: 6.00 Build 0)  -->
<svg version="1.1" id="Camada_1" xmlns="http://www.w3.org/2000/svg" xmlns:xlink="http://www.w3.org/1999/xlink" x="0px" y="0px"
	 viewBox="0 0 48 48" style="enable-background:new 0 0 48 48;" xml:space="preserve">
<style type="text/css">
	.st0{fill:#333333;}
</style>
<path class="st0" d="M3.5,34.2V5.8c0-0.5,0.2-1,0.7-1.5s1-0.8,1.5-0.8h26.1c0.6,0,1.1,0.2,1.5,0.7c0.5,0.5,0.7,1,0.7,1.6v18
	c0,0.5-0.2,1.1-0.7,1.6c-0.5,0.5-1,0.7-1.5,0.7H11.6L3.5,34.2z M14.1,36.5c-0.5,0-1-0.3-1.5-0.8c-0.5-0.5-0.7-1-0.7-1.5V29h25.3
	V11.8h5.2c0.5,0,1,0.3,1.5,0.8c0.5,0.5,0.7,1,0.7,1.6v30.3l-8-8H14.1z M30.7,6.9H6.9v19.2l3.4-3.4h20.4V6.9z M6.9,6.9v19.2V6.9z"/>
</svg>
