<?xml version="1.0" encoding="utf-8"?>
<!-- Generator: Adobe Illustrator 27.2.0, SVG Export Plug-In . SVG Version: 6.00 Build 0)  -->
<svg version="1.1" id="Camada_1" xmlns="http://www.w3.org/2000/svg" xmlns:xlink="http://www.w3.org/1999/xlink" x="0px" y="0px"
	 viewBox="0 0 48 48" style="enable-background:new 0 0 48 48;" xml:space="preserve">
<style type="text/css">
	.st0{fill:#333333;}
</style>
<path class="st0" d="M22.5,45.9v-3.8c-4.6-0.5-8.4-2.2-11.4-5.2c-3-3-4.8-6.8-5.3-11.4H2.1v-3h3.7c0.5-4.6,2.2-8.4,5.3-11.4
	s6.8-4.8,11.4-5.3V2.1h3v3.8c4.6,0.5,8.4,2.2,11.4,5.3c3,3,4.8,6.8,5.2,11.4h3.8v3h-3.8c-0.5,4.6-2.2,8.4-5.2,11.4
	c-3,3-6.8,4.8-11.4,5.2v3.8H22.5z M24,39.2c4.2,0,7.7-1.5,10.7-4.5s4.5-6.6,4.5-10.7s-1.5-7.7-4.5-10.7S28.2,8.8,24,8.8
	s-7.7,1.5-10.7,4.5S8.8,19.8,8.8,24s1.5,7.7,4.5,10.7S19.8,39.2,24,39.2z M24,31.5c-2.1,0-3.9-0.7-5.3-2.2c-1.5-1.5-2.2-3.2-2.2-5.3
	s0.7-3.9,2.2-5.3c1.4-1.4,3.2-2.2,5.3-2.2s3.9,0.7,5.3,2.2c1.4,1.5,2.2,3.2,2.2,5.3s-0.7,3.9-2.2,5.3C27.9,30.8,26.1,31.5,24,31.5z
	 M24,28.5c1.3,0,2.3-0.4,3.2-1.3c0.9-0.9,1.3-1.9,1.3-3.2c0-1.3-0.4-2.3-1.3-3.2c-0.9-0.9-1.9-1.3-3.2-1.3c-1.3,0-2.3,0.4-3.2,1.3
	c-0.9,0.9-1.3,1.9-1.3,3.2c0,1.3,0.4,2.3,1.3,3.2C21.7,28.1,22.7,28.5,24,28.5z"/>
<rect x="83.7" y="14.2" class="st0" width="18.1" height="12.5"/>
</svg>
