<?xml version="1.0" encoding="utf-8"?>
<!-- Generator: Adobe Illustrator 27.2.0, SVG Export Plug-In . SVG Version: 6.00 Build 0)  -->
<svg version="1.1" id="Camada_1" xmlns="http://www.w3.org/2000/svg" xmlns:xlink="http://www.w3.org/1999/xlink" x="0px" y="0px"
	 viewBox="0 0 48 48" style="enable-background:new 0 0 48 48;" xml:space="preserve">
<style type="text/css">
	.st0{fill:#333333;}
</style>
<path class="st0" d="M39.8,42.3L26.6,29.1c-1,0.8-2.2,1.5-3.5,2c-1.3,0.5-2.7,0.7-4.3,0.7c-3.7,0-6.8-1.3-9.3-3.8
	c-2.5-2.5-3.8-5.6-3.8-9.2S7,12.1,9.5,9.6c2.5-2.5,5.6-3.8,9.2-3.8s6.7,1.3,9.2,3.8c2.5,2.5,3.8,5.6,3.8,9.2c0,1.4-0.2,2.8-0.7,4.1
	c-0.5,1.3-1.1,2.6-2,3.7l13.3,13.2L39.8,42.3z M18.8,28.3c2.7,0,4.9-0.9,6.8-2.8c1.9-1.9,2.8-4.1,2.8-6.8s-0.9-4.9-2.8-6.8
	c-1.9-1.9-4.1-2.8-6.8-2.8c-2.7,0-5,0.9-6.8,2.8c-1.9,1.9-2.8,4.1-2.8,6.8s0.9,4.9,2.8,6.8C13.8,27.4,16.1,28.3,18.8,28.3z"/>
<rect x="-39.5" y="6.2" class="st0" width="18.1" height="12.5"/>
</svg>
