<?xml version="1.0" encoding="utf-8"?>
<!-- Generator: Adobe Illustrator 27.2.0, SVG Export Plug-In . SVG Version: 6.00 Build 0)  -->
<svg version="1.1" id="Camada_1" xmlns="http://www.w3.org/2000/svg" xmlns:xlink="http://www.w3.org/1999/xlink" x="0px" y="0px"
	 viewBox="0 0 48 48" style="enable-background:new 0 0 48 48;" xml:space="preserve">
<style type="text/css">
	.st0{fill:#333333;}
</style>
<path class="st0" d="M9.1,32.4l13.2,7.6V24.9L9.1,17.3C9.1,17.3,9.1,32.4,9.1,32.4z M25.7,40.1l13.2-7.6V17.2l-13.2,7.7V40.1z
	 M10.9,14.5L24,22.1l13-7.6L24,7L10.9,14.5z M5.7,34.4V15.6c0-0.6,0.1-1.2,0.4-1.7c0.3-0.5,0.7-0.9,1.3-1.3L22.3,4
	c0.5-0.3,1.1-0.4,1.7-0.4s1.2,0.1,1.7,0.4l14.9,8.6c0.5,0.3,1,0.7,1.3,1.3c0.3,0.5,0.5,1.1,0.5,1.7v16.9c0,0.6-0.2,1.2-0.5,1.7
	c-0.3,0.5-0.7,0.9-1.3,1.3L25.7,44c-0.5,0.3-1.1,0.5-1.7,0.5s-1.2-0.2-1.7-0.5L5.7,34.4z"/>
<rect x="73" y="8.3" class="st0" width="18.1" height="12.5"/>
</svg>
