<?xml version="1.0" encoding="utf-8"?>
<!-- Generator: Adobe Illustrator 27.5.0, SVG Export Plug-In . SVG Version: 6.00 Build 0)  -->
<svg version="1.1" id="Camada_1" xmlns="http://www.w3.org/2000/svg" xmlns:xlink="http://www.w3.org/1999/xlink" x="0px" y="0px"
	 viewBox="0 0 500 500" style="enable-background:new 0 0 500 500;" xml:space="preserve">
<style type="text/css">
	.st0{fill:#263238;}
	.st1{clip-path:url(#SVGID_00000136389045836565766750000007301252897253944507_);}
	.st2{opacity:5.000000e-02;fill:#FFFFFF;enable-background:new    ;}
	.st3{fill:#EF9652;}
	.st4{opacity:0.3;fill:#263238;enable-background:new    ;}
	.st5{opacity:0.2;fill:#FFFFFF;enable-background:new    ;}
	.st6{opacity:0.1;fill:none;stroke:#FFFFFF;stroke-width:2;stroke-linecap:round;stroke-linejoin:round;enable-background:new    ;}
	.st7{opacity:0.1;fill:#FFFFFF;enable-background:new    ;}
	.st8{fill:#FFFFFF;}
	.st9{opacity:0.7;fill:#263238;enable-background:new    ;}
	.st10{opacity:0.5;enable-background:new    ;}
</style>
<g id="freepik--Truck--inject-13">
	<path class="st0" d="M158.3,359.7c0,18.8,8.5,34.1,19.1,34.1h20.2c10.5,0,19.1-15.3,19.1-34.1c0-18.9-8.5-34.1-19.1-34.1h-20.2
		C166.8,325.6,158.3,340.9,158.3,359.7z"/>
	<g>
		<defs>
			<path id="SVGID_1_" d="M158.3,359.7c0,18.8,8.5,34.1,19.1,34.1h20.2c10.5,0,19.1-15.3,19.1-34.1c0-18.9-8.5-34.1-19.1-34.1h-20.2
				C166.8,325.6,158.3,340.9,158.3,359.7z"/>
		</defs>
		<clipPath id="SVGID_00000098910823998156191850000014789638894253404841_">
			<use xlink:href="#SVGID_1_"  style="overflow:visible;"/>
		</clipPath>
		<g style="clip-path:url(#SVGID_00000098910823998156191850000014789638894253404841_);">
			<path class="st2" d="M134.5,359.7c0,18.8,8.5,34.1,19.1,34.1h20.2c10.5,0,19.1-15.3,19.1-34.1c0-18.9-8.5-34.1-19.1-34.1h-20.2
				C143,325.6,134.5,340.9,134.5,359.7z"/>
		</g>
	</g>
	<polygon class="st3" points="13.4,106.2 367.9,106.2 367.9,332.6 13.4,332.9 	"/>
	<rect x="13.4" y="106.2" class="st4" width="240.3" height="226.7"/>
	<rect x="253.7" y="106.2" class="st5" width="114.3" height="231.2"/>
	<line class="st6" x1="13.4" y1="116.7" x2="367.1" y2="116.7"/>
	<line class="st6" x1="13.4" y1="126.5" x2="367.1" y2="126.5"/>
	<line class="st6" x1="13.4" y1="136.3" x2="367.1" y2="136.3"/>
	<line class="st6" x1="13.4" y1="146.1" x2="367.1" y2="146.1"/>
	<line class="st6" x1="13.4" y1="155.9" x2="367.1" y2="155.9"/>
	<line class="st6" x1="13.4" y1="165.7" x2="367.1" y2="165.7"/>
	<line class="st6" x1="13.4" y1="175.5" x2="367.1" y2="175.5"/>
	<line class="st6" x1="13.4" y1="185.2" x2="367.1" y2="185.2"/>
	<line class="st6" x1="13.4" y1="195.1" x2="367.1" y2="195.1"/>
	<line class="st6" x1="13.4" y1="204.8" x2="367.1" y2="204.8"/>
	<line class="st6" x1="13.4" y1="214.6" x2="367.1" y2="214.6"/>
	<line class="st6" x1="13.4" y1="224.4" x2="367.1" y2="224.4"/>
	<line class="st6" x1="13.4" y1="234.2" x2="367.1" y2="234.2"/>
	<line class="st6" x1="13.4" y1="244" x2="367.1" y2="244"/>
	<line class="st6" x1="13.4" y1="253.8" x2="367.1" y2="253.8"/>
	<line class="st6" x1="13.4" y1="263.6" x2="367.1" y2="263.6"/>
	<line class="st6" x1="13.4" y1="273.4" x2="367.1" y2="273.4"/>
	<line class="st6" x1="13.4" y1="283.2" x2="367.1" y2="283.2"/>
	<line class="st6" x1="13.4" y1="293" x2="367.1" y2="293"/>
	<line class="st6" x1="13.4" y1="302.8" x2="367.1" y2="302.8"/>
	<line class="st6" x1="13.4" y1="312.6" x2="367.1" y2="312.6"/>
	<line class="st6" x1="13.4" y1="322.4" x2="367.1" y2="322.4"/>
	<path class="st0" d="M415.3,361.6c0,17.4,7.9,31.6,17.7,31.6h18.7c9.8,0,17.7-14.1,17.7-31.6c0-17.5-7.9-31.6-17.7-31.6H433
		C423.2,330,415.3,344.2,415.3,361.6z"/>
	<path class="st2" d="M391.5,361.6c0,17.4,7.9,31.6,17.7,31.6h18.7c9.8,0,17.7-14.1,17.7-31.6c0-17.5-7.9-31.6-17.7-31.6h-18.7
		C399.4,330,391.5,344.2,391.5,361.6z"/>
	<path class="st0" d="M439.3,263.4l-2.4-26.8c0-0.2,0-0.5,0-0.7c0-2.4,1.5-4.2,3.2-4.2h8.9c2,0.1,3.8,2.1,4,4.9l2.4,26.8
		c0,0.2,0,0.5,0,0.7c0,2.4-1.5,4.2-3.2,4.2h-8.9C441.4,268.2,439.7,266.1,439.3,263.4z"/>
	<path class="st3" d="M419.9,162.1H307.8l-40.9,1.2L265.6,345l186.1-72.9l-17.1-92.2C432.6,169.3,426.6,162.1,419.9,162.1z"/>
	<path class="st3" d="M264.8,345.4H354l-1.5-77.8h-27.1l-14.1-59c-2-8.5-8.3-14.2-15.2-13.9"/>
	<path class="st0" d="M336.7,262.6c-2.2,0-4.1-2.3-4.8-5.6c-2.7-14.1-9.6-51.1-11.8-62.2c-0.1-0.3-0.1-0.6-0.1-0.9
		c0-1.7,0.9-3,1.9-3h97.9c3,0,5.6,3.1,6.4,7.6l10.2,54.1c0.1,0.7,0.2,1.5,0.2,2.2c0,4.3-2.2,7.8-4.9,7.8H336.7z"/>
	<path class="st3" d="M352.5,272.1h124.9c0.7,0,1.4,0.1,2.1,0.3c5.8,1.6,9.6,9.2,8.4,17.1v6l0.1,14.6l0.1,24.5v6.8H349.6l-1-6.8
		l-3.6-24.5l-2.2-15.1l-0.3-2.1l-0.5-3.5c-0.1-0.9-0.2-1.9-0.2-2.8C341.8,278.6,346.6,272.1,352.5,272.1z"/>
	<path class="st0" d="M275.3,191.8l23.4-1.3c1.9-0.1,3.5,1.8,4,4.7l10.4,59.3c0.1,0.6,0.1,1.1,0.1,1.7c0,3.5-1.8,6.4-4,6.4h-33.8
		c-2.2,0-4-2.9-4-6.4v-58C271.4,194.8,273.1,192,275.3,191.8z"/>
	<polygon class="st7" points="396.3,262.6 415,262.6 393.5,190.9 374.8,190.9 	"/>
	<polygon class="st7" points="381.7,262.6 390.6,262.6 369.2,190.9 360.2,190.9 	"/>
	<polygon points="488,310.1 488.1,334.5 305.9,334.5 305.9,310.1 	"/>
	<polygon class="st8" points="305.9,310.1 305.9,334.5 378.4,334.5 378.4,327.9 348.1,310.1 331.3,310.1 	"/>
	<polygon class="st8" points="486.9,310.1 488,310.1 488.1,334.5 456.7,334.5 456.7,327.9 	"/>
	<path class="st4" d="M265.5,345.4h80.1l0.1-61.4c0-6.1-5.4-11.9-13.4-11.9h-7.1l-18.1-94.6c-1.8-8.4-9-15.7-15.3-15.4l-25,1.2
		L265.5,345.4"/>
	<path class="st8" d="M342.5,292.9c0.3-0.5,0.8-0.8,1.4-0.8h144v3.2h-144c-0.4,0-0.8-0.1-1.1-0.4c-0.3-0.3-0.5-0.7-0.5-1.2
		C342.3,293.5,342.3,293.2,342.5,292.9z"/>
	<polygon class="st0" points="487.9,292.2 487.9,295.4 462.5,295.4 462.5,292.2 	"/>
	<path class="st0" d="M342.5,292.9c0.3-0.5,0.8-0.8,1.4-0.8h34.9v3.2h-34.9c-0.4,0-0.8-0.1-1.1-0.4c-0.3-0.3-0.5-0.7-0.5-1.2
		C342.3,293.5,342.4,293.2,342.5,292.9z"/>
	<path class="st0" d="M13,332.8H486c3.3,0,6,2.7,6,6v0.6c0,3.3-2.7,6-6,6H13c-3.3,0-6-2.7-6-6v-0.6C7,335.5,9.7,332.8,13,332.8z"/>
	<rect x="381.1" y="337.7" width="70.5" height="3.4"/>
	<path class="st8" d="M470.4,339.4c0-1.1,0.9-2,2-2c1.1,0,2,0.9,2,2c0,1.1-0.9,2-2,2C471.3,341.4,470.4,340.5,470.4,339.4
		C470.4,339.4,470.4,339.4,470.4,339.4z"/>
	<path class="st8" d="M366.3,337.5L366.3,337.5c1.1,0,2,0.9,2,2c0,1.1-0.9,2-2,2c-1.1,0-2-0.9-2-2S365.2,337.5,366.3,337.5z"/>
	<path d="M288.1,393.2h20.4c10.6,0,19.2-15.4,19.2-34.3s-8.6-34.3-19.2-34.3h-20.4c10.6,0,19.2,15.4,19.2,34.3
		C307.3,377.9,298.7,393.3,288.1,393.2z"/>
	<path class="st9" d="M288.1,393.2h20.4c10.6,0,19.2-15.4,19.2-34.3s-8.6-34.3-19.2-34.3h-20.4c10.6,0,19.2,15.4,19.2,34.3
		C307.3,377.9,298.7,393.3,288.1,393.2z"/>
	<ellipse class="st0" cx="288.1" cy="359" rx="19.2" ry="34.3"/>
	<ellipse class="st8" cx="286.6" cy="359" rx="13.6" ry="26.8"/>
	<ellipse class="st0" cx="287.8" cy="359" rx="13" ry="23.2"/>
	<ellipse cx="290.7" cy="359" rx="9.5" ry="16.9"/>
	<path class="st10" d="M13,332.8h240.7v12.6H13c-3.3,0-6-2.7-6-6v-0.6C7,335.5,9.7,332.8,13,332.8z"/>
	<path d="M62.7,393.2H83c10.6,0,19.2-15.4,19.2-34.3s-8.6-34.3-19.2-34.3H62.6c10.6,0,19.2,15.4,19.2,34.3
		C81.8,377.9,73.2,393.3,62.7,393.2z"/>
	<path class="st9" d="M62.7,393.2H83c10.6,0,19.2-15.4,19.2-34.3s-8.6-34.3-19.2-34.3H62.6c10.6,0,19.2,15.4,19.2,34.3
		C81.8,377.9,73.2,393.3,62.7,393.2z"/>
	<ellipse class="st0" cx="62.6" cy="359" rx="19.2" ry="34.3"/>
	<ellipse class="st8" cx="61.1" cy="359" rx="13.6" ry="26.8"/>
	<ellipse class="st0" cx="62.3" cy="359" rx="13" ry="23.2"/>
	<ellipse cx="65.2" cy="359" rx="9.5" ry="16.9"/>
</g>
</svg>
