<?xml version="1.0" encoding="utf-8"?>
<!-- Generator: Adobe Illustrator 27.5.0, SVG Export Plug-In . SVG Version: 6.00 Build 0)  -->
<svg version="1.1" id="Camada_1" xmlns="http://www.w3.org/2000/svg" xmlns:xlink="http://www.w3.org/1999/xlink" x="0px" y="0px"
	 viewBox="0 0 500 500" style="enable-background:new 0 0 500 500;" xml:space="preserve">
<style type="text/css">
	.st0{fill:#EBEBEB;}
	.st1{fill:#263238;}
	.st2{opacity:0.4;fill:#FFFFFF;enable-background:new    ;}
	.st3{opacity:0.3;fill:#FFFFFF;enable-background:new    ;}
	.st4{opacity:0.2;fill:#FFFFFF;enable-background:new    ;}
	.st5{opacity:0.7;fill:#FFFFFF;enable-background:new    ;}
	.st6{fill:#EF9652;}
	.st7{fill:#FFFFFF;}
	.st8{opacity:0.4;enable-background:new    ;}
	.st9{opacity:0.2;enable-background:new    ;}
</style>
<g id="freepik--background-complete--inject-4">
	<rect x="449.2" y="250.5" class="st0" width="25.6" height="0.3"/>
	<rect x="60.1" y="252.8" class="st0" width="8.4" height="0.3"/>
</g>
<g id="freepik--Truck--inject-4">
	<path class="st1" d="M400.5,194H393c-1.9,0-3.4-1.5-3.4-3.4v-13.7c0-1.9,1.5-3.4,3.4-3.4h7.4c1.9,0,3.4,1.5,3.4,3.4v13.7
		C403.8,192.5,402.3,194,400.5,194z"/>
	<path class="st2" d="M400.5,194H393c-1.9,0-3.4-1.5-3.4-3.4v-13.7c0-1.9,1.5-3.4,3.4-3.4h7.4c1.9,0,3.4,1.5,3.4,3.4v13.7
		C403.8,192.5,402.3,194,400.5,194z"/>
	<path class="st1" d="M390.2,182.8c-1,1.1-2.3,2-3.6,2.6c-0.8,0.3-1.3,1-1.4,1.9l-0.4,5c-0.1,1.2,0.8,2.2,2,2.3c0,0,0.1,0,0.1,0h3.3
		c0.3,0,0.7-0.1,1-0.2l3.4-1.8c0.7-0.4,1.2-1.1,1.2-1.9v-6.3c0-1.2-1-2.2-2.2-2.2h-2C391.2,182.1,390.6,182.4,390.2,182.8z"/>
	<path class="st3" d="M390.2,182.8c-1,1.1-2.3,2-3.6,2.6c-0.8,0.3-1.3,1-1.4,1.9l-0.4,5c-0.1,1.2,0.8,2.2,2,2.3c0,0,0.1,0,0.1,0h3.3
		c0.3,0,0.7-0.1,1-0.2l3.4-1.8c0.7-0.4,1.2-1.1,1.2-1.9v-6.3c0-1.2-1-2.2-2.2-2.2h-2C391.2,182.1,390.6,182.4,390.2,182.8z"/>
	<path class="st1" d="M124.8,220.6c-0.4,0-0.7,0-1.1-0.1c-2.1-0.6-3.4-2.8-2.8-4.9c0,0,0,0,0,0L141,144c1.7-5.9,7.1-10,13.2-10H225
		c2.2,0,4,1.8,4,4s-1.8,4-4,4h-70.8c-2.6,0-4.8,1.7-5.5,4.2l-20.1,71.5C128.1,219.4,126.5,220.6,124.8,220.6z"/>
	<path class="st1" d="M70.2,217.2c-2.2,0-4-1.8-4-4c0-1,0.4-2,1-2.7l45.1-51.7c3.1-3.6,7.6-5.6,12.3-5.6h16.8c2.2,0,4,1.8,4,4
		c0,2.2-1.8,4-4,4h-16.8c-2.4,0-4.7,1-6.3,2.9l-45.1,51.7C72.5,216.7,71.4,217.2,70.2,217.2z"/>
	<path d="M419.5,279.3h16.3c18.1,0,32.7,20.2,32.7,45.2c0,24.9-14.7,45.2-32.7,45.2h-16.3c-18.1,0-32.7-20.2-32.7-45.2
		C386.8,299.5,401.4,279.3,419.5,279.3z"/>
	<path d="M193,279.3h16.3c18.1,0,32.7,20.2,32.7,45.2c0,24.9-14.7,45.2-32.7,45.2H193c-18.1,0-32.7-20.2-32.7-45.2
		C160.3,299.5,174.9,279.3,193,279.3z"/>
	<path class="st1" d="M24.3,304.2h16.7l16.3,19.8h75.5c3.5,5.7,9.8,9.2,16.5,9c11.8,0,14.3-7.8,14.3-7.8h43.8l5.3,7.8h78l12.1-8.5
		h65c0,0,3.4,8.5,15.4,8.5c6.9,0.1,13.4-3.3,17.3-9h18c8.1,0,15.4-4.9,18.5-12.4l20.3-50.6h-433L24.3,304.2z"/>
	<path d="M292.7,279.3H309c18.1,0,32.7,20.2,32.7,45.2c0,24.9-14.7,45.2-32.7,45.2h-16.3c-18.1,0-32.7-20.2-32.7-45.2
		C260,299.5,274.6,279.3,292.7,279.3z"/>
	<path class="st4" d="M287.6,282.5c15.1,0,27.3,18.8,27.3,42s-12.2,42-27.3,42s-27.3-18.8-27.3-42
		C260.3,301.3,272.5,282.5,287.6,282.5z"/>
	<path class="st4" d="M285.2,301.8c8.2,0,14.8,10.2,14.8,22.7c0,12.5-6.7,22.7-14.8,22.7c-8.1,0-14.8-10.2-14.8-22.7
		C270.5,311.9,277.1,301.8,285.2,301.8z"/>
	<path class="st5" d="M290.8,313.1c4.1,0,7.4,5.1,7.4,11.3c0,6.3-3.3,11.4-7.4,11.4s-7.4-5.1-7.4-11.4
		C283.4,318.2,286.7,313.1,290.8,313.1z"/>
	<path d="M66.2,279.3h16.3c18.1,0,32.7,20.2,32.7,45.2c0,24.9-14.7,45.2-32.7,45.2H66.2c-18.1,0-32.7-20.2-32.7-45.2
		C33.5,299.5,48.1,279.3,66.2,279.3z"/>
	<path class="st4" d="M61.1,282.5c15.1,0,27.3,18.8,27.3,42s-12.2,42-27.3,42s-27.3-18.8-27.3-42C33.8,301.3,46,282.5,61.1,282.5z"
		/>
	<path class="st4" d="M58.7,301.8c8.2,0,14.8,10.2,14.8,22.7c0,12.5-6.7,22.7-14.8,22.7s-14.8-10.2-14.8-22.7
		C43.9,311.9,50.6,301.8,58.7,301.8z"/>
	<path class="st5" d="M64.3,313.1c3.9,0,7,4.8,7,10.8c0,6-3.1,10.8-7,10.8c-3.9,0-7-4.8-7-10.8C57.3,318,60.5,313.1,64.3,313.1z"/>
	<path class="st6" d="M482.1,229v82.6H333.2l-10.4-29.4c-2.6-7.4-9.6-12.3-17.4-12.3h-22.7c-8.3,0-15.6,5.6-17.8,13.7l-7.8,28.2
		H104.8l-9.1-28.9c-2.4-7.7-9.6-12.9-17.6-12.9H56.2c-4.5,0-8.9,1.6-12.2,4.6c-2.8,2.5-4.8,5.7-5.7,9.3l-7,27.8H16.3V206.2
		c0-3.4,2.7-6.1,6.1-6.1c0,0,0,0,0,0H143c0,0,4.7-30.2,15.4-56.9c1-2.5,3.1-4.3,5.7-4.9c6.8-1.5,23.4-3.9,61-3.9
		c102.7,0,123.8,6.3,123.8,6.3c30.1,21.5,57.7,55.9,57.7,55.9c2.5,0.5,4.8,0.9,7.1,1.4c13.3,2.6,26.3,6.2,39.1,10.7
		c8.2,2.8,16.1,6.5,23.6,10.8l0.7,0.4l0.2,0.1C480.2,222,482.1,225.4,482.1,229z"/>
	<path class="st1" d="M491.5,266.9v44.4c0,4.9-4,8.8-8.9,8.8H342.5c-4.9,0-7.9-4-9.3-8.5l-10.4-29.5c-1.4-4-4.2-7.5-7.9-9.7
		c0-4.9,21.5-14.5,26.4-14.5h35.8l5.6,12.1c1.6,3.4,5,5.6,8.8,5.6h61.3c4.5,0,8.3-3.5,8.7-8l0.8-9.7h20.4
		C487.5,258,491.5,261.9,491.5,266.9C491.5,266.9,491.5,266.9,491.5,266.9z"/>
	<path class="st1" d="M399.6,197.4h-13.1l-26.2-3.4h-45.4l-14.7,3.4h-38.7c0,0-5.9-35.1-16.3-56.2c0,0,60-2,103.1,4.1
		C348.3,145.3,370,158.6,399.6,197.4z"/>
	<path class="st1" d="M249.2,197.4h-61c-1.8,0-3.5-0.7-4.7-2.1l-4.3-4.7c-1.2-1.3-2.9-2.1-4.7-2.1h-24.3
		c3.8-22.4,9.8-35.2,12.4-43.2c0.8-2.4,2.9-4,5.3-4.3c3.5-0.3,7-0.5,10.4-0.6l4.3-0.2c28.5-1.1,54.2,0.7,54.2,0.7
		c3.5,6.3,7.5,27.5,9.9,42.1l0,0C248.3,191.3,249.2,197.4,249.2,197.4z"/>
	<path class="st4" d="M491.5,266.9v44.4c0,4.9-4,8.8-8.9,8.8H342.5c-4.9,0-7.9-4-9.3-8.5l-10.4-29.5c-1.4-4-4.2-7.5-7.9-9.7
		c0-4.9,21.5-14.5,26.4-14.5h35.8l5.6,12.1c1.6,3.4,5,5.6,8.8,5.6h61.3c4.5,0,8.3-3.5,8.7-8l0.8-9.7h20.4
		C487.5,258,491.5,261.9,491.5,266.9C491.5,266.9,491.5,266.9,491.5,266.9z"/>
	<path class="st6" d="M346,259.2l-10.7,0.1c-1.6,0-2.9-1.3-2.9-2.9v-21.7c0-2.6,2.1-4.7,4.7-4.7h11.4c-2.6,0-4.7,2.1-4.7,4.7v21.7
		C343.8,257.7,344.7,258.9,346,259.2z"/>
	<path class="st6" d="M343.8,256.4v-21.7c0-2.6,2.1-4.7,4.7-4.7h12.8c1.9,0,3.5,1.1,4.3,2.8l10.3,22.9c0.5,1.2,0,2.6-1.2,3.2
		c-0.3,0.1-0.6,0.2-1,0.2l-26.9,0.2C345.1,259.3,343.8,258,343.8,256.4z"/>
	<path class="st6" d="M478.3,230H468c-1.9,0-3.5,1.4-3.6,3.3l-2.1,22.9c-0.1,1.5,1,2.7,2.5,2.8c0,0,0.1,0,0.1,0h16.6v-24.4
		c0-1.4-0.7-2.8-1.8-3.7L478.3,230z"/>
	<path class="st5" d="M343.8,256.4v-21.7c0-2.6,2.1-4.7,4.7-4.7h12.8c1.9,0,3.5,1.1,4.3,2.8l10.3,22.9c0.5,1.2,0,2.6-1.2,3.2
		c-0.3,0.1-0.6,0.2-1,0.2l-26.9,0.2C345.1,259.3,343.8,258,343.8,256.4z"/>
	<path class="st5" d="M478.3,230H468c-1.9,0-3.5,1.4-3.6,3.3l-2.1,22.9c-0.1,1.5,1,2.7,2.5,2.8c0,0,0.1,0,0.1,0h16.6v-24.4
		c0-1.4-0.7-2.8-1.8-3.7L478.3,230z"/>
	<path class="st7" d="M369.1,248c0,4.3-2.8,7.9-6.4,7.9s-6.4-3.5-6.4-7.9c0-4.3,2.8-7.8,6.4-7.8S369.1,243.7,369.1,248z"/>
	<ellipse class="st7" cx="351.8" cy="238.7" rx="3.8" ry="4.5"/>
	<ellipse class="st7" cx="470.5" cy="248" rx="6.4" ry="7.9"/>
	<path class="st7" d="M481.1,238.7c-0.4,2.1-2.4,3.5-4.5,3.1c-2.1-0.4-3.5-2.4-3.1-4.5c0.3-1.8,1.9-3.1,3.8-3.1
		C479.6,234.4,481.3,236.4,481.1,238.7z"/>
	<path class="st4" d="M346,259.2l-10.7,0.1c-1.6,0-2.9-1.3-2.9-2.9v-21.7c0-2.6,2.1-4.7,4.7-4.7h11.4c-2.6,0-4.7,2.1-4.7,4.7v21.7
		C343.8,257.7,344.7,258.9,346,259.2z"/>
	<path class="st6" d="M485.2,234.7V259h-3.8v-24.4c0-1.4-0.7-2.8-1.8-3.7l-1.3-1h3.8l1.3,1C484.6,231.9,485.2,233.2,485.2,234.7z"/>
	<path class="st4" d="M485.2,234.7V259h-3.8v-24.4c0-1.4-0.7-2.8-1.8-3.7l-1.3-1h3.8l1.3,1C484.6,231.9,485.3,233.2,485.2,234.7z"/>
	<path class="st8" d="M337.1,230h11.4c-2.6,0-4.7,2.1-4.7,4.7v9.8h-11.3v-9.8C332.5,232.2,334.5,230.1,337.1,230z"/>
	<path class="st8" d="M485.2,234.7v9.8h-3.8v-9.8c0-1.4-0.7-2.8-1.8-3.7l-1.3-1h3.8l1.3,1C484.6,231.9,485.3,233.2,485.2,234.7z"/>
	<path class="st8" d="M459.4,232.1l-3,35.2c-0.2,1.9-1.8,3.4-3.7,3.4h-61.3c-1.8,0-3.4-1-4.2-2.7l-16.8-36.4
		c-0.1-0.1-0.1-0.3-0.1-0.4c-0.1-0.7,0.4-1.4,1.1-1.5c0.1,0,0.1,0,0.2,0h85.5c1.2,0,2.2,1,2.2,2.2C459.4,232,459.4,232,459.4,232.1z
		"/>
	<path class="st1" d="M456.1,233.6l-3,35.2c0,0.7-0.3,1.3-0.7,1.9h-61c-1.8,0-3.4-1-4.2-2.7l-16.8-36.4c-0.1-0.1-0.1-0.3-0.1-0.4
		h83.6c1.2,0,2.2,1,2.2,2.2C456.1,233.5,456.1,233.6,456.1,233.6z"/>
	<path class="st4" d="M456.1,233.6l-1.3,14.9l-0.2,2.5l-1.5,17.9c0,0.7-0.3,1.3-0.7,1.9h-61c-1.8,0-3.4-1-4.2-2.7l-7.9-17.1
		l-1.1-2.5l-7.8-16.8c-0.1-0.1-0.1-0.3-0.1-0.4h83.6c1.2,0,2.2,1,2.2,2.2C456.1,233.5,456.1,233.6,456.1,233.6z"/>
	<polygon class="st1" points="381.9,233 383.4,231.2 376,231.2 377.5,233 	"/>
	<polygon class="st1" points="397,233 398.5,231.2 391.1,231.2 392.6,233 	"/>
	<polygon class="st1" points="412.2,233 413.7,231.2 406.3,231.2 407.8,233 	"/>
	<polygon class="st1" points="427.4,233 428.9,231.2 421.5,231.2 423,233 	"/>
	<polygon class="st1" points="442.5,233 444,231.2 436.6,231.2 438.1,233 	"/>
	<path class="st1" d="M456.1,233c-0.2-1-1.1-1.8-2.1-1.8h-2.1l1.5,1.8H456.1z"/>
	<path class="st1" d="M376.5,233.7l-2.1-2.4h-4.1c0,0.1,0.1,0.3,0.1,0.4l2.1,4.6h1.7L376.5,233.7z"/>
	<polygon class="st1" points="385.1,236.3 389.4,236.3 391.6,233.7 389.6,231.2 384.9,231.2 382.9,233.7 	"/>
	<polygon class="st1" points="400.2,236.3 404.6,236.3 406.8,233.7 404.8,231.2 400.1,231.2 398,233.7 	"/>
	<polygon class="st1" points="415.4,236.3 419.8,236.3 422,233.7 419.9,231.2 415.2,231.2 413.2,233.7 	"/>
	<polygon class="st1" points="430.5,236.3 434.9,236.3 437.1,233.7 435.1,231.2 430.4,231.2 428.3,233.7 	"/>
	<polygon class="st1" points="445.7,236.3 450.1,236.3 452.3,233.7 450.3,231.2 445.6,231.2 443.5,233.7 	"/>
	<polygon class="st1" points="381.9,234.3 377.5,234.3 375.3,236.9 377.5,239.5 381.9,239.5 384.1,236.9 	"/>
	<polygon class="st1" points="397,239.5 399.2,236.9 397,234.3 392.6,234.3 390.4,236.9 392.6,239.5 	"/>
	<polygon class="st1" points="412.2,239.5 414.4,236.9 412.2,234.3 407.8,234.3 405.6,236.9 407.8,239.5 	"/>
	<polygon class="st1" points="427.4,239.5 429.6,236.9 427.4,234.3 423,234.3 420.8,236.9 423,239.5 	"/>
	<polygon class="st1" points="442.5,239.5 444.7,236.9 442.5,234.3 438.1,234.3 435.9,236.9 438.1,239.5 	"/>
	<polygon class="st1" points="451.1,236.9 453.3,239.5 455.6,239.5 456,234.3 453.3,234.3 	"/>
	<polygon class="st1" points="374.3,237.6 373.2,237.6 375.1,241.8 376.5,240.2 	"/>
	<polygon class="st1" points="389.4,242.8 391.6,240.2 389.4,237.6 385.1,237.6 382.9,240.2 385.1,242.8 	"/>
	<polygon class="st1" points="400.2,242.8 404.6,242.8 406.8,240.2 404.6,237.6 400.2,237.6 398,240.2 	"/>
	<polygon class="st1" points="415.4,242.8 419.8,242.8 422,240.2 419.8,237.6 415.4,237.6 413.2,240.2 	"/>
	<polygon class="st1" points="430.5,242.8 434.9,242.8 437.1,240.2 434.9,237.6 430.5,237.6 428.3,240.2 	"/>
	<polygon class="st1" points="445.7,242.8 450.1,242.8 452.3,240.2 450.1,237.6 445.7,237.6 443.5,240.2 	"/>
	<polygon class="st1" points="381.9,246 384.1,243.4 381.9,240.8 377.5,240.8 375.7,242.9 376.6,245 377.5,246 	"/>
	<polygon class="st1" points="392.6,240.8 390.4,243.4 392.6,246 397,246 399.2,243.4 397,240.8 	"/>
	<polygon class="st1" points="407.8,240.8 405.6,243.4 407.8,246 412.2,246 414.4,243.4 412.2,240.8 	"/>
	<polygon class="st1" points="423,240.8 420.8,243.4 423,246 427.4,246 429.6,243.4 427.4,240.8 	"/>
	<polygon class="st1" points="442.5,240.8 438.1,240.8 435.9,243.4 438.1,246 442.5,246 444.7,243.4 	"/>
	<polygon class="st1" points="451.1,243.4 453.3,246 455.1,246 455.5,240.8 453.3,240.8 	"/>
	<polygon class="st1" points="389.4,249.3 391.6,246.6 389.4,244 385.1,244 382.9,246.6 385.1,249.3 	"/>
	<polygon class="st1" points="400.2,244 398,246.6 400.2,249.3 404.6,249.3 406.8,246.6 404.6,244 	"/>
	<polygon class="st1" points="415.4,244 413.2,246.6 415.4,249.3 419.8,249.3 422,246.6 419.8,244 	"/>
	<polygon class="st1" points="430.5,244 428.3,246.6 430.5,249.3 434.9,249.3 437.1,246.6 434.9,244 	"/>
	<polygon class="st1" points="445.7,244 443.5,246.6 445.7,249.3 450.1,249.3 452.3,246.6 450.1,244 	"/>
	<polygon class="st1" points="384.1,249.9 381.9,247.3 377.7,247.3 380.1,252.5 381.9,252.5 	"/>
	<polygon class="st1" points="392.6,252.5 397,252.5 399.2,249.9 397,247.3 392.6,247.3 390.4,249.9 	"/>
	<polygon class="st1" points="407.8,247.3 405.6,249.9 407.8,252.5 412.2,252.5 414.4,249.9 412.2,247.3 	"/>
	<polygon class="st1" points="427.4,252.5 429.6,249.9 427.4,247.3 423,247.3 420.8,249.9 423,252.5 	"/>
	<polygon class="st1" points="442.5,252.5 444.7,249.9 442.5,247.3 438.1,247.3 435.9,249.9 438.1,252.5 	"/>
	<polygon class="st1" points="451.1,249.9 453.3,252.5 454.5,252.5 454.9,247.3 453.3,247.3 	"/>
	<polygon class="st1" points="389.4,250.5 385.1,250.5 382.9,253.1 385.1,255.7 389.4,255.7 391.6,253.1 	"/>
	<polygon class="st1" points="404.6,255.7 406.8,253.1 404.6,250.5 400.2,250.5 398,253.1 400.2,255.7 	"/>
	<polygon class="st1" points="419.8,255.7 422,253.1 419.8,250.5 415.4,250.5 413.2,253.1 415.4,255.7 	"/>
	<polygon class="st1" points="434.9,255.7 437.1,253.1 434.9,250.5 430.5,250.5 428.3,253.1 430.5,255.7 	"/>
	<polygon class="st1" points="445.7,250.5 443.5,253.1 445.7,255.7 450.1,255.7 452.3,253.1 450.1,250.5 	"/>
	<polygon class="st1" points="381.9,253.8 380.7,253.8 382.6,258.1 384.1,256.4 	"/>
	<polygon class="st1" points="397,259 399.2,256.4 397,253.8 392.6,253.8 390.4,256.4 392.6,259 	"/>
	<polygon class="st1" points="412.2,259 414.4,256.4 412.2,253.8 407.8,253.8 405.6,256.4 407.8,259 	"/>
	<polygon class="st1" points="427.4,259 429.6,256.4 427.4,253.8 423,253.8 420.8,256.4 423,259 	"/>
	<polygon class="st1" points="442.5,259 444.7,256.4 442.5,253.8 438.1,253.8 435.9,256.4 438.1,259 	"/>
	<polygon class="st1" points="451.1,256.4 453.3,259 454,259 454.4,253.8 453.3,253.8 	"/>
	<polygon class="st1" points="389.4,262.2 391.6,259.6 389.4,257 385.1,257 383.2,259.2 384,261 385.1,262.2 	"/>
	<polygon class="st1" points="400.2,262.2 404.6,262.2 406.8,259.6 404.6,257 400.2,257 398,259.6 	"/>
	<polygon class="st1" points="419.8,262.2 422,259.6 419.8,257 415.4,257 413.2,259.6 415.4,262.2 	"/>
	<polygon class="st1" points="434.9,262.2 437.1,259.6 434.9,257 430.5,257 428.3,259.6 430.5,262.2 	"/>
	<polygon class="st1" points="445.7,257 443.5,259.6 445.7,262.2 450.1,262.2 452.3,259.6 450.1,257 	"/>
	<polygon class="st1" points="397,260.3 392.6,260.3 390.4,262.9 392.6,265.5 397,265.5 399.2,262.9 	"/>
	<polygon class="st1" points="412.2,260.3 407.8,260.3 405.6,262.9 407.8,265.5 412.2,265.5 414.4,262.9 	"/>
	<polygon class="st1" points="427.4,260.3 423,260.3 420.8,262.9 423,265.5 427.4,265.5 429.6,262.9 	"/>
	<polygon class="st1" points="442.5,260.3 438.1,260.3 435.9,262.9 438.1,265.5 442.5,265.5 444.7,262.9 	"/>
	<polygon class="st1" points="451.1,262.9 453.3,265.5 453.4,265.5 453.9,260.3 453.3,260.3 	"/>
	<path class="st1" d="M391.6,266.2l-2.2-2.7h-4.3l2.1,4.5c0.1,0.2,0.2,0.5,0.4,0.7h1.8L391.6,266.2z"/>
	<polygon class="st1" points="400.2,263.5 398,266.1 400.2,268.7 404.6,268.7 406.8,266.1 404.6,263.5 	"/>
	<polygon class="st1" points="415.4,263.5 413.2,266.1 415.4,268.7 419.8,268.7 422,266.1 419.8,263.5 	"/>
	<polygon class="st1" points="430.5,263.5 428.3,266.1 430.5,268.7 434.9,268.7 437.1,266.1 434.9,263.5 	"/>
	<polygon class="st1" points="450.1,263.5 445.7,263.5 443.5,266.1 445.7,268.7 450.1,268.7 452.3,266.1 	"/>
	<polygon class="st1" points="397,266.8 392.6,266.8 390.4,269.4 391.6,270.7 398.1,270.7 399.2,269.4 	"/>
	<polygon class="st1" points="412.2,266.8 407.8,266.8 405.6,269.4 406.7,270.7 413.3,270.7 414.4,269.4 	"/>
	<polygon class="st1" points="427.4,266.8 423,266.8 420.8,269.4 421.9,270.7 428.4,270.7 429.6,269.4 	"/>
	<polygon class="st1" points="442.5,266.8 438.1,266.8 435.9,269.4 437.1,270.7 443.6,270.7 444.7,269.4 	"/>
	<path class="st1" d="M453.3,266.8l-2.2,2.7l1.1,1.3h0.2c0.4-0.5,0.7-1.2,0.7-1.9L453.3,266.8L453.3,266.8z"/>
	<path class="st1" d="M389,270c0.3,0.2,0.5,0.3,0.8,0.4l-0.3-0.4H389z"/>
	<polygon class="st1" points="400.2,270 399.6,270.7 405.2,270.7 404.6,270 	"/>
	<polygon class="st1" points="415.4,270 414.8,270.7 420.4,270.7 419.8,270 	"/>
	<polygon class="st1" points="430.5,270 430,270.7 435.5,270.7 434.9,270 	"/>
	<polygon class="st1" points="445.7,270 445.1,270.7 450.7,270.7 450.1,270 	"/>
	<polygon class="st1" points="454.9,248.5 454.6,251 379.4,251 378.2,248.5 	"/>
	<polygon class="st4" points="454.9,248.5 454.6,251 379.4,251 378.2,248.5 	"/>
	<polygon class="st1" points="442.7,245.5 393.5,245.5 389.8,249.9 393.5,254.3 442.7,254.3 446.4,249.9 	"/>
	<polygon class="st4" points="442.7,245.5 393.5,245.5 389.8,249.9 393.5,254.3 442.7,254.3 446.4,249.9 	"/>
	<rect x="396.7" y="290.4" class="st4" width="52.7" height="24.8"/>
	<path class="st1" d="M370.2,308.5H358c-2.1,0-3.9-1.7-3.9-3.9v-23.4c0-2.1,1.7-3.9,3.9-3.9h12.7c1.5,0,2.9,0.9,3.5,2.2l3.4,7.3
		c0.4,0.8,0.5,1.7,0.3,2.6l-4,16.1C373.5,307.3,372,308.5,370.2,308.5z"/>
	<path class="st2" d="M369.1,291.9c0,4-2.7,7.2-5.9,7.2c-3.2,0-5.9-3.3-5.9-7.2s2.7-7.3,5.9-7.3
		C366.4,284.6,369.1,287.9,369.1,291.9z"/>
	<path class="st1" d="M469.8,308.5h12.2c2.1,0,3.9-1.7,3.9-3.9v-23.4c0-2.1-1.7-3.9-3.9-3.9h-12.7c-1.5,0-2.9,0.9-3.5,2.2l-3.4,7.3
		c-0.4,0.8-0.5,1.7-0.3,2.6l4,16.1C466.4,307.3,468,308.5,469.8,308.5z"/>
	<path class="st2" d="M476.9,291.9c0,4-2.7,7.2-5.9,7.2s-5.9-3.3-5.9-7.2s2.7-7.3,5.9-7.3S476.9,287.9,476.9,291.9z"/>
	<path class="st1" d="M43.9,274.5c-2.8,2.5-4.8,5.7-5.7,9.3l-7,27.8H31c-1,2.1-3.1,3.4-5.4,3.4H14.5c-3.3,0-6-2.7-6-6l0,0v-46.2
		c0-2.6,1.6-5,4-6l0,0l2,0.1h15.2c2.5,0,4.8,1.3,6.1,3.5L43.9,274.5z"/>
	<path class="st4" d="M43.9,274.5c-2.8,2.5-4.8,5.7-5.7,9.3l-7,27.8H31c-1,2.1-3.1,3.4-5.4,3.4H14.5c-3.3,0-6-2.7-6-6l0,0v-46.2
		c0-2.6,1.6-5,4-6l0,0l2,0.1h15.2c2.5,0,4.8,1.3,6.1,3.5L43.9,274.5z"/>
	<path class="st6" d="M26.2,220.9v36H12.5v-34c0-2.5,2-4.6,4.6-4.6c0,0,0,0,0,0h6.6C25.1,218.3,26.2,219.4,26.2,220.9z"/>
	<path class="st4" d="M26.2,220.9v36H12.5v-34c0-2.5,2-4.6,4.6-4.6c0,0,0,0,0,0h6.6C25.1,218.3,26.2,219.4,26.2,220.9z"/>
	<path class="st8" d="M26.2,220.9V232H12.5v-9.1c0-2.5,2-4.6,4.5-4.6c0,0,0,0,0.1,0h6.6C25.1,218.3,26.2,219.4,26.2,220.9z"/>
	<rect x="12.5" y="232" class="st5" width="13.8" height="12.7"/>
	<path class="st9" d="M247.9,302.4H151c-2.8,0-5.5-1.3-7.3-3.6l-2-2.5c-1-1.3-1.7-2.9-1.9-4.6c-5.3-50.8,0.2-88.8,0.3-89.2
		c0.1-0.4,0.4-0.6,0.8-0.6c0.4,0,0.6,0.4,0.6,0.7c0,0,0,0,0,0c0,0.4-5.6,38.2-0.3,88.8c0.1,1.5,0.7,2.8,1.6,4l2,2.5
		c1.5,1.9,3.8,3.1,6.2,3.1h96.9c2.1,0,4-1.4,4.6-3.5l8.7-30.1c2.6-8.9,10.7-15,20-15.1h31.3c2.7,0,5.3,0.8,7.6,2.2l6.2,3.8
		c0.3,0.2,0.4,0.6,0.2,0.9c-0.2,0.3-0.6,0.4-0.9,0.2l0,0l-6.2-3.8c-2.1-1.3-4.5-2-6.9-2h-31.2c-8.7,0-16.3,5.8-18.7,14.1l-8.7,30.1
		C253.1,300.6,250.7,302.4,247.9,302.4z"/>
	<path class="st9" d="M249.2,294.7c-0.3,0-0.6-0.3-0.7-0.6c-5-46.1,0-92.1,0-92.6c0-0.4,0.4-0.6,0.7-0.6c0.4,0,0.6,0.4,0.6,0.7
		c0,0,0,0,0,0c0,0.5-5,46.4,0,92.3C249.9,294.3,249.6,294.6,249.2,294.7L249.2,294.7z"/>
	<path class="st4" d="M182.8,140.3c-4.1,15.8-7,32-8.8,48.3h-5.7c2.2-16.2,5.6-32.3,10.2-48.1L182.8,140.3z"/>
	<path class="st9" d="M170.9,187.2L170.9,187.2c-0.4,0-0.6-0.4-0.6-0.7c0,0,0,0,0,0c2.2-21.3,8.7-45.5,8.8-45.7
		c0.1-0.4,0.5-0.6,0.8-0.5c0.3,0.1,0.6,0.4,0.5,0.8c0,0,0,0,0,0c0,0.2-6.5,24.2-8.7,45.5C171.6,186.9,171.2,187.2,170.9,187.2z"/>
	<path class="st9" d="M168.4,294.7c-0.4,0-0.7-0.3-0.7-0.6c-1.8-34.4-1-68.8,2.5-103.1c0-0.4,0.4-0.6,0.7-0.6c0,0,0,0,0,0
		c0.4,0,0.6,0.4,0.6,0.7c0,0,0,0,0,0c-3.5,34.2-4.3,68.6-2.5,102.9C169.1,294.3,168.8,294.7,168.4,294.7L168.4,294.7z"/>
	<path class="st4" d="M477.2,219.9h-21.7c-3.6-3.3-11.1-5-18.9-5h-63.2c-7.8,0-10.2,5-10.2,5h-30.8c-9.4-7.7-67.1-18.4-67.1-18.4
		c9.3-3.4,37.8-2.3,37.8-2.3c10.3,1.4,20.6,3.3,30.7,5.7c-9-4.7-27.1-7.5-27.1-7.5l8.2-3.4h45.4l30.7,4.9h17.2l5.3-0.8
		c13.3,2.6,26.3,6.2,39.1,10.7l23.6,10.8L477.2,219.9z"/>
	<path class="st4" d="M190.2,216.6h-11.2c-2.1,0-3.8-1.7-3.8-3.8l0,0l0,0c0-2.1,1.7-3.8,3.8-3.9c0,0,0,0,0,0h11.2
		c2.1,0,3.8,1.7,3.9,3.8c0,0,0,0,0,0l0,0C194.1,214.9,192.4,216.6,190.2,216.6C190.3,216.6,190.3,216.6,190.2,216.6z"/>
	<path class="st4" d="M249.2,197.4h-13.4l0.9-12.4c0.1-1.1,1-1.9,2.1-1.9h8.2C248.3,191.3,249.2,197.4,249.2,197.4z"/>
	<path class="st1" d="M229.1,173.6h7.4c1.9,0,3.4,1.5,3.4,3.4v13.7c0,1.9-1.5,3.4-3.4,3.4h-7.4c-1.9,0-3.4-1.5-3.4-3.4v-13.7
		C225.8,175.1,227.3,173.6,229.1,173.6z"/>
	<path class="st2" d="M229.1,173.6h7.4c1.9,0,3.4,1.5,3.4,3.4v13.7c0,1.9-1.5,3.4-3.4,3.4h-7.4c-1.9,0-3.4-1.5-3.4-3.4v-13.7
		C225.8,175.1,227.3,173.6,229.1,173.6z"/>
	<path class="st1" d="M239.4,182.8c1,1.1,2.3,2,3.6,2.6c0.8,0.3,1.3,1,1.3,1.9l0.4,5c0.1,1.2-0.8,2.2-2,2.3c-0.1,0-0.1,0-0.2,0h-3.3
		c-0.3,0-0.7-0.1-1-0.2l-3.4-1.8c-0.7-0.4-1.2-1.1-1.2-1.9v-6.3c0-1.2,1-2.2,2.2-2.2h2C238.4,182.1,239,182.4,239.4,182.8z"/>
	<path class="st3" d="M239.4,182.8c1,1.1,2.3,2,3.6,2.6c0.8,0.3,1.3,1,1.3,1.9l0.4,5c0.1,1.2-0.8,2.2-2,2.3c-0.1,0-0.1,0-0.2,0h-3.3
		c-0.3,0-0.7-0.1-1-0.2l-3.4-1.8c-0.7-0.4-1.2-1.1-1.2-1.9v-6.3c0-1.2,1-2.2,2.2-2.2h2C238.4,182.1,239,182.4,239.4,182.8z"/>
	<path class="st4" d="M301.7,143.2c0,0,24.9,17.3,38.5,34.1c-2.6-7.2-6.2-14-10.7-20.1c0,0,18.5,12.9,30.5,33l27.6,3.8h7.3
		c0,0-28.8-33.5-46.7-47.4C348.1,146.6,326,144.1,301.7,143.2z"/>
</g>
</svg>
