<?xml version="1.0" encoding="utf-8"?>
<!-- Generator: Adobe Illustrator 27.5.0, SVG Export Plug-In . SVG Version: 6.00 Build 0)  -->
<svg version="1.1" id="Camada_1" xmlns="http://www.w3.org/2000/svg" xmlns:xlink="http://www.w3.org/1999/xlink" x="0px" y="0px"
	 viewBox="0 0 500 500" style="enable-background:new 0 0 500 500;" xml:space="preserve">
<style type="text/css">
	.st0{fill:#263238;}
	.st1{opacity:0.4;fill:#FFFFFF;enable-background:new    ;}
	.st2{opacity:0.3;fill:#FFFFFF;enable-background:new    ;}
	.st3{opacity:0.2;fill:#FFFFFF;enable-background:new    ;}
	.st4{opacity:0.7;fill:#FFFFFF;enable-background:new    ;}
	.st5{fill:#407BFF;}
	.st6{fill:#FFFFFF;}
	.st7{opacity:0.4;enable-background:new    ;}
	.st8{opacity:0.2;enable-background:new    ;}
</style>
<g id="freepik--Truck--inject-77">
	<path class="st0" d="M403,191.2h-7.6c-1.9,0-3.4-1.5-3.4-3.4v-13.9c0-1.9,1.5-3.4,3.4-3.4h7.6c1.9,0,3.4,1.5,3.4,3.4v13.9
		C406.4,189.7,404.9,191.2,403,191.2z"/>
	<path class="st1" d="M403,191.2h-7.6c-1.9,0-3.4-1.5-3.4-3.4v-13.9c0-1.9,1.5-3.4,3.4-3.4h7.6c1.9,0,3.4,1.5,3.4,3.4v13.9
		C406.4,189.7,404.9,191.2,403,191.2z"/>
	<path class="st0" d="M392.5,179.8c-1.1,1.1-2.3,2-3.7,2.6c-0.8,0.3-1.4,1-1.4,1.9l-0.4,5.1c-0.1,1.2,0.8,2.3,2.1,2.4
		c0,0,0.1,0,0.1,0h3.4c0.4,0,0.7-0.1,1-0.2l3.5-1.8c0.7-0.4,1.2-1.1,1.2-2v-6.4c0-1.2-1-2.2-2.2-2.2h-2
		C393.5,179.1,392.9,179.4,392.5,179.8z"/>
	<path class="st2" d="M392.5,179.8c-1.1,1.1-2.3,2-3.7,2.6c-0.8,0.3-1.4,1-1.4,1.9l-0.4,5.1c-0.1,1.2,0.8,2.3,2.1,2.4
		c0,0,0.1,0,0.1,0h3.4c0.4,0,0.7-0.1,1-0.2l3.5-1.8c0.7-0.4,1.2-1.1,1.2-2v-6.4c0-1.2-1-2.2-2.2-2.2h-2
		C393.5,179.1,392.9,179.4,392.5,179.8z"/>
	<path class="st0" d="M122.7,218.2c-0.4,0-0.7,0-1.1-0.1c-2.2-0.6-3.4-2.8-2.8-5c0,0,0,0,0,0l20.4-72.6c1.7-6,7.2-10.2,13.4-10.2h72
		c2.2,0,4.1,1.8,4.1,4.1c0,2.2-1.8,4.1-4.1,4.1h-72c-2.6,0-4.9,1.7-5.6,4.3l-20.4,72.6C126.1,217,124.5,218.2,122.7,218.2z"/>
	<path class="st0" d="M67.2,214.8c-2.2,0-4.1-1.8-4.1-4c0-1,0.4-2,1-2.7l45.8-52.6c3.2-3.6,7.7-5.7,12.5-5.7h17.1
		c2.2,0,4.1,1.8,4.1,4.1s-1.8,4.1-4.1,4.1h-17.1c-2.4,0-4.8,1.1-6.4,2.9l-45.8,52.6C69.5,214.2,68.4,214.8,67.2,214.8z"/>
	<path d="M422.3,277.9h16.5c18.4,0,33.2,20.6,33.2,45.9c0,25.4-14.9,45.9-33.2,45.9h-16.5c-18.4,0-33.2-20.6-33.2-45.9
		S403.9,277.9,422.3,277.9z"/>
	<path d="M192,277.9h16.5c18.4,0,33.2,20.6,33.2,45.9c0,25.4-14.9,45.9-33.2,45.9H192c-18.4,0-33.2-20.6-33.2-45.9
		S173.7,277.9,192,277.9z"/>
	<path class="st0" d="M20.6,303.2h17l16.5,20.1h76.8c3.5,5.8,9.9,9.3,16.8,9.2c11.9,0,14.6-7.9,14.6-7.9h44.5l5.4,7.9h79.3l12.3-8.6
		h66c0,0,3.4,8.6,15.7,8.6c7,0.1,13.7-3.3,17.6-9.2h18.3c8.3,0,15.7-5,18.8-12.7l20.7-51.4H20.6L20.6,303.2z"/>
	<path d="M293.4,277.9h16.5c18.4,0,33.2,20.6,33.2,45.9c0,25.4-14.9,45.9-33.2,45.9h-16.5c-18.4,0-33.2-20.6-33.2-45.9
		S275.1,277.9,293.4,277.9z"/>
	<path class="st3" d="M288.2,281.2c15.3,0,27.8,19.1,27.8,42.7s-12.4,42.7-27.8,42.7s-27.8-19.1-27.8-42.7S272.9,281.2,288.2,281.2z
		"/>
	<path class="st3" d="M285.8,300.8c8.3,0,15,10.3,15,23c0,12.7-6.8,23-15,23c-8.2,0-15-10.3-15-23
		C270.8,311.1,277.5,300.8,285.8,300.8z"/>
	<path class="st4" d="M291.5,312.3c4.1,0,7.5,5.2,7.5,11.5s-3.4,11.5-7.5,11.5s-7.5-5.2-7.5-11.5C284,317.5,287.3,312.3,291.5,312.3
		z"/>
	<path d="M63.1,277.9h16.5c18.4,0,33.2,20.6,33.2,45.9c0,25.4-14.9,45.9-33.2,45.9H63.1c-18.4,0-33.2-20.6-33.2-45.9
		S44.8,277.9,63.1,277.9z"/>
	<path class="st3" d="M57.9,281.2c15.3,0,27.8,19.1,27.8,42.7s-12.4,42.7-27.8,42.7s-27.8-19.1-27.8-42.7S42.6,281.2,57.9,281.2z"/>
	<path class="st3" d="M55.5,300.8c8.3,0,15,10.3,15,23c0,12.7-6.8,23-15,23s-15-10.3-15-23C40.5,311.1,47.2,300.8,55.5,300.8z"/>
	<path class="st4" d="M61.3,312.3c4,0,7.2,4.9,7.2,11s-3.2,11-7.2,11c-4,0-7.2-4.9-7.2-11S57.3,312.3,61.3,312.3z"/>
	<path class="st5" d="M486,226.8v84H334.6L324,280.8c-2.7-7.5-9.8-12.5-17.7-12.5h-23c-8.5,0-15.9,5.7-18.1,13.9l-7.9,28.7H102.4
		l-9.3-29.3c-2.5-7.8-9.7-13.1-17.9-13.1H53c-4.6,0-9,1.7-12.4,4.7c-2.8,2.5-4.8,5.8-5.8,9.5l-7.2,28.3H12.4V203.6
		c0-3.4,2.8-6.2,6.2-6.2c0,0,0,0,0,0h122.6c0,0,4.7-30.7,15.6-57.8c1-2.5,3.2-4.4,5.8-5c6.9-1.5,23.7-3.9,62-3.9
		c104.4,0,125.8,6.4,125.8,6.4c30.6,21.9,58.6,56.8,58.6,56.8c2.5,0.5,4.9,0.9,7.2,1.4c13.5,2.7,26.7,6.3,39.7,10.8
		c8.3,2.9,16.3,6.6,23.9,11l0.7,0.4l0.2,0.1C484,219.7,485.9,223.1,486,226.8z"/>
	<path class="st0" d="M495.5,265.3v45.2c0,5-4,9-9,9H344.1c-5,0-8.1-4.1-9.5-8.7l-10.6-30c-1.4-4.1-4.3-7.6-8-9.8
		c0-5,21.8-14.8,26.8-14.8h36.4l5.7,12.3c1.6,3.5,5.1,5.7,8.9,5.7h62.3c4.6,0,8.4-3.5,8.9-8.1l0.8-9.9h20.7
		C491.4,256.3,495.5,260.3,495.5,265.3C495.5,265.3,495.5,265.3,495.5,265.3z"/>
	<path class="st0" d="M402.1,194.7h-13.3l-26.7-3.4H316l-14.9,3.4h-39.3c0,0-6-35.6-16.6-57.1c0,0,61-2,104.8,4.1
		C349.9,141.7,371.9,155.2,402.1,194.7z"/>
	<path class="st0" d="M249.2,194.7h-62c-1.8,0-3.5-0.8-4.8-2.1l-4.4-4.8c-1.2-1.3-2.9-2.1-4.7-2.1h-24.7
		c3.9-22.8,9.9-35.7,12.6-43.9c0.8-2.4,2.9-4.1,5.4-4.3c3.5-0.3,7.1-0.5,10.6-0.6l4.4-0.2c28.9-1.1,55.1,0.7,55.1,0.7
		c3.6,6.4,7.6,28,10.1,42.8l0,0C248.3,188.5,249.2,194.7,249.2,194.7z"/>
	<path class="st3" d="M495.5,265.3v45.2c0,5-4,9-9,9H344.1c-5,0-8.1-4.1-9.5-8.7l-10.6-30c-1.4-4.1-4.3-7.6-8-9.8
		c0-5,21.8-14.8,26.8-14.8h36.4l5.7,12.3c1.6,3.5,5.1,5.7,8.9,5.7h62.3c4.6,0,8.4-3.5,8.9-8.1l0.8-9.9h20.7
		C491.4,256.3,495.5,260.3,495.5,265.3C495.5,265.3,495.5,265.3,495.5,265.3z"/>
	<path class="st5" d="M347.6,257.5l-10.8,0.1c-1.6,0-3-1.3-3-3v-22c0-2.6,2.1-4.8,4.8-4.8h11.6c-2.6,0-4.8,2.1-4.8,4.8v22
		C345.3,256,346.2,257.2,347.6,257.5z"/>
	<path class="st5" d="M345.3,254.6v-22c0-2.6,2.1-4.8,4.8-4.8h13c1.9,0,3.6,1.1,4.4,2.8l10.4,23.2c0.6,1.2,0,2.7-1.2,3.2
		c-0.3,0.1-0.7,0.2-1,0.2l-27.4,0.2C346.7,257.6,345.3,256.3,345.3,254.6z"/>
	<path class="st5" d="M482.1,227.8h-10.5c-1.9,0-3.5,1.5-3.7,3.4l-2.1,23.3c-0.1,1.5,1,2.8,2.5,2.9c0,0,0.1,0,0.1,0h16.9v-24.8
		c0-1.5-0.7-2.9-1.9-3.7L482.1,227.8z"/>
	<path class="st4" d="M345.3,254.6v-22c0-2.6,2.1-4.8,4.8-4.8h13c1.9,0,3.6,1.1,4.4,2.8l10.4,23.2c0.6,1.2,0,2.7-1.2,3.2
		c-0.3,0.1-0.7,0.2-1,0.2l-27.4,0.2C346.7,257.6,345.3,256.3,345.3,254.6z"/>
	<path class="st4" d="M482.1,227.8h-10.5c-1.9,0-3.5,1.5-3.7,3.4l-2.1,23.3c-0.1,1.5,1,2.8,2.5,2.9c0,0,0.1,0,0.1,0h16.9v-24.8
		c0-1.5-0.7-2.9-1.9-3.7L482.1,227.8z"/>
	<path class="st6" d="M371.1,246.1c0,4.4-2.9,8-6.5,8c-3.6,0-6.5-3.6-6.5-8c0-4.4,2.9-8,6.5-8C368.2,238.1,371.1,241.7,371.1,246.1z
		"/>
	<ellipse class="st6" cx="353.5" cy="236.6" rx="3.8" ry="4.6"/>
	<ellipse class="st6" cx="474.2" cy="246.1" rx="6.5" ry="8"/>
	<path class="st6" d="M484.9,236.6c-0.4,2.1-2.4,3.5-4.5,3.1c-2.1-0.4-3.5-2.4-3.1-4.5c0.3-1.8,1.9-3.2,3.8-3.2
		C483.4,232.2,485.1,234.3,484.9,236.6z"/>
	<path class="st3" d="M347.6,257.5l-10.8,0.1c-1.6,0-3-1.3-3-3v-22c0-2.6,2.1-4.8,4.8-4.8h11.6c-2.6,0-4.8,2.1-4.8,4.8v22
		C345.3,256,346.2,257.2,347.6,257.5z"/>
	<path class="st5" d="M489.1,232.6v24.8h-3.9v-24.8c0-1.5-0.7-2.9-1.9-3.7l-1.4-1h3.9l1.4,1C488.5,229.7,489.1,231.1,489.1,232.6z"
		/>
	<path class="st3" d="M489.1,232.6v24.8h-3.9v-24.8c0-1.5-0.7-2.9-1.9-3.7l-1.4-1h3.9l1.4,1C488.5,229.7,489.2,231.1,489.1,232.6z"
		/>
	<path class="st7" d="M338.5,227.8h11.6c-2.6,0-4.8,2.1-4.8,4.8v10h-11.5v-10C333.8,230,335.9,227.9,338.5,227.8z"/>
	<path class="st7" d="M489.1,232.6v10h-3.9v-10c0-1.5-0.7-2.9-1.9-3.7l-1.4-1h3.9l1.4,1C488.5,229.7,489.2,231.1,489.1,232.6z"/>
	<path class="st7" d="M462.8,229.9l-3,35.8c-0.2,1.9-1.8,3.4-3.7,3.4h-62.3c-1.8,0-3.5-1.1-4.2-2.7l-17-37c-0.1-0.1-0.1-0.3-0.1-0.4
		c-0.1-0.7,0.4-1.4,1.2-1.5c0.1,0,0.1,0,0.2,0h86.9c1.2,0,2.2,1,2.2,2.2C462.8,229.8,462.8,229.9,462.8,229.9z"/>
	<path class="st0" d="M459.5,231.5l-3,35.8c0,0.7-0.3,1.4-0.7,1.9h-62c-1.8,0-3.5-1.1-4.2-2.7l-17-37c-0.1-0.1-0.1-0.3-0.1-0.4h84.9
		c1.2,0,2.2,1,2.2,2.2C459.5,231.4,459.5,231.4,459.5,231.5z"/>
	<path class="st3" d="M459.5,231.5l-1.3,15.1l-0.2,2.5l-1.5,18.2c0,0.7-0.3,1.4-0.7,1.9h-62c-1.8,0-3.5-1.1-4.2-2.7l-8-17.4
		l-1.2-2.5l-7.9-17.1c-0.1-0.1-0.1-0.3-0.1-0.4h84.9c1.2,0,2.2,1,2.2,2.2C459.5,231.4,459.5,231.4,459.5,231.5z"/>
	<polygon class="st0" points="384.1,230.9 385.6,229.1 378.1,229.1 379.6,230.9 	"/>
	<polygon class="st0" points="399.5,230.9 401,229.1 393.5,229.1 395,230.9 	"/>
	<polygon class="st0" points="414.9,230.9 416.4,229.1 408.9,229.1 410.4,230.9 	"/>
	<polygon class="st0" points="430.3,230.9 431.8,229.1 424.3,229.1 425.8,230.9 	"/>
	<polygon class="st0" points="445.7,230.9 447.2,229.1 439.7,229.1 441.2,230.9 	"/>
	<path class="st0" d="M459.5,230.9c-0.2-1.1-1.1-1.8-2.2-1.8h-2.2l1.5,1.8H459.5z"/>
	<path class="st0" d="M378.6,231.5l-2.1-2.5h-4.1c0,0.1,0.1,0.3,0.1,0.4l2.2,4.7h1.7L378.6,231.5z"/>
	<polygon class="st0" points="387.3,234.2 391.8,234.2 394,231.5 391.9,229.1 387.1,229.1 385.1,231.5 	"/>
	<polygon class="st0" points="402.7,234.2 407.2,234.2 409.4,231.5 407.3,229.1 402.5,229.1 400.5,231.5 	"/>
	<polygon class="st0" points="418.1,234.2 422.6,234.2 424.8,231.5 422.8,229.1 418,229.1 415.9,231.5 	"/>
	<polygon class="st0" points="433.5,234.2 438,234.2 440.2,231.5 438.2,229.1 433.4,229.1 431.3,231.5 	"/>
	<polygon class="st0" points="449,234.2 453.4,234.2 455.7,231.5 453.6,229.1 448.8,229.1 446.7,231.5 	"/>
	<polygon class="st0" points="384.1,232.2 379.6,232.2 377.3,234.8 379.6,237.5 384.1,237.5 386.3,234.8 	"/>
	<polygon class="st0" points="399.5,237.5 401.7,234.8 399.5,232.2 395,232.2 392.8,234.8 395,237.5 	"/>
	<polygon class="st0" points="414.9,237.5 417.1,234.8 414.9,232.2 410.4,232.2 408.2,234.8 410.4,237.5 	"/>
	<polygon class="st0" points="430.3,237.5 432.5,234.8 430.3,232.2 425.8,232.2 423.6,234.8 425.8,237.5 	"/>
	<polygon class="st0" points="445.7,237.5 448,234.8 445.7,232.2 441.2,232.2 439,234.8 441.2,237.5 	"/>
	<polygon class="st0" points="454.4,234.8 456.7,237.5 459,237.5 459.5,232.2 456.7,232.2 	"/>
	<polygon class="st0" points="376.3,235.5 375.2,235.5 377.2,239.8 378.6,238.1 	"/>
	<polygon class="st0" points="391.8,240.8 394,238.1 391.8,235.5 387.3,235.5 385.1,238.1 387.3,240.8 	"/>
	<polygon class="st0" points="402.7,240.8 407.2,240.8 409.4,238.1 407.2,235.5 402.7,235.5 400.5,238.1 	"/>
	<polygon class="st0" points="418.1,240.8 422.6,240.8 424.8,238.1 422.6,235.5 418.1,235.5 415.9,238.1 	"/>
	<polygon class="st0" points="433.5,240.8 438,240.8 440.2,238.1 438,235.5 433.5,235.5 431.3,238.1 	"/>
	<polygon class="st0" points="449,240.8 453.4,240.8 455.7,238.1 453.4,235.5 449,235.5 446.7,238.1 	"/>
	<polygon class="st0" points="384.1,244.1 386.3,241.4 384.1,238.8 379.6,238.8 377.8,240.9 378.7,243.1 379.6,244.1 	"/>
	<polygon class="st0" points="395,238.8 392.8,241.4 395,244.1 399.5,244.1 401.7,241.4 399.5,238.8 	"/>
	<polygon class="st0" points="410.4,238.8 408.2,241.4 410.4,244.1 414.9,244.1 417.1,241.4 414.9,238.8 	"/>
	<polygon class="st0" points="425.8,238.8 423.6,241.4 425.8,244.1 430.3,244.1 432.5,241.4 430.3,238.8 	"/>
	<polygon class="st0" points="445.7,238.8 441.2,238.8 439,241.4 441.2,244.1 445.7,244.1 448,241.4 	"/>
	<polygon class="st0" points="454.4,241.4 456.7,244.1 458.5,244.1 458.9,238.8 456.7,238.8 	"/>
	<polygon class="st0" points="391.8,247.4 394,244.7 391.8,242.1 387.3,242.1 385.1,244.7 387.3,247.4 	"/>
	<polygon class="st0" points="402.7,242.1 400.5,244.7 402.7,247.4 407.2,247.4 409.4,244.7 407.2,242.1 	"/>
	<polygon class="st0" points="418.1,242.1 415.9,244.7 418.1,247.4 422.6,247.4 424.8,244.7 422.6,242.1 	"/>
	<polygon class="st0" points="433.5,242.1 431.3,244.7 433.5,247.4 438,247.4 440.2,244.7 438,242.1 	"/>
	<polygon class="st0" points="449,242.1 446.7,244.7 449,247.4 453.4,247.4 455.7,244.7 453.4,242.1 	"/>
	<polygon class="st0" points="386.3,248 384.1,245.4 379.8,245.4 382.2,250.7 384.1,250.7 	"/>
	<polygon class="st0" points="395,250.7 399.5,250.7 401.7,248 399.5,245.4 395,245.4 392.8,248 	"/>
	<polygon class="st0" points="410.4,245.4 408.2,248 410.4,250.7 414.9,250.7 417.1,248 414.9,245.4 	"/>
	<polygon class="st0" points="430.3,250.7 432.5,248 430.3,245.4 425.8,245.4 423.6,248 425.8,250.7 	"/>
	<polygon class="st0" points="445.7,250.7 448,248 445.7,245.4 441.2,245.4 439,248 441.2,250.7 	"/>
	<polygon class="st0" points="454.4,248 456.7,250.7 457.9,250.7 458.3,245.4 456.7,245.4 	"/>
	<polygon class="st0" points="391.8,248.7 387.3,248.7 385.1,251.3 387.3,254 391.8,254 394,251.3 	"/>
	<polygon class="st0" points="407.2,254 409.4,251.3 407.2,248.7 402.7,248.7 400.5,251.3 402.7,254 	"/>
	<polygon class="st0" points="422.6,254 424.8,251.3 422.6,248.7 418.1,248.7 415.9,251.3 418.1,254 	"/>
	<polygon class="st0" points="438,254 440.2,251.3 438,248.7 433.5,248.7 431.3,251.3 433.5,254 	"/>
	<polygon class="st0" points="449,248.7 446.7,251.3 449,254 453.4,254 455.7,251.3 453.4,248.7 	"/>
	<polygon class="st0" points="384.1,252 382.8,252 384.8,256.3 386.3,254.6 	"/>
	<polygon class="st0" points="399.5,257.3 401.7,254.6 399.5,252 395,252 392.8,254.6 395,257.3 	"/>
	<polygon class="st0" points="414.9,257.3 417.1,254.6 414.9,252 410.4,252 408.2,254.6 410.4,257.3 	"/>
	<polygon class="st0" points="430.3,257.3 432.5,254.6 430.3,252 425.8,252 423.6,254.6 425.8,257.3 	"/>
	<polygon class="st0" points="445.7,257.3 448,254.6 445.7,252 441.2,252 439,254.6 441.2,257.3 	"/>
	<polygon class="st0" points="454.4,254.6 456.7,257.3 457.3,257.3 457.8,252 456.7,252 	"/>
	<polygon class="st0" points="391.8,260.6 394,257.9 391.8,255.3 387.3,255.3 385.4,257.5 386.2,259.3 387.3,260.6 	"/>
	<polygon class="st0" points="402.7,260.6 407.2,260.6 409.4,257.9 407.2,255.3 402.7,255.3 400.5,257.9 	"/>
	<polygon class="st0" points="422.6,260.6 424.8,257.9 422.6,255.3 418.1,255.3 415.9,257.9 418.1,260.6 	"/>
	<polygon class="st0" points="438,260.6 440.2,257.9 438,255.3 433.5,255.3 431.3,257.9 433.5,260.6 	"/>
	<polygon class="st0" points="449,255.3 446.7,257.9 449,260.6 453.4,260.6 455.7,257.9 453.4,255.3 	"/>
	<polygon class="st0" points="399.5,258.6 395,258.6 392.8,261.2 395,263.9 399.5,263.9 401.7,261.2 	"/>
	<polygon class="st0" points="414.9,258.6 410.4,258.6 408.2,261.2 410.4,263.9 414.9,263.9 417.1,261.2 	"/>
	<polygon class="st0" points="430.3,258.6 425.8,258.6 423.6,261.2 425.8,263.9 430.3,263.9 432.5,261.2 	"/>
	<polygon class="st0" points="445.7,258.6 441.2,258.6 439,261.2 441.2,263.9 445.7,263.9 448,261.2 	"/>
	<polygon class="st0" points="454.4,261.2 456.7,263.9 456.8,263.9 457.2,258.6 456.7,258.6 	"/>
	<path class="st0" d="M394,264.6l-2.2-2.7h-4.4l2.1,4.6c0.1,0.2,0.2,0.5,0.4,0.7h1.8L394,264.6z"/>
	<polygon class="st0" points="402.7,261.9 400.5,264.5 402.7,267.2 407.2,267.2 409.4,264.5 407.2,261.9 	"/>
	<polygon class="st0" points="418.1,261.9 415.9,264.5 418.1,267.2 422.6,267.2 424.8,264.5 422.6,261.9 	"/>
	<polygon class="st0" points="433.5,261.9 431.3,264.5 433.5,267.2 438,267.2 440.2,264.5 438,261.9 	"/>
	<polygon class="st0" points="453.4,261.9 449,261.9 446.7,264.5 449,267.2 453.4,267.2 455.7,264.5 	"/>
	<polygon class="st0" points="399.5,265.2 395,265.2 392.8,267.8 393.9,269.2 400.6,269.2 401.7,267.8 	"/>
	<polygon class="st0" points="414.9,265.2 410.4,265.2 408.2,267.8 409.3,269.2 416,269.2 417.1,267.8 	"/>
	<polygon class="st0" points="430.3,265.2 425.8,265.2 423.6,267.8 424.7,269.2 431.4,269.2 432.5,267.8 	"/>
	<polygon class="st0" points="445.7,265.2 441.2,265.2 439,267.8 440.2,269.2 446.8,269.2 448,267.8 	"/>
	<path class="st0" d="M456.7,265.2l-2.2,2.7l1.2,1.4h0.2c0.4-0.6,0.7-1.2,0.7-1.9L456.7,265.2L456.7,265.2z"/>
	<path class="st0" d="M391.3,268.5c0.3,0.2,0.5,0.3,0.8,0.4l-0.3-0.4H391.3z"/>
	<polygon class="st0" points="402.7,268.5 402.1,269.2 407.8,269.2 407.2,268.5 	"/>
	<polygon class="st0" points="418.1,268.5 417.5,269.2 423.2,269.2 422.6,268.5 	"/>
	<polygon class="st0" points="433.5,268.5 432.9,269.2 438.6,269.2 438,268.5 	"/>
	<polygon class="st0" points="449,268.5 448.4,269.2 454,269.2 453.4,268.5 	"/>
	<polygon class="st0" points="458.3,246.6 458,249.1 381.5,249.1 380.4,246.6 	"/>
	<polygon class="st3" points="458.3,246.6 458,249.1 381.5,249.1 380.4,246.6 	"/>
	<polygon class="st0" points="445.9,243.6 395.9,243.6 392.1,248 395.9,252.5 445.9,252.5 449.7,248 	"/>
	<polygon class="st3" points="445.9,243.6 395.9,243.6 392.1,248 395.9,252.5 445.9,252.5 449.7,248 	"/>
	<rect x="399.2" y="289.2" class="st3" width="53.6" height="25.2"/>
	<path class="st0" d="M372.2,307.6h-12.4c-2.2,0-3.9-1.8-3.9-3.9v-23.8c0-2.2,1.8-3.9,3.9-3.9h12.9c1.5,0,2.9,0.9,3.6,2.2l3.5,7.4
		c0.4,0.8,0.5,1.7,0.3,2.6l-4.1,16.3C375.6,306.4,374,307.6,372.2,307.6z"/>
	<path class="st1" d="M371.1,290.7c0,4.1-2.7,7.4-6,7.4c-3.3,0-6-3.3-6-7.4s2.7-7.4,6-7.4C368.4,283.3,371.1,286.6,371.1,290.7z"/>
	<path class="st0" d="M473.4,307.6h12.4c2.2,0,3.9-1.8,3.9-3.9v-23.8c0-2.2-1.8-3.9-3.9-3.9h-12.9c-1.5,0-2.9,0.9-3.6,2.2l-3.5,7.4
		c-0.4,0.8-0.5,1.7-0.3,2.6l4.1,16.3C470,306.4,471.6,307.6,473.4,307.6z"/>
	<path class="st1" d="M480.6,290.7c0,4.1-2.7,7.4-6,7.4s-6-3.3-6-7.4s2.7-7.4,6-7.4S480.6,286.6,480.6,290.7z"/>
	<path class="st0" d="M40.5,273c-2.8,2.5-4.8,5.8-5.8,9.5l-7.2,28.3h-0.2c-1,2.1-3.1,3.5-5.5,3.5H10.6c-3.4,0-6.1-2.7-6.1-6.1l0,0
		v-47c0-2.7,1.6-5.1,4.1-6.1l0,0l2,0.1H26c2.6,0,4.9,1.4,6.2,3.6L40.5,273z"/>
	<path class="st3" d="M40.5,273c-2.8,2.5-4.8,5.8-5.8,9.5l-7.2,28.3h-0.2c-1,2.1-3.1,3.5-5.5,3.5H10.6c-3.4,0-6.1-2.7-6.1-6.1l0,0
		v-47c0-2.7,1.6-5.1,4.1-6.1l0,0l2,0.1H26c2.6,0,4.9,1.4,6.2,3.6L40.5,273z"/>
	<path class="st5" d="M22.5,218.5v36.6h-14v-34.6c0-2.6,2.1-4.7,4.6-4.7c0,0,0,0,0,0h6.7C21.3,215.9,22.5,217.1,22.5,218.5z"/>
	<path class="st3" d="M22.5,218.5v36.6h-14v-34.6c0-2.6,2.1-4.7,4.6-4.7c0,0,0,0,0,0h6.7C21.3,215.9,22.5,217.1,22.5,218.5z"/>
	<path class="st7" d="M22.5,218.5v11.3h-14v-9.3c0-2.6,2-4.7,4.6-4.7c0,0,0,0,0.1,0h6.7C21.3,215.9,22.5,217.1,22.5,218.5z"/>
	<rect x="8.5" y="229.8" class="st4" width="14" height="12.9"/>
	<path class="st8" d="M247.9,301.5h-98.6c-2.9,0-5.6-1.3-7.4-3.6l-2-2.6c-1.1-1.4-1.7-3-1.9-4.7c-5.4-51.7,0.2-90.3,0.3-90.7
		c0.1-0.4,0.4-0.6,0.8-0.6c0.4,0,0.6,0.4,0.6,0.7c0,0,0,0,0,0c0,0.4-5.7,38.8-0.3,90.3c0.2,1.5,0.7,2.9,1.6,4.1l2,2.6
		c1.5,2,3.8,3.1,6.3,3.1h98.6c2.2,0,4.1-1.4,4.7-3.5l8.8-30.6c2.6-9,10.9-15.3,20.3-15.3h31.8c2.7,0,5.4,0.8,7.8,2.2l6.3,3.8
		c0.3,0.2,0.4,0.6,0.2,0.9c-0.2,0.3-0.6,0.4-0.9,0.2l0,0l-6.3-3.9c-2.1-1.3-4.6-2-7.1-2h-31.8c-8.8,0-16.6,5.9-19,14.3l-8.8,30.6
		C253.1,299.6,250.7,301.4,247.9,301.5z"/>
	<path class="st8" d="M249.2,293.6c-0.3,0-0.6-0.3-0.7-0.6c-5.1-46.9,0-93.7,0-94.2c0-0.4,0.4-0.6,0.7-0.6c0.4,0,0.6,0.4,0.6,0.7
		c0,0,0,0,0,0c0,0.5-5.1,47.1,0,93.9C249.9,293.2,249.6,293.5,249.2,293.6L249.2,293.6z"/>
	<path class="st3" d="M181.7,136.6c-4.2,16.1-7.1,32.5-8.9,49.1H167c2.3-16.5,5.7-32.8,10.3-48.9L181.7,136.6z"/>
	<path class="st8" d="M169.6,184.3L169.6,184.3c-0.4,0-0.6-0.4-0.6-0.7c0,0,0,0,0,0c2.3-21.7,8.9-46.2,8.9-46.5
		c0.1-0.4,0.5-0.6,0.8-0.5c0.4,0.1,0.6,0.5,0.5,0.8c0,0,0,0,0,0c0,0.2-6.6,24.7-8.9,46.2C170.3,184,169.9,184.3,169.6,184.3z"/>
	<path class="st8" d="M167,293.6c-0.4,0-0.7-0.3-0.7-0.7c-1.9-34.9-1-70,2.5-104.8c0-0.4,0.4-0.6,0.7-0.6c0,0,0,0,0,0
		c0.4,0,0.6,0.4,0.6,0.7c0,0,0,0,0,0c-3.5,34.7-4.4,69.7-2.5,104.6C167.7,293.2,167.4,293.5,167,293.6L167,293.6z"/>
	<path class="st3" d="M480.9,217.6h-22c-3.6-3.4-11.3-5.1-19.2-5.1h-64.2c-7.9,0-10.3,5.1-10.3,5.1h-31.3
		c-9.5-7.8-68.2-18.7-68.2-18.7c9.5-3.4,38.4-2.4,38.4-2.4c10.5,1.4,20.9,3.3,31.2,5.8c-9.2-4.8-27.5-7.6-27.5-7.6l8.3-3.4h46.2
		l31.2,4.9h17.4l5.4-0.8c13.5,2.7,26.7,6.3,39.7,10.8l24,11L480.9,217.6z"/>
	<path class="st3" d="M189.3,214.2h-11.3c-2.2,0-3.9-1.7-3.9-3.9l0,0l0,0c0-2.2,1.7-3.9,3.9-3.9c0,0,0,0,0,0h11.3
		c2.2,0,3.9,1.7,3.9,3.9c0,0,0,0,0,0l0,0C193.2,212.4,191.4,214.2,189.3,214.2C189.3,214.2,189.3,214.2,189.3,214.2z"/>
	<path class="st3" d="M249.2,194.7h-13.6l0.9-12.7c0.1-1.1,1-2,2.1-2h8.4C248.3,188.5,249.2,194.7,249.2,194.7z"/>
	<path class="st0" d="M228.8,170.5h7.6c1.9,0,3.4,1.5,3.4,3.4v13.9c0,1.9-1.5,3.4-3.4,3.4h-7.6c-1.9,0-3.4-1.5-3.4-3.4v-13.9
		C225.3,172,226.9,170.5,228.8,170.5z"/>
	<path class="st1" d="M228.8,170.5h7.6c1.9,0,3.4,1.5,3.4,3.4v13.9c0,1.9-1.5,3.4-3.4,3.4h-7.6c-1.9,0-3.4-1.5-3.4-3.4v-13.9
		C225.3,172,226.9,170.5,228.8,170.5z"/>
	<path class="st0" d="M239.2,179.8c1.1,1.1,2.3,2,3.7,2.6c0.8,0.3,1.3,1,1.4,1.9l0.4,5.1c0.1,1.2-0.8,2.3-2,2.4c-0.1,0-0.1,0-0.2,0
		h-3.3c-0.4,0-0.7-0.1-1-0.2l-3.5-1.8c-0.7-0.4-1.2-1.1-1.2-2v-6.4c0-1.2,1-2.2,2.2-2.2h2C238.2,179.1,238.8,179.4,239.2,179.8z"/>
	<path class="st2" d="M239.2,179.8c1.1,1.1,2.3,2,3.7,2.6c0.8,0.3,1.3,1,1.4,1.9l0.4,5.1c0.1,1.2-0.8,2.3-2,2.4c-0.1,0-0.1,0-0.2,0
		h-3.3c-0.4,0-0.7-0.1-1-0.2l-3.5-1.8c-0.7-0.4-1.2-1.1-1.2-2v-6.4c0-1.2,1-2.2,2.2-2.2h2C238.2,179.1,238.8,179.4,239.2,179.8z"/>
	<path class="st3" d="M302.5,139.6c0,0,25.3,17.6,39.2,34.6c-2.6-7.3-6.3-14.2-10.9-20.4c0,0,18.9,13.2,31,33.5l28,3.9h7.4
		c0,0-29.3-34-47.5-48.2C349.8,143,327.3,140.5,302.5,139.6z"/>
</g>
</svg>
