<?xml version="1.0" encoding="UTF-8" standalone="no"?>
<svg
   viewBox="0 0 500 500"
   version="1.1"
   id="svg998"
   sodipodi:docname="Logistics-rafiki.svg"
   inkscape:version="1.2.2 (732a01da63, 2022-12-09)"
   xmlns:inkscape="http://www.inkscape.org/namespaces/inkscape"
   xmlns:sodipodi="http://sodipodi.sourceforge.net/DTD/sodipodi-0.dtd"
   xmlns="http://www.w3.org/2000/svg"
   xmlns:svg="http://www.w3.org/2000/svg">
  <sodipodi:namedview
     id="namedview1000"
     pagecolor="#ffffff"
     bordercolor="#000000"
     borderopacity="0.25"
     inkscape:showpageshadow="2"
     inkscape:pageopacity="0.0"
     inkscape:pagecheckerboard="0"
     inkscape:deskcolor="#d1d1d1"
     showgrid="false"
     inkscape:zoom="0.837"
     inkscape:cx="-76.46356"
     inkscape:cy="186.37993"
     inkscape:window-width="1920"
     inkscape:window-height="1017"
     inkscape:window-x="-8"
     inkscape:window-y="-8"
     inkscape:window-maximized="1"
     inkscape:current-layer="svg998" />
  <defs
     id="defs736">
    <clipPath
       id="freepik--clip-path--inject-19">
      <path
         d="M297.68,348.92h-17c-8.85,0-16,12.83-16,28.66s7.17,28.65,16,28.65h17c8.85,0,16-12.83,16-28.65S306.53,348.92,297.68,348.92Z"
         style="fill:#263238"
         id="path733" />
    </clipPath>
  </defs>
  <g
     id="freepik--Truck--inject-19"
     transform="matrix(-1.2021102,0,0,1.2021102,535.99494,-93.101489)">
    <path
       d="m 297.68,348.92 h -17 c -8.85,0 -16,12.83 -16,28.66 0,15.83 7.17,28.65 16,28.65 h 17 c 8.85,0 16,-12.83 16,-28.65 0,-15.82 -7.15,-28.66 -16,-28.66 z"
       style="fill:#263238"
       id="path873" />
    <g
       clip-path="url(#freepik--clip-path--inject-19)"
       id="g877">
      <path
         d="m 317.68,348.92 h -17 c -8.85,0 -16,12.83 -16,28.66 0,15.83 7.17,28.65 16,28.65 h 17 c 8.85,0 16,-12.83 16,-28.65 0,-15.82 -7.15,-28.66 -16,-28.66 z"
         style="opacity:0.05;fill:#ffffff"
         id="path875" />
    </g>
    <polygon
       points="137.7,164.7 435.39,164.7 435.39,355.06 137.7,354.85 "
       style="fill:#407bff"
       id="polygon879" />
    <rect
       x="233.63"
       y="164.7"
       width="201.75999"
       height="190.35001"
       style="opacity:0.3;isolation:isolate;fill:#263238"
       id="rect881" />
    <rect
       x="137.7"
       y="164.7"
       width="95.93"
       height="194.11"
       style="opacity:0.2;isolation:isolate;fill:#ffffff"
       id="rect883" />
    <line
       x1="138.42"
       y1="173.53999"
       x2="435.39001"
       y2="173.53999"
       style="opacity:0.1;fill:none;stroke:#ffffff;stroke-width:2px;stroke-linecap:round;stroke-linejoin:round"
       id="line885" />
    <line
       x1="138.42"
       y1="181.77"
       x2="435.39001"
       y2="181.77"
       style="opacity:0.1;fill:none;stroke:#ffffff;stroke-width:2px;stroke-linecap:round;stroke-linejoin:round"
       id="line887" />
    <line
       x1="138.42"
       y1="189.99001"
       x2="435.39001"
       y2="189.99001"
       style="opacity:0.1;fill:none;stroke:#ffffff;stroke-width:2px;stroke-linecap:round;stroke-linejoin:round"
       id="line889" />
    <line
       x1="138.42"
       y1="198.21001"
       x2="435.39001"
       y2="198.21001"
       style="opacity:0.1;fill:none;stroke:#ffffff;stroke-width:2px;stroke-linecap:round;stroke-linejoin:round"
       id="line891" />
    <line
       x1="138.42"
       y1="206.44"
       x2="435.39001"
       y2="206.44"
       style="opacity:0.1;fill:none;stroke:#ffffff;stroke-width:2px;stroke-linecap:round;stroke-linejoin:round"
       id="line893" />
    <line
       x1="138.42"
       y1="214.66"
       x2="435.39001"
       y2="214.66"
       style="opacity:0.1;fill:none;stroke:#ffffff;stroke-width:2px;stroke-linecap:round;stroke-linejoin:round"
       id="line895" />
    <line
       x1="138.42"
       y1="222.88"
       x2="435.39001"
       y2="222.88"
       style="opacity:0.1;fill:none;stroke:#ffffff;stroke-width:2px;stroke-linecap:round;stroke-linejoin:round"
       id="line897" />
    <line
       x1="138.42"
       y1="231.10001"
       x2="435.39001"
       y2="231.10001"
       style="opacity:0.1;fill:none;stroke:#ffffff;stroke-width:2px;stroke-linecap:round;stroke-linejoin:round"
       id="line899" />
    <line
       x1="138.42"
       y1="239.33"
       x2="435.39001"
       y2="239.33"
       style="opacity:0.1;fill:none;stroke:#ffffff;stroke-width:2px;stroke-linecap:round;stroke-linejoin:round"
       id="line901" />
    <line
       x1="138.42"
       y1="247.55"
       x2="435.39001"
       y2="247.55"
       style="opacity:0.1;fill:none;stroke:#ffffff;stroke-width:2px;stroke-linecap:round;stroke-linejoin:round"
       id="line903" />
    <line
       x1="138.42"
       y1="255.77"
       x2="435.39001"
       y2="255.77"
       style="opacity:0.1;fill:none;stroke:#ffffff;stroke-width:2px;stroke-linecap:round;stroke-linejoin:round"
       id="line905" />
    <line
       x1="138.42"
       y1="264"
       x2="435.39001"
       y2="264"
       style="opacity:0.1;fill:none;stroke:#ffffff;stroke-width:2px;stroke-linecap:round;stroke-linejoin:round"
       id="line907" />
    <line
       x1="138.42"
       y1="272.22"
       x2="435.39001"
       y2="272.22"
       style="opacity:0.1;fill:none;stroke:#ffffff;stroke-width:2px;stroke-linecap:round;stroke-linejoin:round"
       id="line909" />
    <line
       x1="138.42"
       y1="280.44"
       x2="435.39001"
       y2="280.44"
       style="opacity:0.1;fill:none;stroke:#ffffff;stroke-width:2px;stroke-linecap:round;stroke-linejoin:round"
       id="line911" />
    <line
       x1="138.42"
       y1="288.66"
       x2="435.39001"
       y2="288.66"
       style="opacity:0.1;fill:none;stroke:#ffffff;stroke-width:2px;stroke-linecap:round;stroke-linejoin:round"
       id="line913" />
    <line
       x1="138.42"
       y1="296.89001"
       x2="435.39001"
       y2="296.89001"
       style="opacity:0.1;fill:none;stroke:#ffffff;stroke-width:2px;stroke-linecap:round;stroke-linejoin:round"
       id="line915" />
    <line
       x1="138.42"
       y1="305.10999"
       x2="435.39001"
       y2="305.10999"
       style="opacity:0.1;fill:none;stroke:#ffffff;stroke-width:2px;stroke-linecap:round;stroke-linejoin:round"
       id="line917" />
    <line
       x1="138.42"
       y1="313.32999"
       x2="435.39001"
       y2="313.32999"
       style="opacity:0.1;fill:none;stroke:#ffffff;stroke-width:2px;stroke-linecap:round;stroke-linejoin:round"
       id="line919" />
    <line
       x1="138.42"
       y1="321.56"
       x2="435.39001"
       y2="321.56"
       style="opacity:0.1;fill:none;stroke:#ffffff;stroke-width:2px;stroke-linecap:round;stroke-linejoin:round"
       id="line921" />
    <line
       x1="138.42"
       y1="329.78"
       x2="435.39001"
       y2="329.78"
       style="opacity:0.1;fill:none;stroke:#ffffff;stroke-width:2px;stroke-linecap:round;stroke-linejoin:round"
       id="line923" />
    <line
       x1="138.42"
       y1="338"
       x2="435.39001"
       y2="338"
       style="opacity:0.1;fill:none;stroke:#ffffff;stroke-width:2px;stroke-linecap:round;stroke-linejoin:round"
       id="line925" />
    <line
       x1="138.42"
       y1="346.23001"
       x2="435.39001"
       y2="346.23001"
       style="opacity:0.1;fill:none;stroke:#ffffff;stroke-width:2px;stroke-linecap:round;stroke-linejoin:round"
       id="line927" />
    <path
       d="M 83.07,352.66 H 67.34 c -8.2,0 -14.84,11.88 -14.84,26.54 0,14.66 6.64,26.53 14.84,26.53 h 15.73 c 8.2,0 14.84,-11.88 14.84,-26.53 0,-14.65 -6.64,-26.54 -14.84,-26.54 z"
       style="fill:#263238"
       id="path929" />
    <path
       d="M 103.08,352.66 H 87.34 c -8.2,0 -14.84,11.88 -14.84,26.54 0,14.66 6.64,26.53 14.84,26.53 h 15.74 c 8.19,0 14.84,-11.88 14.84,-26.53 0,-14.65 -6.65,-26.54 -14.84,-26.54 z"
       style="opacity:0.05;fill:#ffffff"
       id="path931" />
    <path
       d="m 74.32,300.83 h -7.44 c -1.46,0.05 -2.66,-1.51 -2.69,-3.49 a 3.22,3.22 0 0 1 0,-0.62 l 2,-22.47 c 0.25,-2.31 1.68,-4 3.4,-4.11 h 7.51 c 1.45,0 2.65,1.53 2.68,3.51 q 0,0.3 0,0.6 l -2,22.47 c -0.3,2.28 -1.78,4.05 -3.46,4.11 z"
       style="fill:#263238"
       id="path933" />
    <path
       d="M 81.76,226.61 67.41,304 l 156.23,61.2 -1.09,-152.52 -34.36,-1 H 94.07 c -5.66,-0.05 -10.65,6.03 -12.31,14.93 z"
       style="fill:#407bff"
       id="path935" />
    <path
       d="m 198,239.06 c -5.83,-0.26 -11.06,4.52 -12.77,11.65 l -11.82,49.52 h -22.75 l -1.24,65.33 h 74.83"
       style="fill:#407bff"
       id="path937" />
    <path
       d="m 84,296.07 c -2.29,0 -4.14,-2.94 -4.14,-6.56 a 9.74,9.74 0 0 1 0.18,-1.88 l 8.59,-45.44 c 0.72,-3.77 2.92,-6.35 5.41,-6.34 h 82.18 c 0.89,0 1.62,1.14 1.62,2.56 a 3.74,3.74 0 0 1 -0.07,0.75 c -1.8,9.36 -7.65,40.37 -9.89,52.23 -0.52,2.78 -2.14,4.68 -4,4.68 z"
       style="fill:#263238"
       id="path939" />
    <path
       d="m 159.62,316.21 a 17.21,17.21 0 0 1 -0.17,2.38 l -0.43,2.93 -0.25,1.73 -1.84,12.64 -3,20.55 -0.83,5.71 H 36.81 v -5.71 L 36.89,335.89 37,323.6 v -5 c -1,-6.6 2.19,-13 7.05,-14.33 a 6.52,6.52 0 0 1 1.75,-0.23 h 104.86 c 4.95,-0.04 8.96,5.44 8.96,12.17 z"
       style="fill:#407bff"
       id="path941" />
    <path
       d="m 218.73,242 v 48.71 c 0,2.95 -1.51,5.35 -3.38,5.36 h -28.42 c -1.87,0 -3.38,-2.4 -3.38,-5.36 a 8.57,8.57 0 0 1 0.12,-1.44 l 8.76,-49.8 c 0.42,-2.39 1.82,-4 3.38,-3.91 l 19.66,1.08 c 1.82,0.11 3.26,2.48 3.26,5.36 z"
       style="fill:#263238"
       id="path943" />
    <polygon
       points="98.21,296.07 113.92,296.07 131.94,235.85 116.24,235.85 "
       style="opacity:0.1;isolation:isolate;fill:#ffffff"
       id="polygon945" />
    <polygon
       points="118.64,296.07 126.13,296.07 144.16,235.85 136.66,235.85 "
       style="opacity:0.1;isolation:isolate;fill:#ffffff"
       id="polygon947" />
    <polygon
       points="36.83,356.44 36.91,335.89 189.75,335.89 189.75,356.44 "
       id="polygon949" />
    <polygon
       points="168.45,335.89 154.31,335.89 128.88,350.83 128.88,356.44 189.75,356.44 189.75,335.89 "
       style="fill:#ffffff"
       id="polygon951" />
    <polygon
       points="63.19,356.44 36.83,356.44 36.91,335.89 37.77,335.89 63.19,350.83 "
       style="fill:#ffffff"
       id="polygon953" />
    <path
       d="m 223.71,365.56 -1.16,-152.88 -21,-1 c -5.24,-0.26 -11.29,5.83 -12.82,12.89 L 173.51,304 h -5.93 c -6.66,0 -11.22,4.85 -11.21,10 l 0.09,51.58 h 67.25"
       style="opacity:0.3;isolation:isolate;fill:#263238"
       id="path955" />
    <path
       d="m 159.23,322.24 a 1.35,1.35 0 0 1 -0.46,1 1.31,1.31 0 0 1 -0.9,0.35 H 37 v -2.72 h 120.9 a 1.36,1.36 0 0 1 1.15,0.64 1.38,1.38 0 0 1 0.18,0.73 z"
       style="fill:#ffffff"
       id="path957" />
    <polygon
       points="36.96,323.6 36.97,320.88 58.32,320.88 58.32,323.6 "
       style="fill:#263238"
       id="polygon959" />
    <path
       d="m 159.23,322.24 a 1.35,1.35 0 0 1 -0.46,1 1.31,1.31 0 0 1 -0.9,0.35 h -29.32 v -2.72 h 29.32 a 1.36,1.36 0 0 1 1.15,0.64 1.38,1.38 0 0 1 0.21,0.73 z"
       style="fill:#263238"
       id="path961" />
    <path
       d="m 440.73,360 v 0.54 a 5,5 0 0 1 -5,5 H 38.53 a 5,5 0 0 1 -5,-5 V 360 a 5,5 0 0 1 5,-5 h 397.2 a 5,5 0 0 1 5,5 z"
       style="fill:#263238"
       id="path963" />
    <rect
       x="67.410004"
       y="359.10999"
       width="59.200001"
       height="2.8900001"
       id="rect965" />
    <path
       d="M 51.66,360.55 A 1.65,1.65 0 1 1 50,358.9 a 1.65,1.65 0 0 1 1.66,1.65 z"
       style="fill:#ffffff"
       id="path967" />
    <path
       d="m 140.75,360.55 a 1.65,1.65 0 1 1 -1.65,-1.65 1.65,1.65 0 0 1 1.65,1.65 z"
       style="fill:#ffffff"
       id="path969" />
    <path
       d="m 188.59,376.93 c 0,-15.91 7.21,-28.81 16.11,-28.81 h -17.09 c -8.89,0 -16.1,12.9 -16.1,28.81 0,15.91 7.21,28.8 16.1,28.8 h 17.09 c -8.9,0.03 -16.11,-12.86 -16.11,-28.8 z"
       id="path971" />
    <path
       d="m 188.59,376.93 c 0,-15.91 7.21,-28.81 16.11,-28.81 h -17.09 c -8.89,0 -16.1,12.9 -16.1,28.81 0,15.91 7.21,28.8 16.1,28.8 h 17.09 c -8.9,0.03 -16.11,-12.86 -16.11,-28.8 z"
       style="opacity:0.7;isolation:isolate;fill:#263238"
       id="path973" />
    <ellipse
       cx="204.7"
       cy="376.95999"
       rx="16.110001"
       ry="28.809999"
       style="fill:#263238"
       id="ellipse975" />
    <ellipse
       cx="205.99001"
       cy="376.95999"
       rx="11.42"
       ry="22.459999"
       style="fill:#ffffff"
       id="ellipse977" />
    <ellipse
       cx="204.95"
       cy="376.95999"
       rx="10.93"
       ry="19.440001"
       style="fill:#263238"
       id="ellipse979" />
    <ellipse
       cx="202.55"
       cy="376.95999"
       rx="7.98"
       ry="14.19"
       id="ellipse981" />
    <path
       d="m 440.73,360 v 0.54 a 5,5 0 0 1 -5,5 H 233.63 V 355 h 202.1 a 5,5 0 0 1 5,5 z"
       style="opacity:0.5"
       id="path983" />
    <path
       d="m 377.92,376.93 c 0,-15.91 7.21,-28.81 16.1,-28.81 h -17.08 c -8.9,0 -16.11,12.9 -16.11,28.81 0,15.91 7.21,28.8 16.11,28.8 H 394 c -8.87,0.03 -16.08,-12.86 -16.08,-28.8 z"
       id="path985" />
    <path
       d="m 377.92,376.93 c 0,-15.91 7.21,-28.81 16.1,-28.81 h -17.08 c -8.9,0 -16.11,12.9 -16.11,28.81 0,15.91 7.21,28.8 16.11,28.8 H 394 c -8.87,0.03 -16.08,-12.86 -16.08,-28.8 z"
       style="opacity:0.7;isolation:isolate;fill:#263238"
       id="path987" />
    <ellipse
       cx="394.01999"
       cy="376.95999"
       rx="16.110001"
       ry="28.809999"
       style="fill:#263238"
       id="ellipse989" />
    <ellipse
       cx="395.32001"
       cy="376.95999"
       rx="11.42"
       ry="22.459999"
       style="fill:#ffffff"
       id="ellipse991" />
    <ellipse
       cx="394.26999"
       cy="376.95999"
       rx="10.93"
       ry="19.440001"
       style="fill:#263238"
       id="ellipse993" />
    <ellipse
       cx="391.87"
       cy="376.95999"
       rx="7.98"
       ry="14.19"
       id="ellipse995" />
  </g>
</svg>
