<?xml version="1.0" encoding="UTF-8" standalone="no"?>
<svg
   viewBox="0 0 500 500"
   version="1.1"
   id="svg424"
   sodipodi:docname="Vehicle Sale-rafiki.svg"
   inkscape:version="1.2.2 (732a01da63, 2022-12-09)"
   xmlns:inkscape="http://www.inkscape.org/namespaces/inkscape"
   xmlns:sodipodi="http://sodipodi.sourceforge.net/DTD/sodipodi-0.dtd"
   xmlns="http://www.w3.org/2000/svg"
   xmlns:svg="http://www.w3.org/2000/svg">
  <defs
     id="defs428" />
  <sodipodi:namedview
     id="namedview426"
     pagecolor="#ffffff"
     bordercolor="#000000"
     borderopacity="0.25"
     inkscape:showpageshadow="2"
     inkscape:pageopacity="0.0"
     inkscape:pagecheckerboard="0"
     inkscape:deskcolor="#d1d1d1"
     showgrid="false"
     inkscape:zoom="0.837"
     inkscape:cx="152.92712"
     inkscape:cy="264.03823"
     inkscape:window-width="1920"
     inkscape:window-height="1017"
     inkscape:window-x="-8"
     inkscape:window-y="-8"
     inkscape:window-maximized="1"
     inkscape:current-layer="freepik--Motorcycle--inject-242" />
  <g
     id="freepik--Motorcycle--inject-242"
     transform="translate(34.050179,-25.686977)">
    <path
       d="m 111.35046,385.56579 9.74,22.38805 a 23.662804,23.662804 0 0 0 21.71082,14.24152 h 40.77252 a 20.41614,20.41614 0 0 0 14.42077,-5.97548 h 76.14722 a 18.563748,18.563748 0 0 0 15.05815,-7.70833 l 10.05869,-13.94273 z"
       style="fill:#2e353a;stroke-width:1.99181"
       id="path355" />
    <path
       d="m 173.39561,296.81038 c 0,10.73589 42.78426,86.98271 47.06667,90.01027 4.28241,3.02757 60.133,-0.35853 60.133,-0.35853 l -4.1629,15.81503 H 123.06235 l -63.738195,-123.71183 42.146885,-60.81023 76.78461,2.13126 c 0,0 -4.86004,66.20803 -4.86004,76.92403 z"
       style="fill:#407bff;stroke-width:1.99181"
       id="path357" />
    <path
       d="m 173.39561,296.81038 c 0,10.73589 42.78426,86.98271 47.06667,90.01027 4.28241,3.02757 60.133,-0.35853 60.133,-0.35853 l -4.1629,15.81503 H 123.06235 l -63.738195,-123.71183 42.146885,-60.81023 76.78461,2.13126 c 0,0 -4.86004,66.20803 -4.86004,76.92403 z"
       style="opacity:0.2;isolation:isolate;stroke-width:1.99181"
       id="path359" />
    <ellipse
       cx="48.807335"
       cy="385.72516"
       rx="62.563019"
       ry="75.470001"
       style="fill:#2e353a;stroke-width:1.99181"
       id="ellipse361" />
    <ellipse
       cx="38.330391"
       cy="385.72516"
       rx="39.457924"
       ry="47.604462"
       style="fill:#ffffff;stroke-width:1.99181"
       id="ellipse363" />
    <ellipse
       cx="29.267628"
       cy="385.08774"
       rx="16.432503"
       ry="19.818592"
       style="fill:#407bff;stroke-width:1.99181"
       id="ellipse365" />
    <ellipse
       cx="29.267628"
       cy="385.08774"
       rx="16.432503"
       ry="19.818592"
       style="opacity:0.4;isolation:isolate;stroke-width:1.99181"
       id="ellipse367" />
    <path
       d="m 397.31585,271.71347 c 0,0 -56.46806,43.30211 -77.99961,132.55549 h -90.42857 l 85.6482,-139.42728 45.17445,-18.78285 z"
       style="fill:#407bff;stroke-width:1.99181"
       id="path369" />
    <path
       d="m 403.15188,267.31154 c 0,0 -52.80312,40.37416 -78.01954,116.34212 a 29.877278,29.877278 0 0 1 -28.26389,20.6153 h -67.98078 l 85.6482,-139.42728 45.17445,-18.78285 z"
       style="opacity:0.4;isolation:isolate;stroke-width:1.99181"
       id="path371" />
    <path
       d="m 397.71421,270.81712 h -34.87674 a 33.183696,33.183696 0 0 0 -18.64342,5.4576 c -20.695,13.78339 -69.71366,52.22548 -74.81271,113.13529 a 16.13373,16.13373 0 0 1 -15.93455,14.85895 H 101.84948 A 143.96863,143.96863 0 0 1 29.347283,384.68941 l -43.341968,-25.25627 a 25.893639,25.893639 0 0 1 -12.309438,-27.52693 c 5.15881,-24.8778 19.6990851,-67.56249 61.308168,-84.25393 0.657309,-0.29876 -0.338607,-0.55769 1.653209,-0.79672 V 221.02168 H 145.33089 c 0,0 -21.7905,51.96654 -21.7905,73.39851 0,20.21695 21.43197,97.89788 49.15808,105.86515 h 37.84455 a 28.64235,28.64235 0 0 0 24.45954,-14.93864 c 18.44423,-32.92476 59.41594,-118.29409 46.64839,-198.98267 -1.49387,-9.42129 5.75635,-19.12146 15.31709,-19.12146 h 48.79953 c 0,0 43.82001,50.83122 58.0416,93.79473 1.45404,4.18284 -1.67311,9.77982 -6.09496,9.77982 z"
       style="fill:#407bff;stroke-width:1.99181"
       id="path373" />
    <path
       d="m 319.4955,151.06903 h -13.94273 a 16.054057,16.054057 0 0 1 -10.05868,-3.54545 l -28.66228,-23.20469 a 6.3937374,6.3937374 0 0 0 -3.98362,-1.43413 h -55.09372 a 3.983637,3.983637 0 0 1 0,-7.96725 h 55.05387 a 14.261421,14.261421 0 0 1 9.00303,3.20682 l 28.68217,23.22462 a 7.967274,7.967274 0 0 0 5.03931,1.77272 h 13.94273 a 8.0867831,8.0867831 0 0 0 7.96728,-6.8917 l 1.25483,-8.96318 a 14.440683,14.440683 0 0 1 14.20168,-12.32938 h 10.45705 a 3.983645,3.983645 0 0 1 0,7.96729 h -10.4969 a 6.4335736,6.4335736 0 0 0 -6.31406,5.47749 l -1.25483,8.96319 a 16.073976,16.073976 0 0 1 -15.79513,13.72365 z"
       style="fill:#2e353a;stroke-width:1.99181"
       id="path375" />
    <path
       d="m 294.89653,134.17839 c 0,0 0.17927,9.40139 -8.64449,8.80384 l -2.86822,10.19812 a 10.676147,10.676147 0 0 0 1.21501,8.58471 l 6.2344,9.95911 h 57.76274 l 4.54134,-8.56482 a 7.2701374,7.2701374 0 0 0 -1.215,-8.50506 l -17.20932,-17.58777 a 9.6603198,9.6603198 0 0 0 -6.93153,-2.92796 z"
       style="fill:#407bff;stroke-width:1.99181"
       id="path377" />
    <path
       d="m 294.89653,134.17839 c 0,0 0.17927,9.40139 -8.64449,8.80384 l -2.86822,10.19812 a 10.676147,10.676147 0 0 0 1.21501,8.58471 l 6.2344,9.95911 h 57.76274 l 4.54134,-8.56482 a 7.2701374,7.2701374 0 0 0 -1.215,-8.50506 l -17.20932,-17.58777 a 9.6603198,9.6603198 0 0 0 -6.93153,-2.92796 z"
       style="opacity:0.4;isolation:isolate;stroke-width:1.99181"
       id="path379" />
    <ellipse
       cx="394.08914"
       cy="385.72516"
       rx="62.563019"
       ry="75.470001"
       style="fill:#2e353a;stroke-width:1.99181"
       id="ellipse381" />
    <ellipse
       cx="383.63202"
       cy="385.72516"
       rx="39.457924"
       ry="47.604462"
       style="fill:#ffffff;stroke-width:1.99181"
       id="ellipse383" />
    <path
       d="m 455.65621,337.04511 c -6.59292,-11.21395 -24.22052,-35.45439 -55.91036,-42.54524 a 61.905718,61.905718 0 0 0 -24.7583,-0.71706 l -0.13937,-0.3386 0.13937,-0.29879 h -0.25892 l -5.43768,-12.36919 h -6.19455 a 23.164851,23.164851 0 0 0 -13.94273,4.66086 l -10.87533,8.16645 5.11898,17.7471 a 53.958362,53.958362 0 0 0 -4.14299,5.01939 89.990361,89.990361 0 0 0 -18.22514,39.23883 4.202737,4.202737 0 0 0 4.1629,4.84012 h 3.26659 a 4.202737,4.202737 0 0 0 3.98363,-2.66905 54.715255,54.715255 0 0 1 13.52445,-20.33645 l 18.14548,47.24593 14.60002,-6.13482 -5.11897,-58.87815 c 0,0 33.58205,-9.4412 55.57173,17.7272 a 13.703711,13.703711 0 0 0 10.63631,5.11897 h 12.76757 a 3.6450279,3.6450279 0 0 0 3.08731,-5.4775 z"
       style="fill:#407bff;stroke-width:1.99181"
       id="path385" />
    <path
       d="m 455.65621,337.04511 c -6.59292,-11.21395 -24.22052,-35.45439 -55.91036,-42.54524 a 61.905718,61.905718 0 0 0 -24.7583,-0.71706 l -0.13937,-0.3386 0.13937,-0.29879 h -0.25892 l -5.43768,-12.36919 h -6.19455 a 23.164851,23.164851 0 0 0 -13.94273,4.66086 l -10.87533,8.16645 5.11898,17.7471 a 53.958362,53.958362 0 0 0 -4.14299,5.01939 89.990361,89.990361 0 0 0 -18.22514,39.23883 4.202737,4.202737 0 0 0 4.1629,4.84012 h 3.26659 a 4.202737,4.202737 0 0 0 3.98363,-2.66905 54.715255,54.715255 0 0 1 13.52445,-20.33645 l 18.14548,47.24593 14.60002,-6.13482 -5.11897,-58.87815 c 0,0 33.58205,-9.4412 55.57173,17.7272 a 13.703711,13.703711 0 0 0 10.63631,5.11897 h 12.76757 a 3.6450279,3.6450279 0 0 0 3.08731,-5.4775 z"
       style="opacity:0.2;isolation:isolate;stroke-width:1.99181"
       id="path387" />
    <ellipse
       cx="374.56924"
       cy="385.08774"
       rx="16.432503"
       ry="19.818592"
       style="fill:#407bff;stroke-width:1.99181"
       id="ellipse389" />
    <ellipse
       cx="374.56924"
       cy="385.08774"
       rx="16.432503"
       ry="19.818592"
       style="opacity:0.4;isolation:isolate;stroke-width:1.99181"
       id="ellipse391" />
    <path
       d="m 315.39235,173.93508 c 0,0 10.33754,65.09264 44.47731,65.53083 32.00853,0.4382 34.99625,-60.67079 4.46167,-70.05225 -24.65871,-7.58883 -48.93898,4.52142 -48.93898,4.52142 z"
       style="fill:#407bff;stroke-width:1.99181"
       id="path393" />
    <path
       d="m 315.39235,173.93508 c 0,0 10.33754,65.09264 44.47731,65.53083 32.00853,0.4382 34.99625,-60.67079 4.46167,-70.05225 -24.65871,-7.58883 -48.93898,4.52142 -48.93898,4.52142 z"
       style="opacity:0.2;isolation:isolate;stroke-width:1.99181"
       id="path395" />
    <path
       d="m 383.49263,203.87212 c 0.75688,16.51217 -9.2022,29.87727 -22.24861,29.87727 -13.04642,0 -24.22053,-13.40493 -24.9774,-29.87727 -0.7569,-16.47235 9.2022,-29.87727 22.22868,-29.87727 13.0265,0 24.24044,13.34517 24.99733,29.87727 z"
       style="fill:#ffffff;stroke-width:1.99181"
       id="path397" />
    <polygon
       points="243.12,264.04 256.82,264.04 256.82,265.96 241.94,265.96 "
       style="fill:#407bff"
       id="polygon399"
       transform="matrix(1.9918186,0,0,1.9918186,-160.53277,-368.55661)" />
    <path
       d="m 188.03548,218.27297 v 7.48922 c 0,6.79211 -5.55718,11.19402 -12.3692,11.19402 H 40.979508 c -6.831944,0 -12.289518,-4.40191 -12.289518,-11.19402 v -7.48922 c 0,-6.79211 5.457574,-11.19402 12.289518,-11.19402 H 175.66628 c 6.81202,0 12.3692,4.40191 12.3692,11.19402 z"
       style="fill:#2e353a;stroke-width:1.99181"
       id="path401" />
    <path
       d="m 144.21547,218.27297 v 7.48922 A 10.696066,10.696066 0 0 1 132.7426,236.95621 H 40.979508 c -6.831944,0 -12.289518,-4.40191 -12.289518,-11.19402 v -7.48922 c 0,-6.79211 5.457574,-11.19402 12.289518,-11.19402 H 132.7426 a 10.696066,10.696066 0 0 1 11.47287,11.19402 z"
       style="opacity:0.2;isolation:isolate;fill:#ffffff;stroke-width:1.99181"
       id="path403" />
    <path
       d="m 127.2651,356.22633 v 48.04263 H 101.84948 A 143.96863,143.96863 0 0 1 29.347283,384.68941 l -43.341968,-25.25627 a 25.893639,25.893639 0 0 1 -12.309438,-27.52693 c 5.15881,-24.8778 19.9181851,-67.56249 61.606945,-84.25393 l 1.991816,0.0996 h 16.830871 a 51.070226,51.070226 0 0 1 46.269951,29.43908 l 17.92637,38.4421 a 95.92598,95.92598 0 0 1 8.94327,40.59326 z"
       style="opacity:0.2;isolation:isolate;stroke-width:1.99181"
       id="path405" />
    <rect
       x="132.99236"
       y="215.54221"
       width="3.9836369"
       height="35.514122"
       transform="rotate(-37.41)"
       style="fill:#2e353a;stroke-width:1.99181"
       id="rect407" />
    <path
       d="m 226.77633,84.582108 h 10.1583 a 5.3978281,5.3978281 0 0 1 4.95961,3.266569 l 1.35444,3.16701 a 5.3978281,5.3978281 0 0 1 -4.95963,7.50915 h -11.05459 a 5.37791,5.37791 0 0 1 -5.33807,-4.62102 l -0.45812,-3.16698 a 5.3978281,5.3978281 0 0 1 5.33806,-6.154729 z"
       style="fill:#407bff;stroke-width:1.99181"
       id="path409" />
    <rect
       x="-45.971935"
       y="352.82935"
       width="25.77413"
       height="3.9836369"
       transform="rotate(-78.11)"
       style="fill:#2e353a;stroke-width:1.99181"
       id="rect411" />
    <path
       d="m 354.9897,84.582108 h -10.93508 a 4.4417553,4.4417553 0 0 0 -4.40192,3.824279 l -0.73698,5.0393 a 4.4616735,4.4616735 0 0 0 4.4816,5.07915 h 10.91517 a 4.4417553,4.4417553 0 0 0 4.40191,-3.82431 l 0.73697,-5.03928 a 4.4616735,4.4616735 0 0 0 -4.46167,-5.079139 z"
       style="fill:#407bff;stroke-width:1.99181"
       id="path413" />
  </g>
</svg>
