<?xml version="1.0" encoding="UTF-8" standalone="no"?>
<svg
   viewBox="0 0 241 248"
   version="1.1"
   id="svg114"
   sodipodi:docname="By my car-rafiki (1).svg"
   width="241"
   height="248"
   inkscape:version="1.2.2 (732a01da63, 2022-12-09)"
   xmlns:inkscape="http://www.inkscape.org/namespaces/inkscape"
   xmlns:sodipodi="http://sodipodi.sourceforge.net/DTD/sodipodi-0.dtd"
   xmlns="http://www.w3.org/2000/svg"
   xmlns:svg="http://www.w3.org/2000/svg">
  <defs
     id="defs118" />
  <sodipodi:namedview
     id="namedview116"
     pagecolor="#ffffff"
     bordercolor="#000000"
     borderopacity="0.25"
     inkscape:showpageshadow="2"
     inkscape:pageopacity="0.0"
     inkscape:pagecheckerboard="0"
     inkscape:deskcolor="#d1d1d1"
     showgrid="false"
     showguides="true"
     inkscape:zoom="2.3673935"
     inkscape:cx="214.58199"
     inkscape:cy="145.30749"
     inkscape:window-width="1920"
     inkscape:window-height="1017"
     inkscape:window-x="-8"
     inkscape:window-y="-8"
     inkscape:window-maximized="1"
     inkscape:current-layer="freepik--Car--inject-67" />
  <g
     id="freepik--Car--inject-67">
    <path
       d="m 114.00797,163.22536 c 7.2342,0 13.10008,-11.61628 13.10008,-25.94611 0,-14.32984 -5.86588,-25.94613 -13.10008,-25.94613 H 97.230173 v 51.89224 z"
       style="fill:#263238;stroke-width:0.57735"
       id="path61" />
    <ellipse
       cx="97.143578"
       cy="137.27927"
       rx="13.100077"
       ry="25.946117"
       style="fill:#263238;stroke-width:0.57735"
       id="ellipse63" />
    <path
       d="m 210.06173,163.22536 c 7.2342,0 13.0943,-11.61628 13.0943,-25.94611 0,-14.32984 -5.83702,-25.94613 -13.0943,-25.94613 h -16.80667 v 51.89224 z"
       style="fill:#263238;stroke-width:0.57735"
       id="path65" />
    <ellipse
       cx="193.19154"
       cy="137.27927"
       rx="13.100077"
       ry="25.946117"
       style="fill:#263238;stroke-width:0.57735"
       id="ellipse67" />
    <path
       d="m 28.144447,150.15993 -8.972022,-2.21126 a 10.704073,10.704073 0 0 1 -7.055219,-5.6638 v 0 A 10.732941,10.732941 0 0 0 9.6288261,139.02284 L 7.4233486,137.05985 A 10.727167,10.727167 0 0 1 3.8784185,128.02432 L 5.090854,115.32261 a 10.727167,10.727167 0 0 1 7.63257,-9.26646 l 6.41436,-1.89371 23.140196,-1.65122 z"
       style="fill:#3b75a5;stroke-width:0.57735"
       id="path69" />
    <path
       d="m 47.710846,163.22536 c 7.234197,0 13.100075,-11.61628 13.100075,-25.94611 0,-14.32984 -5.865878,-25.94613 -13.100075,-25.94613 H 30.909955 v 51.89224 z"
       style="fill:#263238;stroke-width:0.57735"
       id="path71" />
    <ellipse
       cx="30.846441"
       cy="137.27927"
       rx="13.100077"
       ry="25.946117"
       style="fill:#263238;stroke-width:0.57735"
       id="ellipse73" />
    <ellipse
       cx="30.846441"
       cy="137.27927"
       rx="9.1914148"
       ry="20.507479"
       style="fill:#3b75a5;stroke-width:0.57735"
       id="ellipse75" />
    <path
       d="m 163.76979,150.15993 22.62058,-50.552782 c 0,0 -33.84427,-25.195561 -76.78758,-25.195561 -69.59957,0 -67.20934,9.381941 -90.499646,29.750853 l 10.167136,7.17068 c 18.088381,0 19.595266,28.67122 22.48779,36.7368 a 3.1350116,3.1350116 0 0 0 2.956033,2.09001 H 163.76979"
       style="fill:#3b75a5;stroke-width:0.57735"
       id="path77" />
    <path
       d="m 143.7646,163.22536 c 7.2342,0 13.09431,-11.61628 13.09431,-25.94611 0,-14.32984 -5.86011,-25.94613 -13.09431,-25.94613 h -16.80666 v 51.89224 z"
       style="fill:#263238;stroke-width:0.57735"
       id="path79" />
    <ellipse
       cx="126.89442"
       cy="137.27927"
       rx="13.100077"
       ry="25.946117"
       style="fill:#263238;stroke-width:0.57735"
       id="ellipse81" />
    <ellipse
       cx="126.89442"
       cy="137.27927"
       rx="9.1914148"
       ry="20.507479"
       style="fill:#3b75a5;stroke-width:0.57735"
       id="ellipse83" />
    <path
       d="m 150.27134,145.98569 c -2.08424,-9.46855 -12.0493,-34.64101 -23.99468,-34.64101 L 113.33247,99.589828 h 73.0579 c 5.05759,0 27.52228,3.106142 40.25285,11.725972 10.28261,6.96285 11.54701,17.53413 13.02503,32.97825 0.30599,3.15233 -2.45375,5.86011 -5.94094,5.86588 -29.27165,0 -64.69786,0.10969 -77.59587,0.15011 -2.84633,0.0288 -5.30007,-1.78978 -5.8601,-4.32435 z"
       style="fill:#3b75a5;stroke-width:0.57735"
       id="path85" />
    <path
       d="M 181.10762,99.607148 H 133.482 a 6.7434503,6.7434503 0 0 1 -5.59453,-2.938712 c -5.30008,-7.851962 -14.68201,-15.807848 -21.55826,-19.577944 48.15101,0 74.77841,22.516656 74.77841,22.516656 z"
       style="opacity:0.8;fill:#ffffff;stroke-width:0.57735"
       id="path87" />
    <path
       d="m 105.15142,79.451855 c 5.77351,4.180015 12.34375,10.657884 16.03301,17.095337 a 2.0322727,2.0322727 0 0 1 -1.73204,3.054183 H 41.400408 c -8.279202,0 -5.531016,-20.622948 37.71829,-22.170247 4.076089,-0.352183 13.579276,-0.36373 18.833164,-0.340636 a 12.361067,12.361067 0 0 1 7.199558,2.361363 z"
       style="opacity:0.8;fill:#ffffff;stroke-width:0.57735"
       id="path89" />
    <path
       d="m 158.52745,138.91892 25.01658,1.88794 a 1.5472985,1.5472985 0 0 1 1.43183,1.5473 v 1.73204 a 1.5472985,1.5472985 0 0 1 -1.5473,1.5473 H 158.4293 a 1.553072,1.553072 0 0 1 -1.55307,-1.5473 v -3.59689 a 1.553072,1.553072 0 0 1 1.65122,-1.57039 z"
       style="fill:#263238;stroke-width:0.57735"
       id="path91" />
    <path
       d="m 238.04589,139.26533 -6.87047,1.38564 a 1.5472985,1.5472985 0 0 0 -1.24708,1.51843 v 1.87638 a 1.5472985,1.5472985 0 0 0 1.55308,1.5473 h 7.27461 a 1.5472985,1.5472985 0 0 0 1.54153,-1.73204 l -0.38683,-3.25626 a 1.553072,1.553072 0 0 0 -1.86484,-1.33945 z"
       style="fill:#263238;stroke-width:0.57735"
       id="path93" />
    <path
       d="m 179.11576,109.80892 -34.92969,-1.69741 c 0,0 -0.35796,6.18919 12.58624,7.50555 a 34.063662,34.063662 0 0 0 22.34345,-5.80814 z"
       style="opacity:0.8;fill:#ffffff;stroke-width:0.57735"
       id="path95" />
    <path
       d="m 5.0850803,115.31684 a 10.634791,10.634791 0 0 1 0.7216879,-2.95603 l 2.3671359,-0.0693 c 0,0 0.1096965,9.08172 -3.3197634,8.51015 a 1.6858626,1.6858626 0 0 1 -0.2829018,-0.0693 z"
       style="opacity:0.3;stroke-width:0.57735"
       id="path97" />
    <path
       d="m 223.20221,109.25467 a 39.837164,39.837164 0 0 1 3.43524,2.07269 24.687494,24.687494 0 0 1 4.58993,3.97216 13.781349,13.781349 0 0 1 -1.48378,0.33486 c -7.75382,1.33368 -13.38876,-5.82546 -13.38876,-5.82546 z"
       style="opacity:0.8;fill:#ffffff;stroke-width:0.57735"
       id="path99" />
    <path
       d="m 189.9353,119.56614 h 24.71636 a 4.2435239,4.2435239 0 0 1 2.4191,0.77365 l 4.31858,3.03109 a 4.324353,4.324353 0 0 1 1.81865,2.95026 l 1.10274,8.18105 a 3.6834943,3.6834943 0 0 1 -3.68927,4.2493 h -26.43109 a 4.347447,4.347447 0 0 1 -3.81051,-2.36714 l -4.93634,-9.62442 a 3.8913403,3.8913403 0 0 1 0.31176,-4.19734 l 1.23554,-1.58772 a 3.6892678,3.6892678 0 0 1 2.94448,-1.40873 z"
       style="fill:#263238;stroke-width:0.57735"
       id="path101" />
    <path
       d="m 59.644673,139.52514 h 48.335767 a 1.1547004,1.1547004 0 0 1 1.1547,1.25285 l -0.24826,2.81169 a 1.1547004,1.1547004 0 0 1 -1.15471,1.05078 H 59.39064 a 1.1547004,1.1547004 0 0 1 -1.1547,-1.25285 l 0.24826,-2.81747 a 1.1547004,1.1547004 0 0 1 1.160473,-1.045 z"
       style="opacity:0.1;stroke-width:0.57735"
       id="path103" />
    <polygon
       points="158.55,308.94 168.59,264.91 173.6,263.94 163.35,308.94 "
       style="fill:#3b75a5"
       id="polygon105"
       transform="matrix(0.5773502,0,0,0.5773502,-22.281319,-75.855351)" />
    <path
       d="m 85.613888,105.43261 h -9.901556 l -0.254034,1.03923 a 1.4780165,1.4780165 0 0 0 1.472243,1.95144 h 5.987123 a 2.6558109,2.6558109 0 0 0 2.436413,-1.95144 z"
       style="fill:#263238;stroke-width:0.57735"
       id="path107" />
    <path
       d="m 51.555998,105.43261 h -9.895783 l -0.254034,1.03923 a 1.4780165,1.4780165 0 0 0 1.472243,1.95144 h 5.987122 a 2.6558109,2.6558109 0 0 0 2.436418,-1.95144 z"
       style="fill:#263238;stroke-width:0.57735"
       id="path109" />
    <path
       d="m 70.937644,136.16496 a 0.32908961,0.32908961 0 0 1 -0.32909,-0.32331 l -0.727461,-34.01748 a 0.34063662,0.34063662 0 0 1 0.323316,-0.34063 v 0 a 0.32908961,0.32908961 0 0 1 0.329089,0.32331 l 0.715915,34.02324 a 0.33486312,0.33486312 0 0 1 -0.323316,0.33487 z"
       style="opacity:0.1;stroke-width:0.57735"
       id="path111" />
  </g>
</svg>
