<svg width="54" height="54" viewBox="0 0 54 54" fill="none" xmlns="http://www.w3.org/2000/svg">
<mask id="mask0_30_118" style="mask-type:alpha" maskUnits="userSpaceOnUse" x="0" y="0" width="54" height="54">
<rect width="54" height="54" fill="#D9D9D9"/>
</mask>
<g mask="url(#mask0_30_118)">
<path d="M27 27C24.525 27 22.4063 26.1188 20.6438 24.3563C18.8813 22.5938 18 20.475 18 18C18 15.525 18.8813 13.4062 20.6438 11.6438C22.4063 9.88125 24.525 9 27 9C29.475 9 31.5938 9.88125 33.3562 11.6438C35.1187 13.4062 36 15.525 36 18C36 20.475 35.1187 22.5938 33.3562 24.3563C31.5938 26.1188 29.475 27 27 27ZM9 45V38.7C9 37.425 9.32812 36.2531 9.98438 35.1844C10.6406 34.1156 11.5125 33.3 12.6 32.7375C14.925 31.575 17.2875 30.7031 19.6875 30.1219C22.0875 29.5406 24.525 29.25 27 29.25C29.475 29.25 31.9125 29.5406 34.3125 30.1219C36.7125 30.7031 39.075 31.575 41.4 32.7375C42.4875 33.3 43.3594 34.1156 44.0156 35.1844C44.6719 36.2531 45 37.425 45 38.7V45H9ZM13.5 40.5H40.5V38.7C40.5 38.2875 40.3969 37.9125 40.1906 37.575C39.9844 37.2375 39.7125 36.975 39.375 36.7875C37.35 35.775 35.3063 35.0156 33.2438 34.5094C31.1813 34.0031 29.1 33.75 27 33.75C24.9 33.75 22.8187 34.0031 20.7562 34.5094C18.6937 35.0156 16.65 35.775 14.625 36.7875C14.2875 36.975 14.0156 37.2375 13.8094 37.575C13.6031 37.9125 13.5 38.2875 13.5 38.7V40.5ZM27 22.5C28.2375 22.5 29.2969 22.0594 30.1781 21.1781C31.0594 20.2969 31.5 19.2375 31.5 18C31.5 16.7625 31.0594 15.7031 30.1781 14.8219C29.2969 13.9406 28.2375 13.5 27 13.5C25.7625 13.5 24.7031 13.9406 23.8219 14.8219C22.9406 15.7031 22.5 16.7625 22.5 18C22.5 19.2375 22.9406 20.2969 23.8219 21.1781C24.7031 22.0594 25.7625 22.5 27 22.5Z" fill="#333333"/>
</g>
</svg>
