<svg width="54" height="54" viewBox="0 0 54 54" fill="none" xmlns="http://www.w3.org/2000/svg">
<mask id="mask0_30_161" style="mask-type:alpha" maskUnits="userSpaceOnUse" x="0" y="0" width="54" height="54">
<rect width="54" height="54" fill="#D9D9D9"/>
</mask>
<g mask="url(#mask0_30_161)">
<path d="M27 27C28.2375 27 29.2969 26.5594 30.1781 25.6781C31.0594 24.7969 31.5 23.7375 31.5 22.5C31.5 21.2625 31.0594 20.2031 30.1781 19.3219C29.2969 18.4406 28.2375 18 27 18C25.7625 18 24.7031 18.4406 23.8219 19.3219C22.9406 20.2031 22.5 21.2625 22.5 22.5C22.5 23.7375 22.9406 24.7969 23.8219 25.6781C24.7031 26.5594 25.7625 27 27 27ZM27 43.5375C31.575 39.3375 34.9688 35.5219 37.1813 32.0906C39.3938 28.6594 40.5 25.6125 40.5 22.95C40.5 18.8625 39.1969 15.5156 36.5906 12.9094C33.9844 10.3031 30.7875 9 27 9C23.2125 9 20.0156 10.3031 17.4094 12.9094C14.8031 15.5156 13.5 18.8625 13.5 22.95C13.5 25.6125 14.6063 28.6594 16.8188 32.0906C19.0312 35.5219 22.425 39.3375 27 43.5375ZM27 49.5C20.9625 44.3625 16.4531 39.5906 13.4719 35.1844C10.4906 30.7781 9 26.7 9 22.95C9 17.325 10.8094 12.8438 14.4281 9.50625C18.0469 6.16875 22.2375 4.5 27 4.5C31.7625 4.5 35.9531 6.16875 39.5719 9.50625C43.1906 12.8438 45 17.325 45 22.95C45 26.7 43.5094 30.7781 40.5281 35.1844C37.5469 39.5906 33.0375 44.3625 27 49.5Z" fill="#333333"/>
</g>
</svg>
