<svg width="54" height="54" viewBox="0 0 54 54" fill="none" xmlns="http://www.w3.org/2000/svg">
<mask id="mask0_30_155" style="mask-type:alpha" maskUnits="userSpaceOnUse" x="0" y="0" width="54" height="54">
<rect width="54" height="54" fill="#D9D9D9"/>
</mask>
<g mask="url(#mask0_30_155)">
<path d="M13.5 45C11.625 45 10.0312 44.3438 8.71875 43.0312C7.40625 41.7188 6.75 40.125 6.75 38.25H2.25V13.5C2.25 12.2625 2.69063 11.2031 3.57188 10.3219C4.45312 9.44063 5.5125 9 6.75 9H38.25V18H45L51.75 27V38.25H47.25C47.25 40.125 46.5938 41.7188 45.2812 43.0312C43.9688 44.3438 42.375 45 40.5 45C38.625 45 37.0312 44.3438 35.7188 43.0312C34.4062 41.7188 33.75 40.125 33.75 38.25H20.25C20.25 40.125 19.5938 41.7188 18.2812 43.0312C16.9688 44.3438 15.375 45 13.5 45ZM13.5 40.5C14.1375 40.5 14.6719 40.2844 15.1031 39.8531C15.5344 39.4219 15.75 38.8875 15.75 38.25C15.75 37.6125 15.5344 37.0781 15.1031 36.6469C14.6719 36.2156 14.1375 36 13.5 36C12.8625 36 12.3281 36.2156 11.8969 36.6469C11.4656 37.0781 11.25 37.6125 11.25 38.25C11.25 38.8875 11.4656 39.4219 11.8969 39.8531C12.3281 40.2844 12.8625 40.5 13.5 40.5ZM6.75 33.75H8.55C9.1875 33.075 9.91875 32.5313 10.7438 32.1188C11.5688 31.7063 12.4875 31.5 13.5 31.5C14.5125 31.5 15.4312 31.7063 16.2562 32.1188C17.0813 32.5313 17.8125 33.075 18.45 33.75H33.75V13.5H6.75V33.75ZM40.5 40.5C41.1375 40.5 41.6719 40.2844 42.1031 39.8531C42.5344 39.4219 42.75 38.8875 42.75 38.25C42.75 37.6125 42.5344 37.0781 42.1031 36.6469C41.6719 36.2156 41.1375 36 40.5 36C39.8625 36 39.3281 36.2156 38.8969 36.6469C38.4656 37.0781 38.25 37.6125 38.25 38.25C38.25 38.8875 38.4656 39.4219 38.8969 39.8531C39.3281 40.2844 39.8625 40.5 40.5 40.5ZM38.25 29.25H47.8125L42.75 22.5H38.25V29.25Z" fill="#333333"/>
</g>
</svg>
