<?xml version="1.0" encoding="utf-8"?>
<svg version="1.1" xmlns:xlink="http://www.w3.org/1999/xlink" width="29px" height="29px" xmlns="http://www.w3.org/2000/svg">
  <g transform="matrix(1 0 0 1 -276 -168 )">
    <path d="M 28.316498316498315 21.676767676767675  C 28.77216610549944 22.132435465768793  29 22.685746352413016  29 23.336700336700336  C 29 23.98765432098766  28.77216610549944 24.54096520763187  28.316498316498315 24.996632996632997  L 24.996632996632997 28.316498316498315  C 24.540965207631878 28.77216610549944  23.987654320987655 29  23.336700336700336 29  C 22.685746352413023 29  22.1324354657688 28.77216610549944  21.67676767676768 28.316498316498315  L 14.5 21.13973063973064  L 7.3232323232323235 28.316498316498315  C 6.867564534231202 28.77216610549944  6.314253647586981 29  5.6632996632996635 29  C 5.012345679012347 29  4.459034792368127 28.77216610549944  4.0033670033670035 28.316498316498315  L 0.6835016835016835 24.996632996632997  C 0.22783389450056138 24.54096520763187  0 23.98765432098766  0 23.336700336700336  C 0 22.685746352413016  0.22783389450056138 22.132435465768793  0.6835016835016835 21.676767676767675  L 7.86026936026936 14.5  L 0.6835016835016835 7.323232323232322  C 0.22783389450056138 6.867564534231199  0 6.314253647586981  0 5.6632996632996635  C 0 5.012345679012346  0.22783389450056138 4.459034792368121  0.6835016835016835 4.003367003367004  L 4.0033670033670035 0.6835016835016836  C 4.459034792368127 0.22783389450056013  5.012345679012347 0  5.6632996632996635 0  C 6.314253647586981 0  6.867564534231202 0.22783389450056013  7.3232323232323235 0.6835016835016836  L 14.5 7.860269360269362  L 21.67676767676768 0.6835016835016836  C 22.1324354657688 0.22783389450056013  22.685746352413023 0  23.336700336700336 0  C 23.987654320987655 0  24.540965207631878 0.22783389450056013  24.996632996632997 0.6835016835016836  L 28.316498316498315 4.003367003367004  C 28.77216610549944 4.459034792368121  29 5.012345679012346  29 5.6632996632996635  C 29 6.314253647586981  28.77216610549944 6.867564534231199  28.316498316498315 7.323232323232322  L 21.13973063973064 14.5  L 28.316498316498315 21.676767676767675  Z " fill-rule="nonzero" fill="#333333" stroke="none" transform="matrix(1 0 0 1 276 168 )" />
  </g>
</svg>