<svg width="45" height="45" viewBox="0 0 45 45" fill="none" xmlns="http://www.w3.org/2000/svg">
<mask id="mask0_417_16" style="mask-type:alpha" maskUnits="userSpaceOnUse" x="0" y="0" width="45" height="45">
<rect width="45" height="45" fill="#D9D9D9"/>
</mask>
<g mask="url(#mask0_417_16)">
<path d="M26.7188 40.125C26 40.8438 25.1094 41.2031 24.0469 41.2031C22.9844 41.2031 22.0938 40.8438 21.375 40.125L4.875 23.625C4.53125 23.2812 4.25781 22.875 4.05469 22.4062C3.85156 21.9375 3.75 21.4375 3.75 20.9063V7.5C3.75 6.46875 4.11719 5.58594 4.85156 4.85156C5.58594 4.11719 6.46875 3.75 7.5 3.75H20.9063C21.4375 3.75 21.9375 3.85156 22.4062 4.05469C22.875 4.25781 23.2812 4.53125 23.625 4.875L40.125 21.4219C40.8438 22.1406 41.2031 23.0234 41.2031 24.0703C41.2031 25.1172 40.8438 26 40.125 26.7188L26.7188 40.125ZM24.0469 37.5L37.4531 24.0938L20.9063 7.5H7.5V20.9063L24.0469 37.5ZM12.1875 15C12.9688 15 13.6328 14.7266 14.1797 14.1797C14.7266 13.6328 15 12.9688 15 12.1875C15 11.4062 14.7266 10.7422 14.1797 10.1953C13.6328 9.64844 12.9688 9.375 12.1875 9.375C11.4062 9.375 10.7422 9.64844 10.1953 10.1953C9.64844 10.7422 9.375 11.4062 9.375 12.1875C9.375 12.9688 9.64844 13.6328 10.1953 14.1797C10.7422 14.7266 11.4062 15 12.1875 15Z" fill="#FEFEFE"/>
</g>
</svg>
