<?xml version="1.0" encoding="UTF-8" standalone="no"?>
<svg
   height="48"
   viewBox="0 96 960 960"
   width="48"
   version="1.1"
   id="svg20"
   sodipodi:docname="attach_money_FILL0_wght400_GRAD0_opsz48.svg"
   inkscape:version="1.2.2 (732a01da63, 2022-12-09)"
   xmlns:inkscape="http://www.inkscape.org/namespaces/inkscape"
   xmlns:sodipodi="http://sodipodi.sourceforge.net/DTD/sodipodi-0.dtd"
   xmlns="http://www.w3.org/2000/svg"
   xmlns:svg="http://www.w3.org/2000/svg">
  <defs
     id="defs24" />
  <sodipodi:namedview
     id="namedview22"
     pagecolor="#ffffff"
     bordercolor="#000000"
     borderopacity="0.25"
     inkscape:showpageshadow="2"
     inkscape:pageopacity="0.0"
     inkscape:pagecheckerboard="0"
     inkscape:deskcolor="#d1d1d1"
     showgrid="false"
     inkscape:zoom="18.0625"
     inkscape:cx="23.972318"
     inkscape:cy="24.027682"
     inkscape:window-width="1920"
     inkscape:window-height="1017"
     inkscape:window-x="-8"
     inkscape:window-y="-8"
     inkscape:window-maximized="1"
     inkscape:current-layer="svg20" />
  <path
     d="M451 936v-84q-57-10-93.5-43.5T305 724l56-23q17 48 49 71.5t77 23.5q48 0 79-24t31-66q0-44-27.5-68T466 589q-72-23-107.5-61T323 433q0-55 35.5-92t92.5-42v-83h60v83q45 5 77.5 29.5T638 391l-56 24q-14-32-37.5-46.5T483 354q-46 0-73 21t-27 57q0 38 30 61.5T524 542q68 21 100.5 60.5T657 702q0 63-37 101.5T511 853v83h-60Z"
     id="path18"
     style="fill:#ffffff;fill-opacity:1" />
</svg>
