<?xml version="1.0" encoding="UTF-8" standalone="no"?>
<svg
   height="48"
   viewBox="0 96 960 960"
   width="48"
   version="1.1"
   id="svg32"
   sodipodi:docname="local_shipping_FILL0_wght500_GRAD0_opsz48 - Copia.svg"
   inkscape:version="1.2.2 (732a01da63, 2022-12-09)"
   xmlns:inkscape="http://www.inkscape.org/namespaces/inkscape"
   xmlns:sodipodi="http://sodipodi.sourceforge.net/DTD/sodipodi-0.dtd"
   xmlns="http://www.w3.org/2000/svg"
   xmlns:svg="http://www.w3.org/2000/svg">
  <defs
     id="defs36" />
  <sodipodi:namedview
     id="namedview34"
     pagecolor="#ffffff"
     bordercolor="#000000"
     borderopacity="0.25"
     inkscape:showpageshadow="2"
     inkscape:pageopacity="0.0"
     inkscape:pagecheckerboard="0"
     inkscape:deskcolor="#d1d1d1"
     showgrid="false"
     inkscape:zoom="18.0625"
     inkscape:cx="23.972318"
     inkscape:cy="24.027682"
     inkscape:window-width="1920"
     inkscape:window-height="1017"
     inkscape:window-x="-8"
     inkscape:window-y="-8"
     inkscape:window-maximized="1"
     inkscape:current-layer="svg32" />
  <path
     d="M225.552 900.5q-49.595 0-84.813-34.177-35.217-34.178-35.696-83.823H34.5V318.63q0-27.599 20.266-47.864Q75.03 250.5 102.63 250.5h579v164.13h103.327L925.5 601.981V782.5h-73.87q-.717 49.645-35.817 83.823-35.099 34.177-84.695 34.177t-84.814-34.177q-35.217-34.178-35.695-83.823H345.826q-.717 49.239-35.697 83.62-34.981 34.38-84.577 34.38Zm-.117-62.87q24 0 41-17t17-41q0-24-17-41t-41-17q-24 0-41 17t-17 41q0 24 17 41t41 17ZM102.63 714.37h23.04q16.917-25.805 42.455-41.087Q193.663 658 224.451 658t56.804 15.633q26.016 15.633 42.788 40.737H613.5V318.63H102.63v395.74ZM731 837.63q24 0 41-17t17-41q0-24-17-41t-41-17q-24 0-41 17t-17 41q0 24 17 41t41 17ZM681.63 631h180.261l-111-148H681.63v148ZM358.565 527Z"
     id="path30"
     style="fill:#ffffff;fill-opacity:1" />
</svg>
