<svg width="49" height="48" viewBox="0 0 49 48" fill="none" xmlns="http://www.w3.org/2000/svg">
<mask id="mask0_3_31" style="mask-type:alpha" maskUnits="userSpaceOnUse" x="0" y="0" width="49" height="48">
<rect x="0.868416" y="0.631584" width="47.3684" height="47.3684" fill="#D9D9D9"/>
</mask>
<g mask="url(#mask0_3_31)">
<path d="M28.5 26.2895C26.8553 26.2895 25.4572 25.7138 24.3059 24.5625C23.1546 23.4112 22.5789 22.0132 22.5789 20.3684C22.5789 18.7237 23.1546 17.3257 24.3059 16.1743C25.4572 15.023 26.8553 14.4474 28.5 14.4474C30.1447 14.4474 31.5428 15.023 32.6941 16.1743C33.8454 17.3257 34.421 18.7237 34.421 20.3684C34.421 22.0132 33.8454 23.4112 32.6941 24.5625C31.5428 25.7138 30.1447 26.2895 28.5 26.2895ZM14.6842 32.2105C13.5987 32.2105 12.6694 31.824 11.8964 31.051C11.1234 30.278 10.7368 29.3487 10.7368 28.2632V12.4737C10.7368 11.3882 11.1234 10.4589 11.8964 9.68586C12.6694 8.91283 13.5987 8.52632 14.6842 8.52632H42.3158C43.4013 8.52632 44.3306 8.91283 45.1036 9.68586C45.8766 10.4589 46.2632 11.3882 46.2632 12.4737V28.2632C46.2632 29.3487 45.8766 30.278 45.1036 31.051C44.3306 31.824 43.4013 32.2105 42.3158 32.2105H14.6842ZM18.6316 28.2632H38.3684C38.3684 27.1776 38.7549 26.2484 39.528 25.4753C40.301 24.7023 41.2303 24.3158 42.3158 24.3158V16.4211C41.2303 16.4211 40.301 16.0345 39.528 15.2615C38.7549 14.4885 38.3684 13.5592 38.3684 12.4737H18.6316C18.6316 13.5592 18.2451 14.4885 17.472 15.2615C16.699 16.0345 15.7697 16.4211 14.6842 16.4211V24.3158C15.7697 24.3158 16.699 24.7023 17.472 25.4753C18.2451 26.2484 18.6316 27.1776 18.6316 28.2632ZM40.3421 40.1053H6.78947C5.70394 40.1053 4.77467 39.7188 4.00164 38.9457C3.22862 38.1727 2.8421 37.2434 2.8421 36.1579V14.4474H6.78947V36.1579H40.3421V40.1053Z" fill="#1C1B1F"/>
</g>
</svg>
