<svg width="49" height="48" viewBox="0 0 49 48" fill="none" xmlns="http://www.w3.org/2000/svg">
<mask id="mask0_3_25" style="mask-type:alpha" maskUnits="userSpaceOnUse" x="0" y="0" width="49" height="48">
<rect x="0.868416" width="47.3684" height="47.3684" fill="#D9D9D9"/>
</mask>
<g mask="url(#mask0_3_25)">
<path d="M12.7105 43.4211C11.625 43.4211 10.6957 43.0345 9.92269 42.2615C9.14967 41.4885 8.76315 40.5592 8.76315 39.4737V7.89474C8.76315 6.80921 9.14967 5.87994 9.92269 5.10691C10.6957 4.33389 11.625 3.94737 12.7105 3.94737H28.5L40.3421 15.7895V39.4737C40.3421 40.5592 39.9556 41.4885 39.1826 42.2615C38.4095 43.0345 37.4803 43.4211 36.3947 43.4211H12.7105ZM26.5263 17.7632V7.89474H12.7105V39.4737H36.3947V17.7632H26.5263Z" fill="#1C1B1F"/>
</g>
</svg>
