<svg width="48" height="49" viewBox="0 0 48 49" fill="none" xmlns="http://www.w3.org/2000/svg">
<mask id="mask0_3_13" style="mask-type:alpha" maskUnits="userSpaceOnUse" x="0" y="0" width="48" height="49">
<rect y="0.986832" width="47.3684" height="47.3684" fill="#D9D9D9"/>
</mask>
<g mask="url(#mask0_3_13)">
<path d="M23.6842 35.5263C26.1513 35.5263 28.2484 34.6628 29.9753 32.9358C31.7023 31.2089 32.5658 29.1118 32.5658 26.6447C32.5658 24.1776 31.7023 22.0806 29.9753 20.3536C28.2484 18.6266 26.1513 17.7631 23.6842 17.7631C21.2171 17.7631 19.1201 18.6266 17.3931 20.3536C15.6661 22.0806 14.8026 24.1776 14.8026 26.6447C14.8026 29.1118 15.6661 31.2089 17.3931 32.9358C19.1201 34.6628 21.2171 35.5263 23.6842 35.5263ZM23.6842 31.5789C22.3026 31.5789 21.1349 31.102 20.1809 30.148C19.227 29.1941 18.75 28.0263 18.75 26.6447C18.75 25.2631 19.227 24.0954 20.1809 23.1414C21.1349 22.1875 22.3026 21.7105 23.6842 21.7105C25.0658 21.7105 26.2336 22.1875 27.1875 23.1414C28.1415 24.0954 28.6184 25.2631 28.6184 26.6447C28.6184 28.0263 28.1415 29.1941 27.1875 30.148C26.2336 31.102 25.0658 31.5789 23.6842 31.5789ZM7.89474 42.4342C6.80921 42.4342 5.87994 42.0477 5.10691 41.2747C4.33389 40.5016 3.94737 39.5724 3.94737 38.4868V14.8026C3.94737 13.7171 4.33389 12.7878 5.10691 12.0148C5.87994 11.2418 6.80921 10.8553 7.89474 10.8553H14.1118L17.7632 6.90788H29.6053L33.2566 10.8553H39.4737C40.5592 10.8553 41.4885 11.2418 42.2615 12.0148C43.0345 12.7878 43.4211 13.7171 43.4211 14.8026V38.4868C43.4211 39.5724 43.0345 40.5016 42.2615 41.2747C41.4885 42.0477 40.5592 42.4342 39.4737 42.4342H7.89474ZM7.89474 38.4868H39.4737V14.8026H31.4803L27.8783 10.8553H19.4901L15.8882 14.8026H7.89474V38.4868Z" fill="#1C1B1F"/>
</g>
</svg>
