<svg width="48" height="48" viewBox="0 0 48 48" fill="none" xmlns="http://www.w3.org/2000/svg">
<mask id="mask0_3_19" style="mask-type:alpha" maskUnits="userSpaceOnUse" x="0" y="0" width="48" height="48">
<rect y="0.631584" width="47.3684" height="47.3684" fill="#D9D9D9"/>
</mask>
<g mask="url(#mask0_3_19)">
<path d="M7.89474 40.1053C6.80921 40.1053 5.87994 39.7188 5.10691 38.9457C4.33389 38.1727 3.94737 37.2434 3.94737 36.1579V12.4737C3.94737 11.3882 4.33389 10.4589 5.10691 9.68586C5.87994 8.91283 6.80921 8.52632 7.89474 8.52632H39.4737C40.5592 8.52632 41.4885 8.91283 42.2615 9.68586C43.0345 10.4589 43.4211 11.3882 43.4211 12.4737V36.1579C43.4211 37.2434 43.0345 38.1727 42.2615 38.9457C41.4885 39.7188 40.5592 40.1053 39.4737 40.1053H7.89474ZM7.89474 36.1579H39.4737V12.4737H7.89474V36.1579ZM11.8421 32.2105H35.5263L28.125 22.3421L22.204 30.2368L17.7632 24.3158L11.8421 32.2105Z" fill="#1C1B1F"/>
</g>
</svg>
