<?xml version="1.0" encoding="utf-8"?>
<svg version="1.1" xmlns:xlink="http://www.w3.org/1999/xlink" width="26px" height="26px" xmlns="http://www.w3.org/2000/svg">
  <g transform="matrix(1 0 0 1 -34 -16 )">
    <path d="M 47 16  C 54.28 16  60 21.72  60 29  C 60 36.28  54.28 42  47 42  C 39.72 42  34 36.28  34 29  C 34 21.72  39.72 16  47 16  Z " fill-rule="nonzero" fill="#ffffff" stroke="none" />
    <path d="M 47 16.5  C 54 16.5  59.5 22  59.5 29  C 59.5 36  54 41.5  47 41.5  C 40 41.5  34.5 36  34.5 29  C 34.5 22  40 16.5  47 16.5  Z " stroke-width="1" stroke="#797979" fill="none" />
  </g>
</svg>