<svg width="143" height="30" viewBox="0 0 143 30" fill="none" xmlns="http://www.w3.org/2000/svg">
<g clip-path="url(#clip0_2_14)">
<path d="M30.9231 10.7561C31.641 10.8696 32 11.1594 32 11.6257C32 11.903 31.8333 12.2054 31.5 12.5331L24.5192 19.225L26.1731 28.6767C26.1859 28.765 26.1923 28.891 26.1923 29.0548C26.1923 29.3195 26.125 29.5432 25.9904 29.7259C25.8558 29.9086 25.6603 30 25.4038 30C25.1603 30 24.9038 29.9244 24.6346 29.7732L16 25.3119L7.36538 29.7732C7.08333 29.9244 6.82692 30 6.59615 30C6.32692 30 6.125 29.9086 5.99038 29.7259C5.85577 29.5432 5.78846 29.3195 5.78846 29.0548C5.78846 28.9792 5.80128 28.8532 5.82692 28.6767L7.48077 19.225L0.480769 12.5331C0.160256 12.1928 0 11.8904 0 11.6257C0 11.1594 0.358974 10.8696 1.07692 10.7561L10.7308 9.37618L15.0577 0.775047C15.3013 0.258349 15.6154 0 16 0C16.3846 0 16.6987 0.258349 16.9423 0.775047L21.2692 9.37618L30.9231 10.7561Z" fill="#EF9652"/>
</g>
<g clip-path="url(#clip1_2_14)">
<path d="M67.9231 10.7561C68.641 10.8696 69 11.1594 69 11.6257C69 11.903 68.8333 12.2054 68.5 12.5331L61.5192 19.225L63.1731 28.6767C63.1859 28.765 63.1923 28.891 63.1923 29.0548C63.1923 29.3195 63.125 29.5432 62.9904 29.7259C62.8558 29.9086 62.6603 30 62.4038 30C62.1603 30 61.9038 29.9244 61.6346 29.7732L53 25.3119L44.3654 29.7732C44.0833 29.9244 43.8269 30 43.5962 30C43.3269 30 43.125 29.9086 42.9904 29.7259C42.8558 29.5432 42.7885 29.3195 42.7885 29.0548C42.7885 28.9792 42.8013 28.8532 42.8269 28.6767L44.4808 19.225L37.4808 12.5331C37.1603 12.1928 37 11.8904 37 11.6257C37 11.1594 37.359 10.8696 38.0769 10.7561L47.7308 9.37618L52.0577 0.775047C52.3013 0.258349 52.6154 0 53 0C53.3846 0 53.6987 0.258349 53.9423 0.775047L58.2692 9.37618L67.9231 10.7561Z" fill="#EF9652"/>
</g>
<g clip-path="url(#clip2_2_14)">
<path d="M104.923 10.7561C105.641 10.8696 106 11.1594 106 11.6257C106 11.903 105.833 12.2054 105.5 12.5331L98.5192 19.225L100.173 28.6767C100.186 28.765 100.192 28.891 100.192 29.0548C100.192 29.3195 100.125 29.5432 99.9904 29.7259C99.8558 29.9086 99.6603 30 99.4038 30C99.1603 30 98.9038 29.9244 98.6346 29.7732L90 25.3119L81.3654 29.7732C81.0833 29.9244 80.8269 30 80.5962 30C80.3269 30 80.125 29.9086 79.9904 29.7259C79.8558 29.5432 79.7885 29.3195 79.7885 29.0548C79.7885 28.9792 79.8013 28.8532 79.8269 28.6767L81.4808 19.225L74.4808 12.5331C74.1603 12.1928 74 11.8904 74 11.6257C74 11.1594 74.359 10.8696 75.0769 10.7561L84.7308 9.37618L89.0577 0.775047C89.3013 0.258349 89.6154 0 90 0C90.3846 0 90.6987 0.258349 90.9423 0.775047L95.2692 9.37618L104.923 10.7561Z" fill="#EF9652"/>
</g>
<g clip-path="url(#clip3_2_14)">
<path d="M141.923 10.7561C142.641 10.8696 143 11.1594 143 11.6257C143 11.903 142.833 12.2054 142.5 12.5331L135.519 19.225L137.173 28.6767C137.186 28.765 137.192 28.891 137.192 29.0548C137.192 29.3195 137.125 29.5432 136.99 29.7259C136.856 29.9086 136.66 30 136.404 30C136.16 30 135.904 29.9244 135.635 29.7732L127 25.3119L118.365 29.7732C118.083 29.9244 117.827 30 117.596 30C117.327 30 117.125 29.9086 116.99 29.7259C116.856 29.5432 116.788 29.3195 116.788 29.0548C116.788 28.9792 116.801 28.8532 116.827 28.6767L118.481 19.225L111.481 12.5331C111.16 12.1928 111 11.8904 111 11.6257C111 11.1594 111.359 10.8696 112.077 10.7561L121.731 9.37618L126.058 0.775047C126.301 0.258349 126.615 0 127 0C127.385 0 127.699 0.258349 127.942 0.775047L132.269 9.37618L141.923 10.7561Z" fill="#EF9652"/>
</g>
<defs>
<clipPath id="clip0_2_14">
<rect width="32" height="30" fill="white"/>
</clipPath>
<clipPath id="clip1_2_14">
<rect width="32" height="30" fill="white" transform="translate(37)"/>
</clipPath>
<clipPath id="clip2_2_14">
<rect width="32" height="30" fill="white" transform="translate(74)"/>
</clipPath>
<clipPath id="clip3_2_14">
<rect width="32" height="30" fill="white" transform="translate(111)"/>
</clipPath>
</defs>
</svg>
