<svg version="1.1" id="Layer_1" xmlns="http://www.w3.org/2000/svg" xmlns:xlink="http://www.w3.org/1999/xlink" x="0px" y="0px"
	 width="100%" viewBox="0 0 263 146" enable-background="new 0 0 263 146" xml:space="preserve">
<path fill="#2F2B2C" opacity="1.000000" stroke="none" 
	d="
M238.000000,147.000000 
	C237.555557,147.000000 237.111099,147.000000 236.043762,146.700684 
	C234.103333,146.284393 232.785858,146.065414 231.468307,146.065079 
	C165.544739,146.048370 99.621170,146.043839 33.697643,146.090057 
	C32.131550,146.091156 30.565870,146.683441 29.000000,147.000000 
	C28.555555,147.000000 28.111111,147.000000 27.263124,146.631012 
	C13.700383,142.643188 5.231059,134.352692 1.850984,120.606903 
	C1.878104,89.067924 1.823625,57.996040 1.854494,26.552954 
	C4.979219,20.956676 7.100270,14.765252 11.306501,10.768049 
	C15.856342,6.444313 22.352657,4.168842 28.000000,1.000000 
	C97.354225,1.000000 166.708450,1.000000 236.696335,1.339200 
	C243.886047,2.904456 249.993668,5.560242 253.980148,10.811955 
	C257.960297,16.055351 260.710541,22.232315 264.000000,28.000000 
	C264.000000,58.687561 264.000000,89.375122 263.666504,120.683655 
	C261.202148,129.005264 257.294403,135.658081 250.696136,140.228287 
	C246.779587,142.941040 242.252548,144.772369 238.000000,147.000000 
M95.500046,5.867510 
	C75.840103,5.867511 56.180157,5.862136 36.520210,5.869061 
	C17.773956,5.875665 5.877660,17.672337 5.870068,36.275665 
	C5.859800,61.433754 5.859472,86.591850 5.870195,111.749947 
	C5.878033,130.136826 17.772535,142.124893 36.045994,142.128098 
	C100.357414,142.139343 164.668839,142.139633 228.980255,142.127914 
	C247.235107,142.124588 259.122498,130.121155 259.129913,111.723694 
	C259.139984,86.732208 258.568268,61.723621 259.325317,36.755089 
	C259.854553,19.301054 245.595810,5.426741 228.452271,5.664146 
	C184.475693,6.273141 140.485077,5.867510 95.500046,5.867510 
z"/>
<path fill="#FDFDFD" opacity="1.000000" stroke="none" 
	d="
M264.000000,27.531338 
	C260.710541,22.232315 257.960297,16.055351 253.980148,10.811955 
	C249.993668,5.560242 243.886047,2.904456 237.164993,1.339200 
	C245.926437,1.000000 254.852859,1.000000 264.000000,1.000000 
	C264.000000,9.686316 264.000000,18.374496 264.000000,27.531338 
z"/>
<path fill="#FDFDFD" opacity="1.000000" stroke="none" 
	d="
M27.531338,1.000000 
	C22.352657,4.168842 15.856342,6.444313 11.306501,10.768049 
	C7.100270,14.765252 4.979219,20.956676 1.654269,26.491409 
	C1.368695,26.801067 1.000000,27.000000 1.000000,27.000000 
	C1.000000,18.405525 1.000000,9.811052 1.000000,1.000000 
	C9.686362,1.000000 18.374519,1.000000 27.531338,1.000000 
z"/>
<path fill="#FDFDFD" opacity="1.000000" stroke="none" 
	d="
M1.769383,121.073990 
	C5.231059,134.352692 13.700383,142.643188 26.929790,146.631012 
	C18.406929,147.000000 9.813859,147.000000 1.000000,147.000000 
	C1.000000,138.647064 1.000000,130.292206 1.184631,121.567383 
	C1.369262,121.197433 1.769383,121.073990 1.769383,121.073990 
z"/>
<path fill="#FDFDFD" opacity="1.000000" stroke="none" 
	d="
M238.468658,147.000000 
	C242.252548,144.772369 246.779587,142.941040 250.696136,140.228287 
	C257.294403,135.658081 261.202148,129.005264 263.666504,121.152313 
	C264.000000,129.593063 264.000000,138.186142 264.000000,147.000000 
	C255.647064,147.000000 247.292206,147.000000 238.468658,147.000000 
z"/>
<path fill="#5B5859" opacity="1.000000" stroke="none" 
	d="
M29.468657,147.000000 
	C30.565870,146.683441 32.131550,146.091156 33.697643,146.090057 
	C99.621170,146.043839 165.544739,146.048370 231.468307,146.065079 
	C232.785858,146.065414 234.103333,146.284393 235.710419,146.700684 
	C167.312439,147.000000 98.624878,147.000000 29.468657,147.000000 
z"/>
<path fill="#C9C8C8" opacity="1.000000" stroke="none" 
	d="
M1.850984,120.606903 
	C1.769383,121.073990 1.369262,121.197433 1.184631,121.098717 
	C1.000000,89.979103 1.000000,58.958210 1.000000,27.468658 
	C1.000000,27.000000 1.368695,26.801067 1.568920,26.862610 
	C1.823625,57.996040 1.878104,89.067924 1.850984,120.606903 
z"/>
<path fill="#FFFEFE" opacity="1.000000" stroke="none" 
	d="
M96.000053,5.867510 
	C140.485077,5.867510 184.475693,6.273141 228.452271,5.664146 
	C245.595810,5.426741 259.854553,19.301054 259.325317,36.755089 
	C258.568268,61.723621 259.139984,86.732208 259.129913,111.723694 
	C259.122498,130.121155 247.235107,142.124588 228.980255,142.127914 
	C164.668839,142.139633 100.357414,142.139343 36.045994,142.128098 
	C17.772535,142.124893 5.878033,130.136826 5.870195,111.749947 
	C5.859472,86.591850 5.859800,61.433754 5.870068,36.275665 
	C5.877660,17.672337 17.773956,5.875665 36.520210,5.869061 
	C56.180157,5.862136 75.840103,5.867511 96.000053,5.867510 
M245.815628,105.075592 
	C245.879929,83.754189 246.038208,62.432499 245.972168,41.111500 
	C245.934494,28.947706 237.543152,19.790579 225.482681,18.861633 
	C218.704422,18.339542 211.867996,18.490862 205.057602,18.481808 
	C178.237015,18.446150 151.416229,18.421251 124.595726,18.479836 
	C96.615112,18.540953 68.634529,18.668034 40.654350,18.836519 
	C28.276299,18.911053 17.633253,30.490355 19.499193,42.009350 
	C21.265118,42.009350 23.079077,42.012844 24.893021,42.008827 
	C49.212856,41.954952 73.533531,41.756737 97.852211,41.898731 
	C112.605995,41.984875 124.536156,47.142960 130.359695,61.963627 
	C130.496918,62.312832 131.023895,62.508884 131.789597,63.102242 
	C132.282593,55.670132 132.746017,48.683678 133.185394,42.060047 
	C147.152054,42.060047 160.545044,42.060047 173.970490,42.060047 
	C173.257614,51.188824 172.585739,59.792629 171.913864,68.396431 
	C179.542831,60.625893 185.957199,52.535286 192.764496,44.790031 
	C194.269653,43.077496 197.145294,41.726585 199.422943,41.675236 
	C212.410187,41.382427 225.407471,41.522259 238.401245,41.551830 
	C239.618515,41.554600 240.835205,41.813416 242.390686,41.992275 
	C233.354385,51.424213 224.703918,60.453438 215.670532,69.882347 
	C225.683060,82.234863 235.302383,94.102264 243.994690,105.955605 
	C229.166809,105.969795 214.337814,105.890884 199.511887,106.068710 
	C196.132797,106.109238 194.134674,105.065666 192.230103,102.181190 
	C185.764282,92.388535 178.929337,82.839584 171.338425,71.905586 
	C170.694504,84.281181 170.131470,95.102242 169.568314,105.925781 
	C155.857971,105.925781 142.583481,105.925781 128.935318,105.925781 
	C129.522980,97.467796 130.092743,89.267250 130.736557,80.001076 
	C129.759995,81.670166 129.204041,82.435913 128.832581,83.282600 
	C121.857513,99.181084 109.336800,106.055237 92.366104,106.022919 
	C69.376564,105.979134 46.386681,106.104912 23.397003,106.175896 
	C21.966167,106.180313 20.535814,106.340744 19.147812,106.425980 
	C18.765188,119.102188 28.485538,129.159180 40.890678,129.154434 
	C94.702721,129.133820 148.514740,129.056976 202.326767,129.002686 
	C209.490875,128.995453 216.657562,129.123138 223.818527,128.972748 
	C236.545258,128.705475 245.921997,118.759689 245.815628,105.075592 
M59.853115,81.729752 
	C65.949730,81.437149 72.166603,81.774216 78.102592,80.640541 
	C82.380737,79.823486 86.135277,76.439323 85.823189,71.492989 
	C85.514717,66.603767 81.355270,64.535210 77.038460,64.179054 
	C71.489456,63.721241 65.874100,64.067703 59.949005,64.067703 
	C59.660492,69.964081 59.386822,75.557144 59.853115,81.729752 
z"/>
<path fill="#ED2129" opacity="1.000000" stroke="none" 
	d="
M244.921692,105.969658 
	C235.302383,94.102264 225.683060,82.234863 215.670532,69.882347 
	C224.703918,60.453438 233.354385,51.424213 242.390686,41.992275 
	C240.835205,41.813416 239.618515,41.554600 238.401245,41.551830 
	C225.407471,41.522259 212.410187,41.382427 199.422943,41.675236 
	C197.145294,41.726585 194.269653,43.077496 192.764496,44.790031 
	C185.957199,52.535286 179.542831,60.625893 171.913864,68.396431 
	C172.585739,59.792629 173.257614,51.188824 173.970490,42.060047 
	C160.545044,42.060047 147.152054,42.060047 133.185394,42.060047 
	C132.746017,48.683678 132.282593,55.670132 131.789597,63.102242 
	C131.023895,62.508884 130.496918,62.312832 130.359695,61.963627 
	C124.536156,47.142960 112.605995,41.984875 97.852211,41.898731 
	C73.533531,41.756737 49.212856,41.954952 24.893021,42.008827 
	C23.079077,42.012844 21.265118,42.009350 19.499193,42.009350 
	C17.633253,30.490355 28.276299,18.911053 40.654350,18.836519 
	C68.634529,18.668034 96.615112,18.540953 124.595726,18.479836 
	C151.416229,18.421251 178.237015,18.446150 205.057602,18.481808 
	C211.867996,18.490862 218.704422,18.339542 225.482681,18.861633 
	C237.543152,19.790579 245.934494,28.947706 245.972168,41.111500 
	C246.038208,62.432499 245.879929,83.754189 245.552307,105.536102 
	C245.289001,105.996605 244.921692,105.969658 244.921692,105.969658 
z"/>
<path fill="#ED1E26" opacity="1.000000" stroke="none" 
	d="
M244.458191,105.962631 
	C244.921692,105.969658 245.289001,105.996605 245.473145,105.998611 
	C245.921997,118.759689 236.545258,128.705475 223.818527,128.972748 
	C216.657562,129.123138 209.490875,128.995453 202.326767,129.002686 
	C148.514740,129.056976 94.702721,129.133820 40.890678,129.154434 
	C28.485538,129.159180 18.765188,119.102188 19.147812,106.425980 
	C20.535814,106.340744 21.966167,106.180313 23.397003,106.175896 
	C46.386681,106.104912 69.376564,105.979134 92.366104,106.022919 
	C109.336800,106.055237 121.857513,99.181084 128.832581,83.282600 
	C129.204041,82.435913 129.759995,81.670166 130.736557,80.001076 
	C130.092743,89.267250 129.522980,97.467796 128.935318,105.925781 
	C142.583481,105.925781 155.857971,105.925781 169.568314,105.925781 
	C170.131470,95.102242 170.694504,84.281181 171.338425,71.905586 
	C178.929337,82.839584 185.764282,92.388535 192.230103,102.181190 
	C194.134674,105.065666 196.132797,106.109238 199.511887,106.068710 
	C214.337814,105.890884 229.166809,105.969795 244.458191,105.962631 
z"/>
<path fill="#ED2028" opacity="1.000000" stroke="none" 
	d="
M59.483131,81.439980 
	C59.386822,75.557144 59.660492,69.964081 59.949005,64.067703 
	C65.874100,64.067703 71.489456,63.721241 77.038460,64.179054 
	C81.355270,64.535210 85.514717,66.603767 85.823189,71.492989 
	C86.135277,76.439323 82.380737,79.823486 78.102592,80.640541 
	C72.166603,81.774216 65.949730,81.437149 59.483131,81.439980 
z"/>
</svg>