<svg width="500" height="400" xmlns="http://www.w3.org/2000/svg">
  <g data-bx-workspace="master" xmlns="http://www.w3.org/2000/svg" xmlns:bx="https://boxy-svg.com" viewBox="0 0 500 500"><defs></defs><path opacity="1.000000" stroke="none" d="M 38.12 184.19 C 38.12 181.819 38.12 179.448 38.487 176.68 C 45.166 178.771 49.597 177.643 50.482 172.772 C 50.912 170.405 49.628 167.727 49.12 165.19 C 172.787 165.19 296.453 165.19 420.12 165.19 C 420.12 171.264 420.12 177.258 419.662 183.744 C 407.62 184.274 408.613 182.716 404.636 193.884 C 401.316 203.208 397.58 212.383 393.613 222.703 C 388.566 211.281 383.936 200.987 379.467 190.623 C 376.5 183.739 374.032 182.612 365.983 185.301 C 366.648 187.133 367.219 189.015 367.999 190.807 C 374.043 204.688 380.132 218.549 386.198 232.42 C 388.803 238.378 385.193 247.075 378.989 247.719 C 373.177 248.323 372.718 251.29 373.11 255.694 C 373.212 256.851 373.122 258.024 373.12 259.19 C 335.432 259.19 297.745 259.19 259.588 258.721 C 259.119 250.15 259.119 242.047 259.119 234.079 C 264.096 235.512 268.691 237.75 273.401 238.026 C 290.195 239.012 302.951 225.433 301.013 208.503 C 299.218 192.826 287.581 185.25 274.032 185.426 C 264.83 185.546 256.763 190.347 250.182 196.748 C 242.579 204.141 235.865 212.49 227.949 219.502 C 223.892 223.096 218.236 226.113 212.973 226.775 C 207.517 227.462 203.441 223.118 200.84 217.671 C 197.691 211.077 199.885 205.663 203.995 201.113 C 207.414 197.327 212.267 195.079 217.816 196.508 C 224.068 198.119 227.779 202.464 230.091 208.253 C 230.523 209.335 231.138 210.344 231.73 211.506 C 240.849 204.09 241.587 202.894 241.085 195.897 C 240.97 194.283 240.195 192.702 240.173 191.099 C 239.988 177.742 229.646 170.275 217.605 169.221 C 208.548 168.428 207.74 169.394 209.117 178.319 C 209.259 179.241 209.439 180.158 209.602 181.077 C 209.808 180.577 210.015 180.077 210.222 179.578 C 215.453 180.767 220.779 181.668 225.856 183.328 C 227.335 183.811 228.106 186.46 229.004 188.299 C 228.675 188.604 228.544 188.727 228.11 188.628 C 222.558 187.358 217.116 184.858 212.1 185.533 C 196.926 187.574 188.358 200.011 188.962 213.752 C 189.668 229.797 204.196 240.459 220.327 236.562 C 234.117 233.23 240.784 221.297 250.127 212.524 C 255.679 207.309 261.523 202.226 267.908 198.132 C 273.365 194.633 279.679 195.481 284.872 199.548 C 290.29 203.791 291.763 211.275 289.089 217.968 C 286.738 223.854 281.015 227.418 274.282 227.188 C 267.685 226.963 262.332 222.815 260.186 216.194 C 259.32 213.521 258.569 210.811 257.593 207.542 C 256.067 209.372 255.307 210.686 254.196 211.545 C 249.989 214.801 248.87 218.986 249.017 224.202 C 249.346 235.856 249.12 247.526 249.12 259.19 C 178.787 259.19 108.453 259.19 38.12 259.19 C 38.12 252.101 38.12 245.114 38.576 237.635 C 40.032 237.156 41.03 237.181 42.029 237.184 C 49.988 237.203 50.105 237.098 50.114 229.097 C 50.126 218.11 50.163 207.121 50.105 196.134 C 50.033 182.311 51.552 184.417 38.12 184.19 M 307.916 199.762 C 302.284 218.182 310.906 234.161 328.494 237.761 C 336.236 239.346 343.302 237.188 350.227 233.046 C 350.691 234.003 350.899 235.175 351.378 235.299 C 354.086 236 356.857 236.765 359.613 236.791 C 360.423 236.798 361.956 234.475 361.97 233.206 C 362.138 218.223 362.06 203.236 362.096 188.25 C 362.103 185.208 360.535 184.147 357.717 184.197 C 354.592 184.252 351.151 183.53 350.57 188.148 C 334.15 177.94 315.082 183.605 307.916 199.762 M 58.153 208.69 C 58.147 216.508 58.264 224.33 58.085 232.144 C 57.992 236.187 59.873 237.275 63.559 237.251 C 67.105 237.228 69.3 236.489 69.155 232.299 C 68.959 226.65 68.96 220.983 69.169 215.334 C 69.333 210.887 69.301 206.275 70.497 202.06 C 72.393 195.376 78.454 192.198 85.285 193.328 C 90.686 194.222 94.04 198.957 94.098 206.031 C 94.169 214.681 94.239 223.334 94.077 231.981 C 94.004 235.858 95.482 237.427 99.362 237.211 C 103.647 236.973 105.516 234.262 104.959 228.768 C 104.675 225.977 104.457 223.174 104.371 220.372 C 104.141 212.945 104.604 205.439 103.663 198.109 C 102.609 189.9 94.315 183.197 86.01 183.321 C 81.295 183.391 76.608 184.712 71.885 185.278 C 70.624 185.429 69.212 185.058 67.982 184.614 C 61.527 182.281 58.149 184.499 58.127 191.221 C 58.11 196.71 58.142 202.2 58.153 208.69 M 129.718 228.107 C 123.878 227.627 119.77 224.692 117.161 218.232 C 114.345 220.36 110.497 221.825 109.958 224.08 C 109.42 226.335 111.65 229.886 113.613 231.985 C 120.22 239.051 133.988 240.364 142.286 234.999 C 147.017 231.941 150.184 227.616 149.954 221.788 C 149.714 215.707 147.014 210.878 140.955 208.638 C 137.531 207.372 134.032 206.312 130.556 205.19 C 128.662 204.579 126.453 204.442 124.924 203.343 C 123.362 202.221 121.494 200.151 121.545 198.554 C 121.594 197.014 123.639 194.912 125.304 194.167 C 130.414 191.882 135.989 193.352 138.875 198.076 C 141.61 202.553 143.675 199.407 146.149 198.233 C 149.279 196.748 149.05 194.778 147.5 192.184 C 142.924 184.527 132.663 181.004 122.823 183.854 C 115.539 185.964 111.296 191.354 111.085 198.766 C 110.865 206.482 113.577 210.313 121.533 213.121 C 125.453 214.504 129.667 215.198 133.375 216.98 C 135.59 218.045 137.083 220.613 138.901 222.504 C 136.93 224.246 135.018 226.062 132.95 227.68 C 132.38 228.127 131.346 227.982 129.718 228.107 M 174.411 237.31 C 176.873 237.282 179.336 237.192 181.797 237.241 C 185.029 237.305 185.985 235.663 186.179 232.601 C 186.479 227.868 184.046 227.095 180.072 227.133 C 172.551 227.204 172.165 226.681 172.125 219.23 C 172.098 214.232 172.118 209.234 172.119 204.236 C 172.119 194.756 172.115 194.665 181.54 194.223 C 184.609 194.079 185.973 193.055 186.172 189.822 C 186.451 185.321 184.504 184.071 180.292 184.118 C 172.219 184.209 172.296 184.025 172.06 176.402 C 172.002 174.534 171.295 171.116 170.795 171.099 C 168.449 171.02 165.622 171.277 163.856 172.601 C 162.562 173.572 162.144 176.4 162.221 178.367 C 162.386 182.621 160.93 184.691 156.483 184.204 C 152.769 183.797 151.049 185.24 151.044 189.273 C 151.038 193.468 153.103 194.523 156.652 194.179 C 160.773 193.779 162.275 195.59 162.174 199.686 C 161.972 207.845 162.066 216.013 162.141 224.176 C 162.215 232.213 165.474 235.857 174.411 237.31 Z" style="fill: rgb(255, 255, 255);"></path><path fill="#EC1C2C" opacity="1.000000" stroke="none" d="M 249.574 259.19 C 249.12 247.526 249.346 235.856 249.017 224.202 C 248.87 218.986 249.989 214.801 254.196 211.545 C 255.307 210.686 256.067 209.372 257.593 207.542 C 258.569 210.811 259.32 213.521 260.186 216.194 C 262.332 222.815 267.685 226.963 274.282 227.188 C 281.015 227.418 286.738 223.854 289.089 217.968 C 291.763 211.275 290.29 203.791 284.872 199.548 C 279.679 195.481 273.365 194.633 267.908 198.132 C 261.523 202.226 255.679 207.309 250.127 212.524 C 240.784 221.297 234.117 233.23 220.327 236.562 C 204.196 240.459 189.668 229.797 188.962 213.752 C 188.358 200.011 196.926 187.574 212.1 185.533 C 217.116 184.858 222.558 187.358 228.297 188.844 C 229.159 189.398 229.529 189.516 229.9 189.633 C 229.667 189.127 229.434 188.622 229.201 188.116 C 228.106 186.46 227.335 183.811 225.856 183.328 C 220.779 181.668 215.453 180.767 210.222 179.578 C 210.015 180.077 209.808 180.577 209.602 181.077 C 209.439 180.158 209.259 179.241 209.117 178.319 C 207.74 169.394 208.548 168.428 217.605 169.221 C 229.646 170.275 239.988 177.742 240.173 191.099 C 240.195 192.702 240.97 194.283 241.085 195.897 C 241.587 202.894 240.849 204.09 231.73 211.506 C 231.138 210.344 230.523 209.335 230.091 208.253 C 227.779 202.464 224.068 198.119 217.816 196.508 C 212.267 195.079 207.414 197.327 203.995 201.113 C 199.885 205.663 197.691 211.077 200.84 217.671 C 203.441 223.118 207.517 227.462 212.973 226.775 C 218.236 226.113 223.892 223.096 227.949 219.502 C 235.865 212.49 242.579 204.141 250.182 196.748 C 256.763 190.347 264.83 185.546 274.032 185.426 C 287.581 185.25 299.218 192.826 301.013 208.503 C 302.951 225.433 290.195 239.012 273.401 238.026 C 268.691 237.75 264.096 235.512 259.119 234.079 C 259.119 242.047 259.119 250.15 259.12 258.721 C 256.089 259.19 253.059 259.19 249.574 259.19 Z"></path><path fill="#262626" opacity="1.000000" stroke="none" d="M 373.574 259.19 C 373.122 258.024 373.212 256.851 373.11 255.694 C 372.718 251.29 373.177 248.323 378.989 247.719 C 385.193 247.075 388.803 238.378 386.198 232.42 C 380.132 218.549 374.043 204.688 367.999 190.807 C 367.219 189.015 366.648 187.133 365.983 185.301 C 374.032 182.612 376.5 183.739 379.467 190.623 C 383.936 200.987 388.566 211.281 393.613 222.703 C 397.58 212.383 401.316 203.208 404.636 193.884 C 408.613 182.716 407.62 184.274 419.662 184.213 C 420.12 184.94 420.12 185.69 419.784 186.912 C 418.694 188.433 417.674 189.378 417.224 190.544 C 412.554 202.614 408.199 214.81 403.299 226.783 C 399.865 235.173 396.109 243.489 391.707 251.398 C 389.927 254.597 386.045 256.627 383.12 259.19 C 380.089 259.19 377.059 259.19 373.574 259.19 Z"></path><path fill="#262626" opacity="1.000000" stroke="none" d="M 38.12 184.658 C 51.552 184.417 50.033 182.311 50.105 196.134 C 50.163 207.121 50.126 218.11 50.114 229.097 C 50.105 237.098 49.988 237.203 42.029 237.184 C 41.03 237.181 40.032 237.156 38.576 237.166 C 38.12 219.835 38.12 202.481 38.12 184.658 Z"></path><path fill="#262626" opacity="1.000000" stroke="none" d="M 48.637 165.19 C 49.628 167.727 50.912 170.405 50.482 172.772 C 49.597 177.643 45.166 178.771 38.487 176.236 C 38.12 172.602 38.12 169.015 38.12 165.19 C 41.462 165.19 44.808 165.19 48.637 165.19 Z"></path><path fill="#262626" opacity="1.000000" stroke="none" d="M 308.067 199.404 C 315.082 183.605 334.15 177.94 350.57 188.148 C 351.151 183.53 354.592 184.252 357.717 184.197 C 360.535 184.147 362.103 185.208 362.096 188.25 C 362.06 203.236 362.138 218.223 361.97 233.206 C 361.956 234.475 360.423 236.798 359.613 236.791 C 356.857 236.765 354.086 236 351.378 235.299 C 350.899 235.175 350.691 234.003 350.227 233.046 C 343.302 237.188 336.236 239.346 328.494 237.761 C 310.906 234.161 302.284 218.182 308.067 199.404 M 317.116 206.763 C 315.487 215.617 320.176 224.401 327.833 226.839 C 336.292 229.532 344.97 226.245 348.741 218.919 C 353.825 209.041 349.992 198.313 339.883 194.13 C 330.653 190.31 320.858 195.434 317.116 206.763 Z"></path><path fill="#262626" opacity="1.000000" stroke="none" d="M 58.152 208.19 C 58.142 202.2 58.11 196.71 58.127 191.221 C 58.149 184.499 61.527 182.281 67.982 184.614 C 69.212 185.058 70.624 185.429 71.885 185.278 C 76.608 184.712 81.295 183.391 86.01 183.321 C 94.315 183.197 102.609 189.9 103.663 198.109 C 104.604 205.439 104.141 212.945 104.371 220.372 C 104.457 223.174 104.675 225.977 104.959 228.768 C 105.516 234.262 103.647 236.973 99.362 237.211 C 95.482 237.427 94.004 235.858 94.077 231.981 C 94.239 223.334 94.169 214.681 94.098 206.031 C 94.04 198.957 90.686 194.222 85.285 193.328 C 78.454 192.198 72.393 195.376 70.497 202.06 C 69.301 206.275 69.333 210.887 69.169 215.334 C 68.96 220.983 68.959 226.65 69.155 232.299 C 69.3 236.489 67.105 237.228 63.559 237.251 C 59.873 237.275 57.992 236.187 58.085 232.144 C 58.264 224.33 58.147 216.508 58.152 208.19 Z"></path><path fill="#262626" opacity="1.000000" stroke="none" d="M 130.122 228.108 C 131.346 227.982 132.38 228.127 132.95 227.68 C 135.018 226.062 136.93 224.246 138.901 222.504 C 137.083 220.613 135.59 218.045 133.375 216.98 C 129.667 215.198 125.453 214.504 121.533 213.121 C 113.577 210.313 110.865 206.482 111.085 198.766 C 111.296 191.354 115.539 185.964 122.823 183.854 C 132.663 181.004 142.924 184.527 147.5 192.184 C 149.05 194.778 149.279 196.748 146.149 198.233 C 143.675 199.407 141.61 202.553 138.875 198.076 C 135.989 193.352 130.414 191.882 125.304 194.167 C 123.639 194.912 121.594 197.014 121.545 198.554 C 121.494 200.151 123.362 202.221 124.924 203.343 C 126.453 204.442 128.662 204.579 130.556 205.19 C 134.032 206.312 137.531 207.372 140.955 208.638 C 147.014 210.878 149.714 215.707 149.954 221.788 C 150.184 227.616 147.017 231.941 142.286 234.999 C 133.988 240.364 120.22 239.051 113.613 231.985 C 111.65 229.886 109.42 226.335 109.958 224.08 C 110.497 221.825 114.345 220.36 117.161 218.232 C 119.77 224.692 123.878 227.627 130.122 228.108 Z"></path><path fill="#262626" opacity="1.000000" stroke="none" d="M 174.006 237.269 C 165.474 235.857 162.215 232.213 162.141 224.176 C 162.066 216.013 161.972 207.845 162.174 199.686 C 162.275 195.59 160.773 193.779 156.652 194.179 C 153.103 194.523 151.038 193.468 151.044 189.273 C 151.049 185.24 152.769 183.797 156.483 184.204 C 160.93 184.691 162.386 182.621 162.221 178.367 C 162.144 176.4 162.562 173.572 163.856 172.601 C 165.622 171.277 168.449 171.02 170.795 171.099 C 171.295 171.116 172.002 174.534 172.06 176.402 C 172.296 184.025 172.219 184.209 180.292 184.118 C 184.504 184.071 186.451 185.321 186.172 189.822 C 185.973 193.055 184.609 194.079 181.54 194.223 C 172.115 194.665 172.119 194.756 172.119 204.236 C 172.118 209.234 172.098 214.232 172.125 219.23 C 172.165 226.681 172.551 227.204 180.072 227.133 C 184.046 227.095 186.479 227.868 186.179 232.601 C 185.985 235.663 185.029 237.305 181.797 237.241 C 179.336 237.192 176.873 237.282 174.006 237.269 Z"></path><path fill="#000000" opacity="1.000000" stroke="none" d="M 229.004 188.299 C 229.434 188.622 229.667 189.127 229.9 189.633 C 229.529 189.516 229.159 189.398 228.601 189.066 C 228.544 188.727 228.675 188.604 229.004 188.299 Z"></path></g>
</svg>
