<svg version="1.1" id="Layer_1" xmlns="http://www.w3.org/2000/svg" xmlns:xlink="http://www.w3.org/1999/xlink" x="0px" y="0px"
	 width="100%" viewBox="0 0 592 336" enable-background="new 0 0 592 336" xml:space="preserve">
<path fill="#000000" opacity="1.000000" stroke="none" 
	d="
M371.454987,128.136963 
	C389.743256,126.553764 407.417908,126.798553 425.846375,132.590500 
	C422.834656,134.764786 420.894409,134.011719 419.035950,133.781769 
	C404.952759,132.039261 391.138367,133.484619 377.455536,137.032761 
	C374.225677,137.870300 373.360809,139.696213 373.286163,142.785248 
	C372.989929,155.044235 372.914825,155.029785 360.691498,155.075851 
	C350.065125,155.115891 351.366608,154.270432 351.326294,164.475830 
	C351.270294,178.641830 351.202057,192.809647 351.384460,206.973541 
	C351.437561,211.094925 350.052765,212.770676 345.899841,212.417664 
	C342.920685,212.164413 339.891327,212.172287 336.907349,212.385254 
	C332.902557,212.671082 331.691315,210.844376 331.724030,207.068268 
	C331.843872,193.236450 331.761383,179.402878 331.755371,165.569977 
	C331.754517,163.593964 331.755249,161.617950 331.755249,159.566956 
	C329.171387,159.405716 327.677155,160.896713 326.040192,161.893387 
	C305.590485,174.344360 284.250916,184.752502 260.824921,190.363281 
	C258.243011,190.981644 256.896667,192.461624 256.077057,194.893127 
	C254.534698,199.468765 252.819382,203.987518 251.106461,208.503555 
	C250.470230,210.180908 250.003555,212.230011 247.655182,212.257477 
	C241.890442,212.324905 236.124374,212.279510 230.063690,212.279510 
	C230.456238,205.921524 234.157944,201.346313 234.858749,195.973328 
	C232.040237,194.089157 228.827805,197.123260 225.878799,194.761353 
	C227.530930,192.305634 230.213013,192.318466 232.457916,191.977997 
	C236.029785,191.436264 237.920578,189.619446 239.178024,186.272629 
	C244.626129,171.771927 250.382141,157.386795 255.811630,142.879349 
	C257.189880,139.196747 258.822906,136.950165 263.242798,137.284195 
	C267.541656,137.609070 271.903931,137.344315 276.222595,137.080582 
	C279.841980,136.859558 281.646729,138.561798 282.842102,141.787292 
	C285.722534,149.559601 288.824005,157.250000 292.163757,165.812866 
	C297.939758,161.882202 303.222260,158.522003 308.225464,154.787643 
	C310.892456,152.797028 309.626953,149.498215 309.683380,146.776596 
	C309.895508,136.547928 308.267761,137.112854 319.386719,137.104706 
	C324.716980,137.100800 330.049652,137.169739 335.376465,137.347809 
	C337.275757,137.411285 339.035339,137.097183 340.714264,136.333145 
	C350.364014,131.941803 360.584686,129.704666 371.454987,128.136963 
M271.368896,163.385406 
	C270.762085,162.176178 270.155243,160.966934 269.192352,159.048126 
	C266.240814,167.182281 263.588806,174.490982 260.586853,182.764053 
	C262.609406,181.746262 263.483887,181.290451 264.371552,180.861877 
	C275.483978,175.497116 275.484467,175.498154 271.368896,163.385406 
z"/>
<path fill="#000000" opacity="1.000000" stroke="none" 
	d="
M180.208588,189.526337 
	C183.519775,196.084534 195.426300,199.675125 201.171616,196.223083 
	C203.181671,195.015366 202.700378,193.044998 202.704758,191.292389 
	C202.744614,175.293472 202.910309,159.291229 202.626785,143.297272 
	C202.538620,138.324600 204.379028,136.988678 208.999786,137.057556 
	C225.206970,137.299194 222.140533,135.639923 222.278137,150.212570 
	C222.448059,168.209793 222.169403,186.212082 222.432343,204.207108 
	C222.501236,208.921967 220.749084,210.700958 216.333786,211.334579 
	C204.287674,213.063278 192.242996,215.146774 180.124878,212.408478 
	C166.700211,209.374939 159.697449,200.436737 159.642792,186.689560 
	C159.583832,171.857346 159.698578,157.024078 159.568100,142.192780 
	C159.537048,138.663254 160.359573,136.867065 164.338211,137.310165 
	C166.957199,137.601837 169.654602,137.114349 172.317520,137.101212 
	C178.863251,137.068924 179.169662,137.365936 179.182114,143.752014 
	C179.205841,155.917877 179.163666,168.083923 179.212891,180.249649 
	C179.224945,183.230408 178.929947,186.266342 180.208588,189.526337 
z"/>
<path fill="#000000" opacity="1.000000" stroke="none" 
	d="
M431.680450,186.906052 
	C425.265991,190.176743 418.763000,191.421585 412.003937,191.145172 
	C408.544617,191.003708 407.176544,192.280060 407.340424,195.771561 
	C407.535431,199.927719 407.268494,204.103683 407.382172,208.266144 
	C407.464874,211.295364 406.115326,212.439728 403.186890,212.380859 
	C384.776978,212.010803 388.083130,214.985275 387.902191,198.261017 
	C387.709290,180.432526 388.045715,162.596161 387.677490,144.773026 
	C387.566315,139.392181 389.322693,137.315231 394.522491,137.057648 
	C404.306641,136.572952 414.040924,134.836609 423.839233,137.335266 
	C435.200104,140.232376 442.420319,147.034973 443.999603,158.757095 
	C445.551422,170.274979 442.830841,180.330292 431.680450,186.906052 
M407.388580,161.625244 
	C407.382812,164.445755 407.355194,167.266464 407.380981,170.086685 
	C407.393036,171.404648 407.368225,172.718399 408.846039,173.497665 
	C411.809570,175.060303 419.890198,173.341293 422.340729,170.549362 
	C425.237549,167.248993 425.413391,161.723282 422.738800,158.040619 
	C420.405518,154.827972 413.520020,152.855576 409.515503,154.274139 
	C406.077209,155.492126 407.858093,158.466141 407.388580,161.625244 
z"/>
<path fill="#000000" opacity="1.000000" stroke="none" 
	d="
M291.827332,182.741028 
	C296.082214,180.119064 298.218048,181.066772 299.741089,185.589050 
	C302.636993,194.187607 306.650482,202.400314 309.457825,211.978424 
	C302.574432,212.618744 296.347534,212.497757 290.138672,212.076645 
	C288.213287,211.946060 287.786957,209.888428 287.230347,208.360947 
	C285.238922,202.895966 283.480682,197.341019 281.333221,191.939758 
	C280.037598,188.681061 280.872925,187.003891 284.113831,185.952118 
	C286.633453,185.134460 289.023468,183.917496 291.827332,182.741028 
z"/>
<path fill="#000000" opacity="1.000000" stroke="none" 
	d="
M438.533356,127.594757 
	C441.866028,128.610947 443.359894,130.728210 442.811676,133.717468 
	C442.324677,136.372833 440.479614,138.104523 437.610535,138.306030 
	C434.930450,138.494263 433.163361,137.076691 432.172394,134.738220 
	C430.588745,131.001160 433.055145,128.082092 438.533356,127.594757 
z"/>
</svg>