<svg width="25" height="25" viewBox="0 0 25 25" fill="none" xmlns="http://www.w3.org/2000/svg">
<mask id="mask0_530_32" style="mask-type:alpha" maskUnits="userSpaceOnUse" x="0" y="0" width="25" height="25">
<rect x="0.765625" y="0.187256" width="24.0223" height="24" fill="#D9D9D9"/>
</mask>
<g mask="url(#mask0_530_32)">
<path d="M12.8259 20.1873C10.5905 20.1873 8.68873 19.4123 7.1206 17.8623C5.55248 16.3123 4.76842 14.4206 4.76842 12.1873V12.0123L3.16693 13.6123L1.76562 12.2123L5.76935 8.21226L9.77307 12.2123L8.37177 13.6123L6.77028 12.0123V12.1873C6.77028 13.8539 7.35832 15.2706 8.53442 16.4373C9.71051 17.6039 11.141 18.1873 12.8259 18.1873C13.2596 18.1873 13.685 18.1373 14.1021 18.0373C14.5191 17.9373 14.9279 17.7873 15.3282 17.5873L16.8296 19.0873C16.1957 19.4539 15.5451 19.7289 14.8778 19.9123C14.2105 20.0956 13.5266 20.1873 12.8259 20.1873ZM19.7824 16.1623L15.7786 12.1623L17.18 10.7623L18.7814 12.3623V12.1873C18.7814 10.5206 18.1934 9.10392 17.0173 7.93726C15.8412 6.77059 14.4107 6.18726 12.7258 6.18726C12.2921 6.18726 11.8667 6.23726 11.4496 6.33726C11.0326 6.43726 10.6239 6.58726 10.2235 6.78726L8.72209 5.28726C9.35601 4.92059 10.0066 4.64559 10.6739 4.46226C11.3412 4.27892 12.0252 4.18726 12.7258 4.18726C14.9612 4.18726 16.863 4.96226 18.4311 6.51226C19.9992 8.06226 20.7833 9.95392 20.7833 12.1873V12.3623L22.3848 10.7623L23.7861 12.1623L19.7824 16.1623Z" fill="#333333"/>
</g>
</svg>
