<svg width="25" height="24" viewBox="0 0 25 24" fill="none" xmlns="http://www.w3.org/2000/svg">
<mask id="mask0_530_44" style="mask-type:alpha" maskUnits="userSpaceOnUse" x="0" y="0" width="25" height="24">
<rect x="0.222656" width="24.0223" height="24" fill="#D9D9D9"/>
</mask>
<g mask="url(#mask0_530_44)">
<path d="M12.2329 16C13.4841 16 14.5475 15.5625 15.4234 14.6875C16.2992 13.8125 16.7371 12.75 16.7371 11.5C16.7371 10.25 16.2992 9.1875 15.4234 8.3125C14.5475 7.4375 13.4841 7 12.2329 7C10.9817 7 9.91824 7.4375 9.04242 8.3125C8.16661 9.1875 7.7287 10.25 7.7287 11.5C7.7287 12.75 8.16661 13.8125 9.04242 14.6875C9.91824 15.5625 10.9817 16 12.2329 16ZM12.2329 14.2C11.4822 14.2 10.8441 13.9375 10.3186 13.4125C9.79312 12.8875 9.53038 12.25 9.53038 11.5C9.53038 10.75 9.79312 10.1125 10.3186 9.5875C10.8441 9.0625 11.4822 8.8 12.2329 8.8C12.9836 8.8 13.6217 9.0625 14.1472 9.5875C14.6727 10.1125 14.9354 10.75 14.9354 11.5C14.9354 12.25 14.6727 12.8875 14.1472 13.4125C13.6217 13.9375 12.9836 14.2 12.2329 14.2ZM12.2329 19C9.79729 19 7.57856 18.3208 5.5767 16.9625C3.57484 15.6042 2.12349 13.7833 1.22266 11.5C2.12349 9.21667 3.57484 7.39583 5.5767 6.0375C7.57856 4.67917 9.79729 4 12.2329 4C14.6685 4 16.8872 4.67917 18.8891 6.0375C20.8909 7.39583 22.3423 9.21667 23.2431 11.5C22.3423 13.7833 20.8909 15.6042 18.8891 16.9625C16.8872 18.3208 14.6685 19 12.2329 19ZM12.2329 17C14.118 17 15.8488 16.5042 17.4252 15.5125C19.0017 14.5208 20.207 13.1833 21.0411 11.5C20.207 9.81667 19.0017 8.47917 17.4252 7.4875C15.8488 6.49583 14.118 6 12.2329 6C10.3478 6 8.61703 6.49583 7.04056 7.4875C5.4641 8.47917 4.25881 9.81667 3.4247 11.5C4.25881 13.1833 5.4641 14.5208 7.04056 15.5125C8.61703 16.5042 10.3478 17 12.2329 17Z" fill="#333333"/>
</g>
</svg>
