<svg width="198" height="198" viewBox="0 0 198 198" fill="none" xmlns="http://www.w3.org/2000/svg">
<mask id="mask0_750_49" style="mask-type:alpha" maskUnits="userSpaceOnUse" x="0" y="0" width="198" height="198">
<rect width="198" height="198" fill="#D9D9D9"/>
</mask>
<g mask="url(#mask0_750_49)">
<path d="M87.4481 136.95L145.611 78.7875L134.061 67.2375L87.4481 113.85L63.9355 90.3375L52.3855 101.888L87.4481 136.95ZM98.998 181.5C87.5855 181.5 76.8605 179.334 66.823 175.003C56.7855 170.672 48.0543 164.794 40.6293 157.369C33.2043 149.944 27.3262 141.213 22.9949 131.175C18.6637 121.138 16.498 110.413 16.498 99C16.498 87.5875 18.6637 76.8625 22.9949 66.825C27.3262 56.7875 33.2043 48.0563 40.6293 40.6313C48.0543 33.2063 56.7855 27.3281 66.823 22.9969C76.8605 18.6656 87.5855 16.5 98.998 16.5C110.411 16.5 121.136 18.6656 131.173 22.9969C141.211 27.3281 149.942 33.2063 157.367 40.6313C164.792 48.0563 170.67 56.7875 175.001 66.825C179.332 76.8625 181.498 87.5875 181.498 99C181.498 110.413 179.332 121.138 175.001 131.175C170.67 141.213 164.792 149.944 157.367 157.369C149.942 164.794 141.211 170.672 131.173 175.003C121.136 179.334 110.411 181.5 98.998 181.5ZM98.998 165C117.423 165 133.029 158.606 145.817 145.819C158.604 133.031 164.998 117.425 164.998 99C164.998 80.575 158.604 64.9688 145.817 52.1813C133.029 39.3938 117.423 33 98.998 33C80.573 33 64.9668 39.3938 52.1793 52.1813C39.3918 64.9688 32.998 80.575 32.998 99C32.998 117.425 39.3918 133.031 52.1793 145.819C64.9668 158.606 80.573 165 98.998 165Z" fill="#333333"/>
</g>
</svg>
