<?xml version="1.0" encoding="utf-8"?>
<svg version="1.1" xmlns:xlink="http://www.w3.org/1999/xlink" width="24px" height="26px" xmlns="http://www.w3.org/2000/svg">
  <g transform="matrix(1 0 0 1 -1223 -731 )">
    <path d="M 1.7142857142857135 17.32198952879581  C 0.5714285714285694 18.433682373472948  0 19.76657940663176  0 21.32068062827225  C 0 22.647905759162303  0.4514285714285693 23.75959860383944  1.3542857142857132 24.655759162303664  C 2.2571428571428545 25.551919720767888  3.3771428571428563 26  4.7142857142857135 26  C 6.257142857142856 26  7.6 25.43280977312391  8.742857142857144 24.298429319371728  L 22.06285714285714 11.094240837696336  C 23.354285714285716 9.789703315881324  24 8.252617801047121  24 6.4829842931937165  C 24 4.6793193717277495  23.37142857142857 3.1479057591623034  22.114285714285714 1.8887434554973808  C 20.857142857142858 0.6295811518324612  19.32 0  17.502857142857145 0  C 15.697142857142856 0  14.137142857142857 0.6409249563699786  12.822857142857142 1.9227748691099473  L 2.45142857142857 12.234293193717278  C 2.3371428571428563 12.347731239092495  2.2799999999999994 12.472513089005236  2.2799999999999994 12.608638743455495  C 2.2799999999999994 12.790139616055846  2.454285714285712 13.05388307155323  2.8028571428571425 13.399869109947645  C 3.1514285714285704 13.74585514834206  3.4171428571428546 13.918848167539268  3.6000000000000005 13.918848167539268  C 3.7485714285714264 13.918848167539268  3.879999999999999 13.862129144851655  3.9942857142857155 13.748691099476442  L 14.382857142857144 3.420157068062827  C 15.285714285714285 2.5466841186736455  16.32 2.1099476439790577  17.485714285714288 2.1099476439790577  C 18.697142857142858 2.1099476439790577  19.72 2.5353403141361253  20.554285714285715 3.3861256544502605  C 21.388571428571428 4.236910994764399  21.805714285714288 5.263525305410121  21.805714285714288 6.465968586387433  C 21.805714285714288 7.657068062827226  21.37142857142857 8.683682373472948  20.502857142857145 9.545811518324607  L 7.200000000000001 22.767015706806284  C 6.48 23.48167539267016  5.6514285714285695 23.839005235602095  4.7142857142857135 23.839005235602095  C 3.9828571428571404 23.839005235602095  3.3771428571428563 23.600785340314136  2.897142857142856 23.12434554973822  C 2.417142857142858 22.647905759162303  2.177142857142858 22.04668411867365  2.177142857142858 21.32068062827225  C 2.177142857142858 20.390488656195462  2.5371428571428583 19.56806282722513  3.2571428571428562 18.85340314136126  L 13.217142857142857 8.967277486910994  C 13.514285714285714 8.69502617801047  13.857142857142856 8.558900523560212  14.245714285714287 8.558900523560212  C 14.577142857142857 8.558900523560212  14.851428571428569 8.666666666666664  15.06857142857143 8.882198952879582  C 15.285714285714285 9.097731239092495  15.394285714285715 9.369982547993018  15.394285714285715 9.698952879581153  C 15.394285714285715 10.061954624781848  15.251428571428573 10.396596858638745  14.965714285714284 10.702879581151832  L 7.937142857142858 17.67931937172775  C 7.822857142857141 17.792757417102962  7.765714285714284 17.917539267015705  7.765714285714287 18.05366492146597  C 7.765714285714284 18.235165794066315  7.942857142857141 18.50174520069808  8.297142857142859 18.85340314136126  C 8.65142857142857 19.20506108202443  8.919999999999998 19.38089005235602  9.102857142857143 19.38089005235602  C 9.239999999999998 19.38089005235602  9.365714285714283 19.32417102966841  9.48 19.210732984293195  L 16.50857142857143 12.234293193717278  C 17.228571428571428 11.542321116928445  17.588571428571427 10.697207678883071  17.588571428571427 9.698952879581153  C 17.588571428571427 8.768760907504362  17.262857142857143 7.980366492146596  16.611428571428572 7.333769633507854  C 15.96 6.6871727748691105  15.165714285714284 6.363874345549739  14.228571428571428 6.363874345549739  C 13.22285714285714 6.363874345549739  12.37142857142857 6.721204188481674  11.674285714285714 7.435863874345548  L 1.7142857142857135 17.32198952879581  Z " fill-rule="nonzero" fill="#333333" stroke="none" fill-opacity="0.6392156862745098" transform="matrix(1 0 0 1 1223 731 )" />
  </g>
</svg>