<?xml version="1.0" encoding="utf-8"?>
<svg version="1.1" xmlns:xlink="http://www.w3.org/1999/xlink" width="29px" height="29px" xmlns="http://www.w3.org/2000/svg">
  <g transform="matrix(1 0 0 1 -1287 -30 )">
    <path d="M 17.917317708333332 17.917317708333336  C 18.861328125 16.973307291666664  19.333333333333332 15.834201388888888  19.333333333333332 14.5  C 19.333333333333332 13.165798611111109  18.861328125 12.026692708333332  17.917317708333332 11.082682291666668  C 16.973307291666668 10.138671875  15.834201388888891 9.666666666666668  14.5 9.666666666666668  C 13.165798611111112 9.666666666666668  12.026692708333334 10.138671875  11.082682291666666 11.082682291666668  C 10.138671875 12.026692708333332  9.666666666666666 13.165798611111109  9.666666666666666 14.5  C 9.666666666666666 15.834201388888888  10.138671875 16.973307291666664  11.082682291666666 17.917317708333336  C 12.026692708333334 18.861328125  13.165798611111112 19.333333333333336  14.5 19.333333333333336  C 15.834201388888891 19.333333333333336  16.973307291666668 18.861328125  17.917317708333332 17.917317708333336  Z M 28.848958333333332 11.998372395833332  C 28.949652777777775 12.130533854166668  29 12.278428819444445  29 12.442057291666668  L 29 16.633463541666664  C 29 16.784505208333336  28.949652777777775 16.929253472222225  28.848958333333332 17.067708333333336  C 28.748263888888893 17.20616319444444  28.622395833333332 17.287977430555554  28.471354166666668 17.313151041666664  L 24.978515625 17.841796875  C 24.739366319444446 18.521484375  24.493923611111114 19.094184027777775  24.2421875 19.559895833333336  C 24.682725694444446 20.18923611111111  25.356119791666668 21.05772569444444  26.262369791666668 22.165364583333332  C 26.388237847222225 22.31640625  26.451171875 22.473741319444443  26.451171875 22.637369791666668  C 26.451171875 22.800998263888893  26.39453125 22.945746527777775  26.28125 23.071614583333332  C 25.94140625 23.537326388888893  25.318359375 24.217013888888893  24.412109375 25.110677083333332  C 23.505859375 26.004340277777775  22.914279513888893 26.451171875  22.637369791666668 26.451171875  C 22.486328125 26.451171875  22.32269965277778 26.39453125  22.146484375 26.28125  L 19.541015625 24.2421875  C 18.987196180555557 24.531684027777775  18.41449652777778 24.770833333333332  17.822916666666668 24.959635416666668  C 17.62152777777778 26.671440972222225  17.439019097222225 27.842013888888893  17.275390625 28.471354166666668  C 17.18728298611111 28.823784722222225  16.96072048611111 29  16.595703125 29  L 12.404296875 29  C 12.228081597222223 29  12.073893229166666 28.946506076388893  11.941731770833334 28.839518229166668  C 11.8095703125 28.732530381944443  11.737196180555557 28.597222222222225  11.724609375 28.43359375  L 11.195963541666666 24.959635416666668  C 10.579210069444446 24.758246527777775  10.012803819444446 24.525390625  9.496744791666666 24.261067708333332  L 6.834635416666667 26.28125  C 6.708767361111112 26.39453125  6.551432291666667 26.451171875  6.362630208333333 26.451171875  C 6.186414930555556 26.451171875  6.029079861111112 26.381944444444443  5.890625 26.243489583333332  C 4.3046875 24.80859375  3.2662760416666665 23.751302083333332  2.775390625 23.071614583333332  C 2.6872829861111116 22.945746527777775  2.6432291666666665 22.800998263888893  2.6432291666666665 22.637369791666668  C 2.6432291666666665 22.486328125  2.6935763888888893 22.341579861111107  2.7942708333333335 22.203125  C 2.9830729166666665 21.938802083333332  3.3040364583333335 21.52029079861111  3.757161458333333 20.947591145833336  C 4.210286458333333 20.374891493055554  4.550130208333333 19.931206597222218  4.776692708333333 19.616536458333336  C 4.436848958333333 18.987196180555554  4.178819444444445 18.364149305555554  4.002604166666667 17.747395833333336  L 0.5475260416666666 17.237630208333336  C 0.3838975694444445 17.212456597222225  0.2517361111111111 17.1337890625  0.15104166666666666 17.001627604166664  C 0.05034722222222222 16.869466145833336  0 16.721571180555554  0 16.557942708333336  L 0 12.366536458333332  C 0 12.215494791666668  0.05034722222222222 12.070746527777777  0.15104166666666666 11.932291666666668  C 0.2517361111111111 11.793836805555555  0.37131076388888895 11.712022569444445  0.509765625 11.686848958333332  L 4.021484375 11.158203125  C 4.197699652777778 10.579210069444445  4.443142361111111 10.000217013888888  4.7578125 9.421223958333332  C 4.254340277777778 8.703776041666668  3.580946180555556 7.835286458333332  2.7376302083333335 6.815755208333332  C 2.611762152777778 6.664713541666668  2.548828125 6.513671875  2.548828125 6.362630208333332  C 2.548828125 6.236762152777777  2.60546875 6.092013888888885  2.71875 5.928385416666668  C 3.0460069444444446 5.475260416666668  3.665907118055556 4.798719618055553  4.578450520833333 3.898763020833332  C 5.490993923611112 2.9988064236111085  6.085720486111112 2.548828125  6.362630208333333 2.548828125  C 6.526258680555556 2.548828125  6.689887152777779 2.6117621527777763  6.853515625 2.737630208333332  L 9.458984375 4.7578125  C 10.012803819444446 4.4683159722222205  10.585503472222223 4.229166666666668  11.177083333333334 4.040364583333332  C 11.378472222222223 2.3285590277777763  11.560980902777779 1.1579861111111085  11.724609375 0.5286458333333323  C 11.81271701388889 0.17621527777777635  12.03927951388889 0  12.404296875 0  L 16.595703125 0  C 16.77191840277778 0  16.926106770833332 0.05349392361110861  17.058268229166668 0.16048177083333226  C 17.1904296875 0.2674696180555527  17.262803819444443 0.40277777777777635  17.275390625 0.56640625  L 17.804036458333332 4.040364583333332  C 18.420789930555557 4.2417534722222205  18.987196180555557 4.474609375  19.503255208333332 4.738932291666668  L 22.184244791666668 2.71875  C 22.297526041666668 2.60546875  22.448567708333332 2.548828125  22.637369791666668 2.548828125  C 22.800998263888893 2.548828125  22.958333333333332 2.6117621527777763  23.109375 2.737630208333332  C 24.733072916666668 4.235460069444444  25.771484375 5.305338541666668  26.224609375 5.947265625  C 26.312717013888893 6.047960069444444  26.356770833333332 6.186414930555553  26.356770833333332 6.362630208333332  C 26.356770833333332 6.513671875  26.306423611111114 6.658420138888885  26.205729166666668 6.796875  C 26.016927083333332 7.061197916666668  25.695963541666668 7.479709201388885  25.242838541666668 8.052408854166668  C 24.789713541666668 8.625108506944445  24.449869791666668 9.068793402777777  24.223307291666668 9.383463541666668  C 24.550564236111114 10.012803819444445  24.80859375 10.629557291666664  24.997395833333332 11.233723958333332  L 28.452473958333332 11.762369791666668  C 28.616102430555557 11.787543402777777  28.748263888888893 11.866210937499996  28.848958333333332 11.998372395833332  Z " fill-rule="nonzero" fill="#ffffff" stroke="none" transform="matrix(1 0 0 1 1287 30 )" />
  </g>
</svg>