<svg width="198" height="198" viewBox="0 0 198 198" fill="none" xmlns="http://www.w3.org/2000/svg">
<mask id="mask0_752_104" style="mask-type:alpha" maskUnits="userSpaceOnUse" x="0" y="0" width="198" height="198">
<rect width="198" height="198" fill="#D9D9D9"/>
</mask>
<g mask="url(#mask0_752_104)">
<path d="M69.3 140.25L99 110.55L128.7 140.25L140.25 128.7L110.55 99L140.25 69.3L128.7 57.75L99 87.45L69.3 57.75L57.75 69.3L87.45 99L57.75 128.7L69.3 140.25ZM99 181.5C87.5875 181.5 76.8625 179.334 66.825 175.003C56.7875 170.672 48.0562 164.794 40.6312 157.369C33.2062 149.944 27.3281 141.213 22.9969 131.175C18.6656 121.138 16.5 110.412 16.5 99C16.5 87.5875 18.6656 76.8625 22.9969 66.825C27.3281 56.7875 33.2062 48.0562 40.6312 40.6312C48.0562 33.2062 56.7875 27.3281 66.825 22.9969C76.8625 18.6656 87.5875 16.5 99 16.5C110.412 16.5 121.138 18.6656 131.175 22.9969C141.213 27.3281 149.944 33.2062 157.369 40.6312C164.794 48.0562 170.672 56.7875 175.003 66.825C179.334 76.8625 181.5 87.5875 181.5 99C181.5 110.412 179.334 121.138 175.003 131.175C170.672 141.213 164.794 149.944 157.369 157.369C149.944 164.794 141.213 170.672 131.175 175.003C121.138 179.334 110.412 181.5 99 181.5ZM99 165C117.425 165 133.031 158.606 145.819 145.819C158.606 133.031 165 117.425 165 99C165 80.575 158.606 64.9688 145.819 52.1813C133.031 39.3938 117.425 33 99 33C80.575 33 64.9688 39.3938 52.1813 52.1813C39.3938 64.9688 33 80.575 33 99C33 117.425 39.3938 133.031 52.1813 145.819C64.9688 158.606 80.575 165 99 165Z" fill="#333333"/>
</g>
</svg>
