<svg width="25" height="20" viewBox="0 0 25 20" fill="none" xmlns="http://www.w3.org/2000/svg">
<path d="M22.2544 5.02843C22.2695 5.24118 22.2695 5.45392 22.2695 5.66863C22.2695 12.2108 17.1759 19.7558 7.86198 19.7558V19.7519C5.11065 19.7558 2.41646 18.9853 0.100281 17.5324C0.500347 17.5794 0.90242 17.6029 1.30549 17.6039C3.58557 17.6058 5.80048 16.8578 7.59427 15.4804C5.42749 15.4401 3.52742 14.0589 2.86364 12.0422C3.62268 12.1853 4.40476 12.1559 5.14975 11.9569C2.78745 11.4902 1.08791 9.46078 1.08791 7.10392C1.08791 7.08235 1.08791 7.06177 1.08791 7.04118C1.7918 7.42452 2.57989 7.63725 3.38604 7.66078C1.16111 6.20686 0.47528 3.31275 1.81887 1.05C4.38972 4.14314 8.18283 6.02353 12.2547 6.22256C11.8466 4.50295 12.4041 2.70099 13.7196 1.49216C15.7591 -0.382349 18.9666 -0.286271 20.8837 1.70687C22.0178 1.48824 23.1047 1.08138 24.0993 0.504906C23.7213 1.65099 22.9301 2.62452 21.8733 3.24314C22.877 3.12745 23.8577 2.86471 24.7811 2.46373C24.1013 3.45981 23.245 4.32745 22.2544 5.02843Z" fill="white"/>
</svg>
