<svg width="55" height="55" viewBox="0 0 55 55" fill="none" xmlns="http://www.w3.org/2000/svg">
<mask id="mask0_2_33" style="mask-type:alpha" maskUnits="userSpaceOnUse" x="0" y="0" width="55" height="55">
<rect width="55" height="55" fill="#D9D9D9"/>
</mask>
<g mask="url(#mask0_2_33)">
<path d="M32.6562 49.0417C31.7778 49.9201 30.6892 50.3594 29.3906 50.3594C28.092 50.3594 27.0035 49.9201 26.125 49.0417L5.95831 28.875C5.53817 28.4549 5.20397 27.9583 4.95571 27.3854C4.70744 26.8125 4.58331 26.2014 4.58331 25.5521V9.16666C4.58331 7.90624 5.0321 6.82725 5.92967 5.92968C6.82724 5.03211 7.90623 4.58333 9.16665 4.58333H25.5521C26.2014 4.58333 26.8125 4.70746 27.3854 4.95572C27.9583 5.20399 28.4548 5.53819 28.875 5.95833L49.0416 26.1823C49.9201 27.0608 50.3594 28.1398 50.3594 29.4193C50.3594 30.6988 49.9201 31.7778 49.0416 32.6562L32.6562 49.0417ZM29.3906 45.8333L45.776 29.4479L25.5521 9.16666H9.16665V25.5521L29.3906 45.8333ZM14.8958 18.3333C15.8507 18.3333 16.6623 17.9991 17.3307 17.3307C17.9991 16.6623 18.3333 15.8507 18.3333 14.8958C18.3333 13.941 17.9991 13.1293 17.3307 12.4609C16.6623 11.7925 15.8507 11.4583 14.8958 11.4583C13.941 11.4583 13.1293 11.7925 12.4609 12.4609C11.7925 13.1293 11.4583 13.941 11.4583 14.8958C11.4583 15.8507 11.7925 16.6623 12.4609 17.3307C13.1293 17.9991 13.941 18.3333 14.8958 18.3333Z" fill="#FC8953"/>
</g>
</svg>
