<svg width="26" height="26" viewBox="0 0 26 26" fill="none" xmlns="http://www.w3.org/2000/svg">
<path d="M0 25.4547L1.79097 18.9201C0.689764 17.0081 0.102859 14.836 0.10891 12.6154C0.10891 5.65727 5.77223 0 12.7304 0C16.1066 0 19.2771 1.31297 21.6549 3.69689C24.0389 6.08081 25.3518 9.2513 25.3458 12.6215C25.3458 19.5796 19.6825 25.2369 12.7243 25.2369H12.7183C10.6066 25.2369 8.53129 24.7044 6.68587 23.7L0 25.4547ZM7.0005 21.4129L7.38168 21.6428C8.99113 22.5988 10.8365 23.101 12.7183 23.1071H12.7243C18.5026 23.1071 23.2099 18.4058 23.2099 12.6215C23.2099 9.82006 22.1208 7.18806 20.1423 5.20348C18.1638 3.2189 15.5257 2.1298 12.7243 2.1298C6.93999 2.1298 2.23266 6.83108 2.23266 12.6154C2.23266 14.5939 2.78326 16.5241 3.83605 18.194L4.08413 18.5934L3.02528 22.4597L7.0005 21.4129Z" fill="black" fill-opacity="0.24"/>
<path d="M0.572601 24.7802L2.28158 18.5478C1.2299 16.7253 0.674184 14.6518 0.674184 12.5365C0.674184 5.90374 6.07599 0.507904 12.7028 0.507904C15.9235 0.507904 18.9411 1.76275 21.2118 4.03342C23.4825 6.30409 24.7313 9.32767 24.7313 12.5425C24.7313 19.1752 19.3295 24.571 12.7028 24.571H12.6968C10.6831 24.571 8.70519 24.0631 6.94841 23.1071L0.572601 24.7802Z" fill="url(#paint0_linear_2_101)"/>
<path d="M0.136383 25.2164L1.90512 18.7629C0.817584 16.8747 0.237966 14.7295 0.243941 12.5365C0.243941 5.66473 5.83696 0.0776825 12.7087 0.0776825C16.043 0.0776825 19.1742 1.37435 21.5225 3.72868C23.8768 6.08301 25.1735 9.21414 25.1675 12.5425C25.1675 19.4142 19.5745 25.0013 12.7028 25.0013H12.6968C10.6113 25.0013 8.56177 24.4754 6.73925 23.4835L0.136383 25.2164ZM7.04998 21.2248L7.42643 21.4519C9.0159 22.396 10.8384 22.8919 12.6968 22.8979H12.7028C18.4093 22.8979 23.0582 18.255 23.0582 12.5425C23.0582 9.77584 21.9826 7.17652 20.0287 5.21657C18.0747 3.25662 15.4694 2.18104 12.7028 2.18104C6.99022 2.18104 2.34132 6.82397 2.34132 12.5365C2.34132 14.4905 2.88509 16.3966 3.92482 18.0459L4.16981 18.4402L3.12411 22.2586L7.04998 21.2248Z" fill="white"/>
<path d="M9.58946 7.31995C9.35641 6.80009 9.11142 6.78813 8.89033 6.78216C8.71107 6.77618 8.50192 6.77618 8.29278 6.77618C8.08364 6.77618 7.74902 6.85386 7.4622 7.16459C7.17537 7.47531 6.37466 8.22822 6.37466 9.76391C6.37466 11.2936 7.49207 12.7755 7.64744 12.9847C7.8028 13.1938 9.80457 16.4385 12.9656 17.6874C15.5948 18.7271 16.1326 18.5179 16.7002 18.4642C17.2739 18.4104 18.5407 17.7113 18.8036 16.9823C19.0605 16.2532 19.0605 15.6318 18.9829 15.5003C18.9052 15.3689 18.696 15.2912 18.3853 15.1358C18.0746 14.9805 16.5449 14.2276 16.2581 14.12C15.9712 14.0125 15.7621 13.9647 15.5589 14.2754C15.3498 14.5861 14.7522 15.2852 14.573 15.4944C14.3937 15.7035 14.2085 15.7274 13.8978 15.572C13.587 15.4167 12.5832 15.088 11.394 14.0244C10.4678 13.1998 9.84043 12.178 9.66116 11.8673C9.4819 11.5565 9.64324 11.3892 9.7986 11.2339C9.93603 11.0964 10.1093 10.8694 10.2647 10.6901C10.42 10.5108 10.4738 10.3794 10.5754 10.1702C10.677 9.9611 10.6292 9.78183 10.5515 9.62647C10.4738 9.47111 9.86433 7.93542 9.58946 7.31995Z" fill="white"/>
<defs>
<linearGradient id="paint0_linear_2_101" x1="3092.8" y1="6238.04" x2="3092.8" y2="0.159149" gradientUnits="userSpaceOnUse">
<stop stop-color="#20B038"/>
<stop offset="1" stop-color="#60D66A"/>
</linearGradient>
</defs>
</svg>
