<svg width="50" height="50" viewBox="0 0 50 50" fill="none" xmlns="http://www.w3.org/2000/svg">
<mask id="mask0_778_32" style="mask-type:alpha" maskUnits="userSpaceOnUse" x="7" y="10" width="33" height="33">
<rect x="7" y="10" width="33" height="33" fill="#D9D9D9"/>
</mask>
<g mask="url(#mask0_778_32)">
<path d="M22.3312 40.25C21.9875 40.25 21.6437 40.1813 21.3 40.0438C20.9562 39.9063 20.6469 39.7 20.3719 39.425L10.5406 29.5938C10.2656 29.3187 10.0651 29.0151 9.93906 28.6828C9.81302 28.3505 9.75 28.0125 9.75 27.6688C9.75 27.325 9.81302 26.9813 9.93906 26.6375C10.0651 26.2938 10.2656 25.9844 10.5406 25.7094L22.6406 13.575C22.8927 13.3229 23.1906 13.1224 23.5344 12.9734C23.8781 12.8245 24.2333 12.75 24.6 12.75H34.4656C35.2219 12.75 35.8693 13.0193 36.4078 13.5578C36.9464 14.0964 37.2156 14.7437 37.2156 15.5V25.3656C37.2156 25.7323 37.1469 26.0818 37.0094 26.4141C36.8719 26.7464 36.6771 27.0385 36.425 27.2906L24.2906 39.425C24.0156 39.7 23.7062 39.9063 23.3625 40.0438C23.0187 40.1813 22.675 40.25 22.3312 40.25ZM22.3312 37.5L34.4656 25.3313V15.5H24.6344L12.5 27.6688L22.3312 37.5ZM31.0281 21C31.601 21 32.088 20.7995 32.4891 20.3984C32.8901 19.9974 33.0906 19.5104 33.0906 18.9375C33.0906 18.3646 32.8901 17.8776 32.4891 17.4766C32.088 17.0755 31.601 16.875 31.0281 16.875C30.4552 16.875 29.9682 17.0755 29.5672 17.4766C29.1661 17.8776 28.9656 18.3646 28.9656 18.9375C28.9656 19.5104 29.1661 19.9974 29.5672 20.3984C29.9682 20.7995 30.4552 21 31.0281 21Z" fill="black"/>
</g>
<mask id="mask1_778_32" style="mask-type:alpha" maskUnits="userSpaceOnUse" x="0" y="0" width="50" height="50">
<rect width="50" height="50" fill="#D9D9D9"/>
</mask>
<g mask="url(#mask1_778_32)">
<path d="M25.0013 45.8334C22.1194 45.8334 19.411 45.2865 16.8763 44.1927C14.3416 43.099 12.1367 41.6146 10.2617 39.7396C8.38672 37.8646 6.90234 35.6597 5.80859 33.125C4.71484 30.5903 4.16797 27.882 4.16797 25C4.16797 22.1181 4.71484 19.4097 5.80859 16.875C6.90234 14.3403 8.38672 12.1354 10.2617 10.2604C12.1367 8.38544 14.3416 6.90106 16.8763 5.80731C19.411 4.71356 22.1194 4.16669 25.0013 4.16669C27.8832 4.16669 30.5916 4.71356 33.1263 5.80731C35.661 6.90106 37.8659 8.38544 39.7409 10.2604C41.6159 12.1354 43.1003 14.3403 44.194 16.875C45.2878 19.4097 45.8346 22.1181 45.8346 25C45.8346 27.882 45.2878 30.5903 44.194 33.125C43.1003 35.6597 41.6159 37.8646 39.7409 39.7396C37.8659 41.6146 35.661 43.099 33.1263 44.1927C30.5916 45.2865 27.8832 45.8334 25.0013 45.8334ZM25.0013 41.6667C26.8763 41.6667 28.6819 41.3629 30.418 40.7552C32.1541 40.1476 33.7513 39.2709 35.2096 38.125L11.8763 14.7917C10.7305 16.25 9.85373 17.8472 9.24609 19.5834C8.63845 21.3195 8.33464 23.125 8.33464 25C8.33464 29.6528 9.94922 33.5938 13.1784 36.8229C16.4076 40.0521 20.3485 41.6667 25.0013 41.6667ZM38.1263 35.2084C39.2721 33.75 40.1489 32.1528 40.7565 30.4167C41.3641 28.6806 41.668 26.875 41.668 25C41.668 20.3472 40.0534 16.4063 36.8242 13.1771C33.5951 9.94794 29.6541 8.33335 25.0013 8.33335C23.1263 8.33335 21.3207 8.63717 19.5846 9.24481C17.8485 9.85245 16.2513 10.7292 14.793 11.875L38.1263 35.2084Z" fill="black"/>
</g>
</svg>
