<?xml version="1.0" encoding="UTF-8"?>
<svg id="Camada_1" data-name="Camada 1" xmlns="http://www.w3.org/2000/svg" viewBox="0 0 383 382.09">
  <path d="m0,241.89c2.54-6.4,7.47-8.46,14-8.03,3.73.25,7.48-.04,11.22.06,2.08.06,2.98-.77,2.94-2.81-.03-1.5.07-2.99.07-4.49,0-23.2,0-46.41,0-69.61,0-1.5-.02-2.99.02-4.49.22-7.78,3.23-10.93,10.97-11.06,8.73-.14,17.46-.03,26.2-.07,5.73-.02,5.75-.05,5.75-5.85,0-21.46,0-42.91,0-64.37,0-1.5-.05-3,.11-4.49.33-2.95,2.13-4.45,5.03-4.43,2.91.02,4.66,1.6,5.01,4.5.16,1.35.09,2.74.09,4.11,0,21.83,0,43.66,0,65.5,0,4.93.04,5,5.02,5.02,16.09.04,32.19-.06,48.28.07,3.6.03,4.96-.91,4.88-4.84-.26-13.22-.11-26.45-.09-39.67.01-6.13,1.64-7.86,7.7-7.9,10.23-.08,20.46-.15,30.69.02,3.57.06,4.74-1.17,4.72-4.74-.12-23.08-.11-46.16-.01-69.24.01-3.4-.83-4.91-4.61-4.79-8.72.26-17.47.22-26.19.01-3.35-.08-4.38,1.17-4.31,4.32.13,5.86.08,11.73,0,17.59-.11,7.14-3.24,10.24-10.31,10.31-3.62.04-7.24.06-10.85,0-6.43-.12-9.96-3.61-10.04-10-.08-6.24-.12-12.48.02-18.71.06-2.63-.93-3.48-3.49-3.46-9.23.1-18.46.11-27.69,0-2.77-.03-3.74,1.02-3.71,3.73.09,9.23.03,18.46.02,27.69,0,1.12.06,2.26-.07,3.36-.37,3.05-2.23,4.85-5.21,4.78-2.78-.07-4.81-1.79-4.83-4.72-.08-12.47-.12-24.95.07-37.42.06-3.67,3.25-6.71,6.85-7.45.85-.17,1.73-.3,2.6-.3,34.18-.01,68.36,0,102.54.01,3.48,0,6.54,1.26,8.04,4.48.96,2.05,1.43,4.52,1.44,6.8.1,23.45.01,46.91.09,70.36.03,7.51-1.59,7.33,7.51,7.33,34.93.02,69.86,0,104.79.01,1.62,0,3.25-.03,4.86.04,7.53.3,10.77,3.68,10.78,11.29.02,17.59.02,35.18-.02,52.77,0,1.46.09,3.41-.75,4.26-1.32,1.34-3.44,2.71-5.13,2.61-1.47-.09-3.26-1.97-4.07-3.51-.74-1.41-.45-3.41-.46-5.15-.03-15.59,0-31.19-.04-46.78-.01-5.08-.08-5.09-5.24-5.09-18.21,0-36.43.09-54.64-.08-3.64-.03-4.76,1.09-4.59,4.67.27,5.73.12,11.47.05,17.21-.08,6.88-3.54,10.28-10.46,10.35-3.37.03-6.74.02-10.1,0-7.54-.04-10.61-3.06-10.71-10.69-.08-5.86-.1-11.73-.02-17.59.03-2.76-.85-3.96-3.88-3.94-18.96.12-37.92.12-56.89,0-3.04-.02-3.77,1.13-3.77,3.96.07,42.29.07,84.58-.01,126.87,0,3.08,1.16,3.74,3.95,3.72,16.34-.09,32.68-.05,49.03-.04,7.62,0,9.09,1.5,9.11,9.26.01,5.86.06,11.73-.01,17.59-.03,2.19.71,3.11,3.02,3.11,30.94-.05,61.88-.04,92.82-.07.6,0,1.19-.23,2.12-.42.09-2.13.26-4.22.27-6.32.02-24.95,0-49.9.02-74.85,0-1.74.03-3.5.25-5.22.35-2.72,2.07-4.3,4.75-4.4,2.89-.11,4.66,1.63,5.28,4.35.3,1.31.16,2.73.16,4.1,0,25.95,0,51.9,0,77.85,0,4.94.02,4.95,4.89,4.96,14.97,0,29.94-.01,44.91.01,8.69.01,12.28,3.61,12.28,12.3.01,32.56,0,65.12,0,97.68,0,6.58-1.54,8.19-8.15,8.19-94.81.02-189.62.01-284.44,0-1.12,0-2.25-.03-3.36-.18-2.86-.39-4.54-1.96-4.55-4.96,0-3.17,1.83-4.77,4.78-5.21,1.22-.18,2.49-.07,3.74-.07,35.18,0,70.36,0,105.54,0,5,0,5.02-.02,5.02-4.88,0-39.17-.04-78.34.08-117.52.01-3.56-.95-4.68-4.59-4.65-23.58.15-47.16.15-70.73,0-3.7-.02-4.73,1.2-4.58,4.72.24,5.85.1,11.72.05,17.59-.05,5.95-2.73,9.24-8.63,9.63-5.07.34-10.23.25-15.29-.26-4.5-.45-7.03-3.67-7.11-8.21-.12-6.49-.18-12.98-.01-19.46.08-3.18-1.19-3.99-4.19-3.98-23.95.09-47.91.1-71.86,0-3-.01-3.79,1-3.78,3.87.08,39.8.08,79.59,0,119.39,0,3.02,1.05,3.83,3.9,3.81,15.97-.1,31.94-.06,47.9-.02,1.47,0,3.45-.15,4.28.68,1.41,1.41,2.97,3.62,2.83,5.36-.13,1.48-2.41,3.01-4.04,4.05-.91.59-2.43.31-3.67.31-17.84.01-35.68-.04-53.52.05-3.61.02-6.63-.68-8.6-3.96v-136.23Zm308.26,32.68c-.15,2.16-.35,3.88-.37,5.6-.06,5.61.08,11.23-.11,16.84-.21,6.22-3,9.12-9.19,9.54-3.85.26-7.73.19-11.6.07-7.22-.22-10.42-3.53-10.49-10.74-.06-5.86-.16-11.73.04-17.59.1-3.02-1.02-3.8-3.89-3.78-18.84.1-37.67.12-56.51-.01-3.19-.02-3.97,1.1-3.96,4.11.09,29.56.09,59.13,0,88.69-.01,3.15.76,4.36,4.16,4.36,50.65-.1,101.29-.09,151.94-.01,3.08,0,4.06-.95,4.05-4.05-.1-29.69-.1-59.38,0-89.07.01-3.09-.91-4.06-4.01-4.03-13.97.14-27.94.06-41.91.06-5.85,0-11.7,0-18.14,0Zm-219.04-40.67c15.47,0,30.94-.05,46.41.05,2.79.02,3.96-.64,3.94-3.72-.11-24.82-.11-49.65,0-74.48.01-3.21-1.18-4.01-4.15-3.96-8.73.15-17.47.21-26.19-.03-3.75-.1-4.71,1.36-4.6,4.81.2,5.98.1,11.97.02,17.96-.07,5.92-3.34,9.27-9.24,9.44-4.11.12-8.23.11-12.35,0-6-.15-9.43-3.66-9.48-9.67-.05-5.99-.16-11.98.04-17.96.11-3.29-.79-4.67-4.38-4.58-8.73.23-17.47.23-26.19,0-3.53-.09-4.42,1.19-4.4,4.53.11,24.33.16,48.65-.04,72.98-.03,3.99,1.36,4.74,4.95,4.7,15.22-.17,30.44-.07,45.66-.07Zm5.19-71.41s.02,0,.03,0c0-1.24,0-2.48,0-3.72,0-7.26,0-7.17-7.14-6.97-2.4.07-3.38.95-3.36,3.28.03,3.72-.03,7.44-.03,11.17,0,7.49,0,7.42,7.34,7.1,2.17-.09,3.22-.82,3.17-3.04-.06-2.6-.01-5.21-.01-7.82Zm6.55,92.81c0,1.37,0,2.73,0,4.1,0,6.94,0,6.83,7.02,6.72,2.6-.04,3.57-1.02,3.53-3.5-.06-4.22.03-8.44,0-12.66-.03-5.33-.05-5.33-5.35-5.33q-5.16,0-5.21,5.09c-.01,1.86,0,3.72,0,5.59ZM126.97,21.02c0,1.37,0,2.74,0,4.11,0,7.24.18,7.46,7.58,6.55.94-.12,2.44-1.45,2.48-2.27.22-5.46.21-10.94.03-16.41-.03-.87-1.13-2.27-1.96-2.47-6.54-1.56-8.12-.24-8.12,6.39,0,1.37,0,2.74,0,4.11Zm108.32,89.04c0-1.37,0-2.74,0-4.11,0-6.95,0-6.88-7.07-6.54-2.18.1-3.18.83-3.13,3.09.08,3.86,0,7.72,0,11.58,0,7.21,0,7.13,7.15,6.87,2.21-.08,3.17-.77,3.07-3.05-.12-2.61-.03-5.23-.02-7.84Zm62.1,175.15c0-1.25,0-2.49,0-3.74,0-7.43-.37-7.82-7.78-6.78-.89.13-2.25,1.55-2.29,2.42-.21,5.47-.14,10.96-.06,16.44.01.74.6,2.08.98,2.11,2.71.17,5.53.44,8.1-.19.72-.18.84-3.25,1.01-5.02.16-1.73.04-3.48.04-5.23Z"/>
</svg>