<svg width="383" height="383" viewBox="0 0 383 383" fill="none" xmlns="http://www.w3.org/2000/svg">
<path d="M0 241.89C2.54 235.49 7.47 233.43 14 233.86C17.73 234.11 21.48 233.82 25.22 233.92C27.3 233.98 28.2 233.15 28.16 231.11C28.13 229.61 28.23 228.12 28.23 226.62C28.23 203.42 28.23 180.21 28.23 157.01C28.23 155.51 28.21 154.02 28.25 152.52C28.47 144.74 31.48 141.59 39.22 141.46C47.95 141.32 56.68 141.43 65.42 141.39C71.15 141.37 71.17 141.34 71.17 135.54C71.17 114.08 71.17 92.63 71.17 71.17C71.17 69.67 71.12 68.17 71.28 66.68C71.61 63.73 73.41 62.23 76.31 62.25C79.22 62.27 80.97 63.85 81.32 66.75C81.48 68.1 81.41 69.49 81.41 70.86C81.41 92.69 81.41 114.52 81.41 136.36C81.41 141.29 81.45 141.36 86.43 141.38C102.52 141.42 118.62 141.32 134.71 141.45C138.31 141.48 139.67 140.54 139.59 136.61C139.33 123.39 139.48 110.16 139.5 96.94C139.51 90.81 141.14 89.08 147.2 89.04C157.43 88.96 167.66 88.89 177.89 89.06C181.46 89.12 182.63 87.89 182.61 84.32C182.49 61.24 182.5 38.16 182.6 15.08C182.61 11.68 181.77 10.17 177.99 10.29C169.27 10.55 160.52 10.51 151.8 10.3C148.45 10.22 147.42 11.47 147.49 14.62C147.62 20.48 147.57 26.35 147.49 32.21C147.38 39.35 144.25 42.45 137.18 42.52C133.56 42.56 129.94 42.58 126.33 42.52C119.9 42.4 116.37 38.91 116.29 32.52C116.21 26.28 116.17 20.04 116.31 13.81C116.37 11.18 115.38 10.33 112.82 10.35C103.59 10.45 94.36 10.46 85.13 10.35C82.36 10.32 81.39 11.37 81.42 14.08C81.51 23.31 81.45 32.54 81.44 41.77C81.44 42.89 81.5 44.03 81.37 45.13C81 48.18 79.14 49.98 76.16 49.91C73.38 49.84 71.35 48.12 71.33 45.19C71.25 32.72 71.21 20.24 71.4 7.77001C71.46 4.10001 74.65 1.06001 78.25 0.320011C79.1 0.150011 79.98 0.0200113 80.85 0.0200113C115.03 0.0100113 149.21 0.0200113 183.39 0.0300113C186.87 0.0300113 189.93 1.29001 191.43 4.51001C192.39 6.56001 192.86 9.03001 192.87 11.31C192.97 34.76 192.88 58.22 192.96 81.67C192.99 89.18 191.37 89 200.47 89C235.4 89.02 270.33 89 305.26 89.01C306.88 89.01 308.51 88.98 310.12 89.05C317.65 89.35 320.89 92.73 320.9 100.34C320.92 117.93 320.92 135.52 320.88 153.11C320.88 154.57 320.97 156.52 320.13 157.37C318.81 158.71 316.69 160.08 315 159.98C313.53 159.89 311.74 158.01 310.93 156.47C310.19 155.06 310.48 153.06 310.47 151.32C310.44 135.73 310.47 120.13 310.43 104.54C310.42 99.46 310.35 99.45 305.19 99.45C286.98 99.45 268.76 99.54 250.55 99.37C246.91 99.34 245.79 100.46 245.96 104.04C246.23 109.77 246.08 115.51 246.01 121.25C245.93 128.13 242.47 131.53 235.55 131.6C232.18 131.63 228.81 131.62 225.45 131.6C217.91 131.56 214.84 128.54 214.74 120.91C214.66 115.05 214.64 109.18 214.72 103.32C214.75 100.56 213.87 99.36 210.84 99.38C191.88 99.5 172.92 99.5 153.95 99.38C150.91 99.36 150.18 100.51 150.18 103.34C150.25 145.63 150.25 187.92 150.17 230.21C150.17 233.29 151.33 233.95 154.12 233.93C170.46 233.84 186.8 233.88 203.15 233.89C210.77 233.89 212.24 235.39 212.26 243.15C212.27 249.01 212.32 254.88 212.25 260.74C212.22 262.93 212.96 263.85 215.27 263.85C246.21 263.8 277.15 263.81 308.09 263.78C308.69 263.78 309.28 263.55 310.21 263.36C310.3 261.23 310.47 259.14 310.48 257.04C310.5 232.09 310.48 207.14 310.5 182.19C310.5 180.45 310.53 178.69 310.75 176.97C311.1 174.25 312.82 172.67 315.5 172.57C318.39 172.46 320.16 174.2 320.78 176.92C321.08 178.23 320.94 179.65 320.94 181.02C320.94 206.97 320.94 232.92 320.94 258.87C320.94 263.81 320.96 263.82 325.83 263.83C340.8 263.83 355.77 263.82 370.74 263.84C379.43 263.85 383.02 267.45 383.02 276.14C383.03 308.7 383.02 341.26 383.02 373.82C383.02 380.4 381.48 382.01 374.87 382.01C280.06 382.03 185.25 382.02 90.43 382.01C89.31 382.01 88.18 381.98 87.07 381.83C84.21 381.44 82.53 379.87 82.52 376.87C82.52 373.7 84.35 372.1 87.3 371.66C88.52 371.48 89.79 371.59 91.04 371.59C126.22 371.59 161.4 371.59 196.58 371.59C201.58 371.59 201.6 371.57 201.6 366.71C201.6 327.54 201.56 288.37 201.68 249.19C201.69 245.63 200.73 244.51 197.09 244.54C173.51 244.69 149.93 244.69 126.36 244.54C122.66 244.52 121.63 245.74 121.78 249.26C122.02 255.11 121.88 260.98 121.83 266.85C121.78 272.8 119.1 276.09 113.2 276.48C108.13 276.82 102.97 276.73 97.91 276.22C93.41 275.77 90.88 272.55 90.8 268.01C90.68 261.52 90.62 255.03 90.79 248.55C90.87 245.37 89.6 244.56 86.6 244.57C62.65 244.66 38.69 244.67 14.74 244.57C11.74 244.56 10.95 245.57 10.96 248.44C11.04 288.24 11.04 328.03 10.96 367.83C10.96 370.85 12.01 371.66 14.86 371.64C30.83 371.54 46.8 371.58 62.76 371.62C64.23 371.62 66.21 371.47 67.04 372.3C68.45 373.71 70.01 375.92 69.87 377.66C69.74 379.14 67.46 380.67 65.83 381.71C64.92 382.3 63.4 382.02 62.16 382.02C44.32 382.03 26.48 381.98 8.64 382.07C5.03 382.09 2.01 381.39 0.04 378.11V241.88L0 241.89ZM308.26 274.57C308.11 276.73 307.91 278.45 307.89 280.17C307.83 285.78 307.97 291.4 307.78 297.01C307.57 303.23 304.78 306.13 298.59 306.55C294.74 306.81 290.86 306.74 286.99 306.62C279.77 306.4 276.57 303.09 276.5 295.88C276.44 290.02 276.34 284.15 276.54 278.29C276.64 275.27 275.52 274.49 272.65 274.51C253.81 274.61 234.98 274.63 216.14 274.5C212.95 274.48 212.17 275.6 212.18 278.61C212.27 308.17 212.27 337.74 212.18 367.3C212.17 370.45 212.94 371.66 216.34 371.66C266.99 371.56 317.63 371.57 368.28 371.65C371.36 371.65 372.34 370.7 372.33 367.6C372.23 337.91 372.23 308.22 372.33 278.53C372.34 275.44 371.42 274.47 368.32 274.5C354.35 274.64 340.38 274.56 326.41 274.56C320.56 274.56 314.71 274.56 308.27 274.56L308.26 274.57ZM89.22 233.9C104.69 233.9 120.16 233.85 135.63 233.95C138.42 233.97 139.59 233.31 139.57 230.23C139.46 205.41 139.46 180.58 139.57 155.75C139.58 152.54 138.39 151.74 135.42 151.79C126.69 151.94 117.95 152 109.23 151.76C105.48 151.66 104.52 153.12 104.63 156.57C104.83 162.55 104.73 168.54 104.65 174.53C104.58 180.45 101.31 183.8 95.41 183.97C91.3 184.09 87.18 184.08 83.06 183.97C77.06 183.82 73.63 180.31 73.58 174.3C73.53 168.31 73.42 162.32 73.62 156.34C73.73 153.05 72.83 151.67 69.24 151.76C60.51 151.99 51.77 151.99 43.05 151.76C39.52 151.67 38.63 152.95 38.65 156.29C38.76 180.62 38.81 204.94 38.61 229.27C38.58 233.26 39.97 234.01 43.56 233.97C58.78 233.8 74 233.9 89.22 233.9ZM94.41 162.49C94.41 162.49 94.43 162.49 94.44 162.49C94.44 161.25 94.44 160.01 94.44 158.77C94.44 151.51 94.44 151.6 87.3 151.8C84.9 151.87 83.92 152.75 83.94 155.08C83.97 158.8 83.91 162.52 83.91 166.25C83.91 173.74 83.91 173.67 91.25 173.35C93.42 173.26 94.47 172.53 94.42 170.31C94.36 167.71 94.41 165.1 94.41 162.49ZM100.96 255.3C100.96 256.67 100.96 258.03 100.96 259.4C100.96 266.34 100.96 266.23 107.98 266.12C110.58 266.08 111.55 265.1 111.51 262.62C111.45 258.4 111.54 254.18 111.51 249.96C111.48 244.63 111.46 244.63 106.16 244.63C102.72 244.63 100.983 246.327 100.95 249.72C100.94 251.58 100.95 253.44 100.95 255.31L100.96 255.3ZM126.97 21.02C126.97 22.39 126.97 23.76 126.97 25.13C126.97 32.37 127.15 32.59 134.55 31.68C135.49 31.56 136.99 30.23 137.03 29.41C137.25 23.95 137.24 18.47 137.06 13C137.03 12.13 135.93 10.73 135.1 10.53C128.56 8.97001 126.98 10.29 126.98 16.92C126.98 18.29 126.98 19.66 126.98 21.03L126.97 21.02ZM235.29 110.06C235.29 108.69 235.29 107.32 235.29 105.95C235.29 99 235.29 99.07 228.22 99.41C226.04 99.51 225.04 100.24 225.09 102.5C225.17 106.36 225.09 110.22 225.09 114.08C225.09 121.29 225.09 121.21 232.24 120.95C234.45 120.87 235.41 120.18 235.31 117.9C235.19 115.29 235.28 112.67 235.29 110.06ZM297.39 285.21C297.39 283.96 297.39 282.72 297.39 281.47C297.39 274.04 297.02 273.65 289.61 274.69C288.72 274.82 287.36 276.24 287.32 277.11C287.11 282.58 287.18 288.07 287.26 293.55C287.27 294.29 287.86 295.63 288.24 295.66C290.95 295.83 293.77 296.1 296.34 295.47C297.06 295.29 297.18 292.22 297.35 290.45C297.51 288.72 297.39 286.97 297.39 285.22V285.21Z" fill="#EF9652"/>
</svg>
