<svg width="48" height="48" viewBox="0 0 48 48" fill="none" xmlns="http://www.w3.org/2000/svg">
<g clip-path="url(#clip0_228_24)">
<path d="M22.5001 45.9001V42.1001C17.9001 41.6001 14.1001 39.9001 11.1001 36.9001C8.1001 33.9001 6.3001 30.1001 5.8001 25.5001H2.1001V22.5001H5.8001C6.3001 17.9001 8.0001 14.1001 11.1001 11.1001C14.2001 8.1001 17.9001 6.3001 22.5001 5.8001V2.1001H25.5001V5.9001C30.1001 6.4001 33.9001 8.1001 36.9001 11.2001C39.9001 14.2001 41.7001 18.0001 42.1001 22.6001H45.9001V25.6001H42.1001C41.6001 30.2001 39.9001 34.0001 36.9001 37.0001C33.9001 40.0001 30.1001 41.8001 25.5001 42.2001V46.0001H22.5001V45.9001ZM24.0001 39.2001C28.2001 39.2001 31.7001 37.7001 34.7001 34.7001C37.7001 31.7001 39.2001 28.1001 39.2001 24.0001C39.2001 19.9001 37.7001 16.3001 34.7001 13.3001C31.7001 10.3001 28.2001 8.8001 24.0001 8.8001C19.8001 8.8001 16.3001 10.3001 13.3001 13.3001C10.3001 16.3001 8.8001 19.8001 8.8001 24.0001C8.8001 28.2001 10.3001 31.7001 13.3001 34.7001C16.3001 37.7001 19.8001 39.2001 24.0001 39.2001ZM24.0001 31.5001C21.9001 31.5001 20.1001 30.8001 18.7001 29.3001C17.2001 27.8001 16.5001 26.1001 16.5001 24.0001C16.5001 21.9001 17.2001 20.1001 18.7001 18.7001C20.1001 17.3001 21.9001 16.5001 24.0001 16.5001C26.1001 16.5001 27.9001 17.2001 29.3001 18.7001C30.7001 20.2001 31.5001 21.9001 31.5001 24.0001C31.5001 26.1001 30.8001 27.9001 29.3001 29.3001C27.9001 30.8001 26.1001 31.5001 24.0001 31.5001ZM24.0001 28.5001C25.3001 28.5001 26.3001 28.1001 27.2001 27.2001C28.1001 26.3001 28.5001 25.3001 28.5001 24.0001C28.5001 22.7001 28.1001 21.7001 27.2001 20.8001C26.3001 19.9001 25.3001 19.5001 24.0001 19.5001C22.7001 19.5001 21.7001 19.9001 20.8001 20.8001C19.9001 21.7001 19.5001 22.7001 19.5001 24.0001C19.5001 25.3001 19.9001 26.3001 20.8001 27.2001C21.7001 28.1001 22.7001 28.5001 24.0001 28.5001Z" fill="black"/>
</g>
<defs>
<clipPath id="clip0_228_24">
<rect width="48" height="48" fill="white"/>
</clipPath>
</defs>
</svg>
