<svg width="383" height="383" viewBox="0 0 383 383" fill="none" xmlns="http://www.w3.org/2000/svg">
<g clip-path="url(#clip0_338_4)">
<path d="M0 213.53C1.97 212.14 3.75 210.26 5.93 209.45C24.72 202.47 43.59 195.68 62.43 188.82C63.82 188.31 65.19 187.76 67.26 186.96C56.71 182.65 46.82 178.6 36.93 174.57C33.82 173.3 30.76 171.86 27.57 170.83C23.88 169.64 22.54 167.2 22.57 163.51C22.64 153.91 22.59 144.3 22.59 134.7C22.59 116.74 22.56 98.7701 22.63 80.8101C22.63 78.4701 22.14 77.1301 19.84 75.8801C18.22 75.0001 16.56 72.5201 16.49 70.7001C16.16 61.2301 16.35 51.7401 16.32 42.2601C16.31 38.7801 18.43 37.2601 21.38 36.1901C47.48 26.7301 73.57 17.2301 99.66 7.74011C106.33 5.31011 112.95 2.74011 119.69 0.53011C121.54 -0.0798898 123.97 -0.21989 125.75 0.45011C157.6 12.3301 189.38 24.3801 221.2 36.3501C224.41 37.5601 225.97 39.6601 225.96 43.1101C225.91 52.3401 225.92 61.5701 225.96 70.8001C225.98 74.3101 224.76 76.7601 221.12 77.8101C220.23 78.0701 219.04 79.3701 219.01 80.2201C218.82 85.9201 218.91 91.6401 218.91 97.9701C220.76 97.3901 222.14 97.0301 223.47 96.5401C235.76 92.0801 248 87.4901 260.36 83.2201C262.5 82.4801 265.35 82.3901 267.45 83.1601C304.14 96.6501 340.77 110.31 377.41 123.96C382.57 125.88 382.74 126.53 382.66 132.13C382.51 142.36 382.47 152.59 382.68 162.81C382.77 167.06 381.37 169.88 377.19 170.87C374.34 171.54 374.46 173.52 374.46 175.71C374.49 208.77 374.48 241.82 374.48 274.88C374.48 282.04 374.44 282.12 367.82 284.66C334.46 297.49 301.09 310.28 267.76 323.19C264.63 324.4 261.95 324.37 258.83 323.08C241.46 315.88 224.01 308.88 206.58 301.83C205.45 301.37 204.29 301 202.71 300.43C202.71 307.99 202.71 315.19 202.71 322.39C202.71 328.13 202.72 333.87 202.71 339.6C202.7 345.3 202.09 346.19 196.9 348.18C167.73 359.4 138.56 370.62 109.4 381.85C108.84 382.07 108.32 382.41 107.79 382.7H104.8C103.75 382.12 102.75 381.43 101.65 380.99C72 368.96 42.34 356.96 12.69 344.94C6.63 342.49 6.43 342.18 6.43 335.58C6.43 309.26 6.41 282.95 6.45 256.63C6.45 253.34 6.89 250.14 2.52 249.07C1.53 248.83 0.84 247.37 0.01 246.47C0.01 235.49 0.01 224.51 0.01 213.53H0ZM257.54 309.39C257.66 308.27 257.77 307.66 257.77 307.04C257.78 276.62 257.75 246.2 257.84 215.78C257.84 213.34 256.64 212.65 254.75 211.93C224.89 200.49 195.04 188.99 165.19 177.52C163.5 176.87 161.77 176.3 159.83 175.62C159.73 176.68 159.61 177.29 159.61 177.89C159.61 207.69 159.64 237.48 159.54 267.28C159.54 269.71 160.68 270.45 162.56 271.2C179.32 277.9 196.04 284.66 212.78 291.4C227.54 297.34 242.31 303.27 257.52 309.38L257.54 309.39ZM363.37 176.74C362.01 177.22 361.19 177.48 360.39 177.79C331.21 189.31 302.05 200.87 272.84 212.29C270.23 213.31 269.37 214.55 269.38 217.38C269.5 246.93 269.45 276.49 269.45 306.05V309.99C270.73 309.56 271.55 309.31 272.34 309.01C301.81 297.55 331.26 286.06 360.76 274.69C363.08 273.8 363.61 272.54 363.6 270.26C363.54 240.33 363.56 210.4 363.55 180.47C363.55 179.38 363.45 178.3 363.37 176.75V176.74ZM162.85 130.6C163.88 131.07 164.21 131.24 164.56 131.38C196.85 143.83 229.14 156.3 261.47 168.65C262.89 169.19 264.91 169.01 266.37 168.44C280.41 162.97 294.38 157.34 308.37 151.76C325.71 144.84 343.05 137.93 360.99 130.77C359.19 130.03 357.97 129.48 356.72 129.01C327 117.85 297.27 106.73 267.59 95.4901C264.83 94.4501 262.46 94.4301 259.72 95.4401C237.98 103.41 216.2 111.28 194.43 119.17C184.15 122.9 173.86 126.61 162.85 130.6ZM34.6 82.0301C34.44 83.0601 34.34 83.4301 34.34 83.7901C34.33 108.84 34.37 133.89 34.26 158.94C34.25 161.49 35.63 161.98 37.43 162.69C62.43 172.53 87.42 182.41 112.42 192.27C113.73 192.79 115.09 193.2 116.54 193.71C116.65 192.86 116.74 192.49 116.74 192.12C116.74 166.7 116.7 141.27 116.82 115.85C116.83 113.31 115.53 112.76 113.7 112.07C94.97 104.99 76.26 97.8501 57.54 90.7401C50 87.8801 42.47 85.0201 34.61 82.0301H34.6ZM100.18 367.46C100.3 366.42 100.4 365.93 100.4 365.45C100.4 340.15 100.35 314.85 100.49 289.55C100.5 286.79 98.98 286.27 97.09 285.55C74.18 276.85 51.28 268.13 28.37 259.43C25.05 258.17 21.69 256.98 18.32 255.75C18.15 256.4 18.03 256.64 18.03 256.88C18.01 282.18 18.04 307.48 17.93 332.78C17.92 335.19 19.32 335.62 20.96 336.26C34.97 341.76 48.97 347.28 62.98 352.8C75.23 357.63 87.48 362.46 100.19 367.47L100.18 367.46ZM112.14 368.39C112.94 368.24 113.44 368.23 113.88 368.06C138.8 358.36 163.7 348.61 188.65 338.98C190.75 338.17 191.03 336.94 191.02 335.03C190.96 322.82 190.89 310.6 191.06 298.39C191.1 295.62 190.07 294.51 187.65 293.58C176.39 289.25 165.24 284.64 153.96 280.34C150.75 279.11 148.15 277.69 147.81 273.63C136.93 277.86 126.44 282.06 115.83 285.97C113.07 286.99 112.03 288.17 112.05 291.24C112.2 315.66 112.13 340.09 112.13 364.52V368.4L112.14 368.39ZM38.74 42.2901C39.56 42.7301 39.86 42.9501 40.21 43.0801C67.01 53.4601 93.81 63.8601 120.65 74.1301C121.95 74.6301 123.82 74.3401 125.19 73.8001C141.07 67.5901 156.9 61.2801 172.73 54.9601C182.86 50.9101 192.97 46.8001 203.51 42.5601C202.48 42.0301 201.96 41.6901 201.39 41.4701C175.91 31.8201 150.44 22.1401 124.91 12.6101C123.38 12.0401 121.23 12.2401 119.64 12.8101C95.76 21.4201 71.93 30.1601 48.09 38.8601C45.1 39.9501 42.1 41.0501 38.74 42.2801V42.2901ZM147.48 199.26C140.06 202.21 133.19 204.78 126.47 207.7C123.45 209.01 120.86 208.84 117.91 207.58C107.48 203.15 97 198.83 86.46 194.68C84.81 194.03 82.54 193.9 80.9 194.49C68.1 199.01 55.39 203.76 42.65 208.45C36.03 210.89 29.41 213.37 22.19 216.06C49.91 226.86 76.93 237.39 103.97 247.87C104.91 248.23 106.23 248.29 107.15 247.92C120 242.83 132.82 237.67 145.6 232.39C146.45 232.04 147.39 230.64 147.4 229.72C147.53 219.75 147.48 209.78 147.48 199.27V199.26ZM128.51 194.48C134.83 192.07 140.56 190 146.18 187.65C147.09 187.27 147.97 185.71 148.04 184.65C148.27 181.05 148.33 177.4 148.02 173.81C147.91 172.57 146.73 170.81 145.63 170.38C141.73 168.89 140.49 166.24 140.55 162.26C140.71 152.16 140.72 142.05 140.55 131.95C140.48 127.78 142.21 125.68 146.09 124.31C165.46 117.47 184.76 110.43 204.05 103.36C205.32 102.89 207.14 101.56 207.19 100.54C207.49 94.7201 207.34 88.8701 207.34 82.6601C205.61 83.2701 204.22 83.7101 202.86 84.2501C179.14 93.6701 155.44 103.14 131.67 112.45C128.99 113.5 128.24 114.86 128.25 117.64C128.36 141.84 128.31 166.04 128.32 190.24C128.32 191.44 128.43 192.65 128.53 194.47L128.51 194.48ZM257.79 200.92C257.79 194.67 257.63 189.08 257.86 183.49C257.97 180.76 256.92 179.57 254.5 178.63C221.68 165.89 188.89 153.05 156.09 140.26C154.9 139.8 153.65 139.51 152.08 139.03C152.08 145.37 152.25 151.1 152.01 156.81C151.9 159.55 152.93 160.68 155.37 161.6C174.69 168.9 193.96 176.33 213.24 183.74C227.86 189.36 242.47 195 257.8 200.92H257.79ZM269.45 200.93C278.14 197.52 286.35 194.31 294.56 191.1C318.9 181.57 343.26 172.07 367.57 162.45C369.09 161.85 371.36 160.43 371.43 159.29C371.8 152.73 371.61 146.14 371.61 138.9C366.9 140.73 362.75 142.3 358.62 143.94C329.82 155.4 301.01 166.84 272.25 178.41C271.08 178.88 269.62 180.45 269.58 181.56C269.32 187.78 269.46 194.02 269.46 200.93H269.45ZM100.4 275.2C100.4 270.64 100.22 266.65 100.46 262.69C100.64 259.88 99.67 258.58 97 257.56C75.65 249.32 54.38 240.9 33.08 232.54C26.17 229.83 19.24 227.16 11.61 224.19C11.61 229.03 11.74 233.22 11.56 237.39C11.45 239.98 12.2 241.29 14.81 242.27C31.33 248.49 47.77 254.96 64.24 261.32C76.05 265.88 87.88 270.4 100.39 275.2H100.4ZM116.74 101.58C116.74 96.9601 116.54 92.8701 116.81 88.8201C116.99 86.0601 115.87 84.9601 113.43 84.0101C89.89 74.8701 66.4 65.6001 42.88 56.3801C38.06 54.4901 33.22 52.6501 27.8 50.5701C27.8 55.0501 28.01 58.8801 27.74 62.6801C27.52 65.7701 28.57 67.2001 31.53 68.3401C53.82 76.9201 76.03 85.7101 98.27 94.4201C104.26 96.7701 110.26 99.0701 116.74 101.59V101.58ZM127.82 100.74C129.19 100.32 130.13 100.11 131.02 99.7601C158.12 89.1901 185.22 78.6301 212.29 67.9801C213.1 67.6601 214.08 66.5101 214.11 65.7201C214.28 60.9001 214.19 56.0601 214.19 50.6401C207.48 53.2801 201.27 55.7201 195.07 58.1701C173.68 66.6201 152.28 75.0501 130.92 83.5801C129.73 84.0601 128.02 85.2701 127.96 86.2301C127.65 90.9101 127.82 95.6301 127.82 100.73V100.74ZM148.12 243.89C136.21 248.7 124.91 253.23 113.66 257.85C113.01 258.11 112.24 259.06 112.23 259.71C112.11 264.49 112.16 269.28 112.16 274.65C124.07 270.04 135.32 265.73 146.5 261.28C147.25 260.98 148.02 259.65 148.05 258.78C148.2 254.05 148.12 249.32 148.12 243.9V243.89Z" fill="#EF9652"/>
</g>
<defs>
<clipPath id="clip0_338_4">
<rect width="382.68" height="382.7" fill="white"/>
</clipPath>
</defs>
</svg>
