<?xml version="1.0" encoding="utf-8"?>
<svg version="1.1" xmlns:xlink="http://www.w3.org/1999/xlink" width="20px" height="20px" xmlns="http://www.w3.org/2000/svg">
  <g transform="matrix(1 0 0 1 -1272 -735 )">
    <path d="M 19.978708303761533 0.7599431818181812  C 20.011828720132485 0.954071969696968  19.98107404778803 1.141098484848484  19.886444286728175 1.321022727272727  L 10.801987224982257 19.502840909090907  C 10.641116631180507 19.834280303030305  10.371421812159925 20  9.99290276792051 20  C 9.945587887390586 20  9.874615566595695 19.990530303030305  9.77998580553584 19.971590909090907  C 9.571800331204164 19.924242424242426  9.403832505322924 19.817708333333336  9.276082327892123 19.651988636363637  C 9.14833215046132 19.486268939393938  9.084457061745919 19.299242424242426  9.084457061745919 19.090909090909093  L 9.084457061745919 10.909090909090908  L 0.908445706174592 10.909090909090908  C 0.7002602318429146 10.909090909090908  0.5133664537497044 10.845170454545453  0.347764371894961 10.717329545454547  C 0.1821622900402176 10.589488636363637  0.07570380884788266 10.421401515151514  0.028388928317956 10.213068181818183  C -0.018925952211970666 10.004734848484848  0 9.805871212121211  0.085166784953868 9.616477272727273  C 0.17033356990773602 9.427083333333332  0.30754672344452333 9.285037878787879  0.49680624556423 9.190340909090908  L 18.665720369056068 0.09943181818181879  C 18.78873905843388 0.033143939393938116  18.925952211970667 0  19.077359829666428 0  C 19.332860184528034 0  19.545777146912705 0.08996212121211933  19.71611071682044 0.26988636363636465  C 19.85805535841022 0.40246212121211933  19.945587887390587 0.5658143939393923  19.978708303761533 0.7599431818181812  Z " fill-rule="nonzero" fill="#ffffff" stroke="none" transform="matrix(1 0 0 1 1272 735 )" />
  </g>
</svg>