<svg width="384" height="383" viewBox="0 0 384 383" fill="none" xmlns="http://www.w3.org/2000/svg">
<g clip-path="url(#clip0_338_2)">
<path d="M0 116.41C1.69 113.53 3.82 111.34 7.53 112.42C11.37 113.53 12 116.55 12 120.08C11.96 176.21 12 232.35 11.89 288.48C11.89 291.79 12.94 293.14 15.92 294.34C75.21 318.12 134.44 342.03 193.69 365.9C195.29 366.54 196.9 367.13 199.01 367.93V363.2C199.01 308.19 199.01 253.18 199.01 198.16C199.01 191.97 200.83 189.16 204.85 189.09C208.95 189.02 210.98 192.08 210.98 198.36C210.98 252.62 210.98 306.89 210.98 361.15C210.98 362.63 210.98 364.12 210.98 366.23C212.7 365.3 213.98 364.65 215.22 363.92C266.11 333.94 317 303.94 367.89 273.97C369.88 272.8 371.28 271.78 371.28 268.91C371.16 207.91 371.19 146.91 371.19 85.91V83.24C369.24 84.35 367.7 85.21 366.18 86.1C314.4 116.53 262.6 146.93 210.88 177.47C206.92 179.81 203.61 179.97 199.37 178.22C176.23 168.68 152.98 159.42 129.76 150.08C128.74 149.67 127.69 149.36 126.13 148.82C126.06 150.44 125.95 151.73 125.95 153.03C125.88 169.5 125.83 185.96 125.77 202.43C125.74 210.26 122.51 212.43 115.05 209.63C101.76 204.64 88.47 199.68 75.18 194.67C70 192.72 69.34 191.74 69.33 186.07C69.32 167.23 69.27 148.4 69.39 129.56C69.41 126.78 68.6 125.44 65.92 124.38C46.12 116.56 26.37 108.59 6.67 100.52C4.26 99.57 2.22 97.68 0 96.2C0 94.71 0 93.21 0 91.71C1.83 90.3 3.48 88.55 5.5 87.53C62.14 58.81 118.83 30.19 175.47 1.45995C178.72 -0.190045 181.6 -0.460045 185.06 0.739955C212.47 10.2 239.94 19.51 267.39 28.87C304.02 41.36 340.65 53.87 377.3 66.32C380.96 67.56 383.26 69.38 383.25 73.71C383.17 139.3 383.1 204.9 383.32 270.49C383.34 276.69 381.33 280.17 376.02 283.27C319.47 316.34 263.05 349.65 206.6 382.9H202.86C201.55 382.24 200.28 381.47 198.93 380.93C134.85 355.11 70.75 329.32 6.69 303.43C4.27 302.45 2.23 300.54 0.01 299.07C0.01 238.19 0.01 177.31 0.01 116.43L0 116.41ZM362.69 74.26C361.67 73.8 361.34 73.62 360.99 73.5C301.72 53.27 242.44 33.04 183.14 12.89C181.91 12.47 180.14 12.66 178.96 13.25C127.12 39.38 75.32 65.58 23.52 91.78C22.74 92.17 22.06 92.76 20.98 93.49C38.15 100.42 54.79 107.08 71.37 113.89C73.9 114.93 75.86 114.88 78.34 113.59C109.38 97.41 140.5 81.38 171.59 65.29C189.18 56.19 206.76 47.06 224.33 37.92C226.74 36.66 229.12 35.76 231.73 37.35C235.92 39.9 235.41 45.61 230.6 48.16C220.91 53.29 211.14 58.27 201.41 63.31C162.47 83.47 123.54 103.66 84.56 123.75C82.11 125.01 81.2 126.39 81.22 129.16C81.35 146.37 81.35 163.59 81.22 180.81C81.2 183.54 82.11 184.67 84.63 185.56C93.43 188.67 102.13 192.08 110.88 195.35C111.73 195.67 112.65 195.81 114.01 196.15C114.01 178.39 114.16 161.05 113.92 143.73C113.85 138.56 115.74 135.63 120.27 133.14C169.17 106.23 217.97 79.12 266.8 52.06C272.06 49.15 275.55 49.47 277.49 53.06C279.39 56.58 277.78 59.67 272.46 62.61C228.75 86.82 185.05 111.03 141.34 135.25C139.19 136.44 137.08 137.7 134.62 139.12C135.72 139.64 136.35 139.98 137.02 140.25C158.16 148.77 179.32 157.21 200.4 165.87C203.4 167.1 205.57 166.79 208.26 165.2C252.47 139.1 296.75 113.1 341 87.07C348.06 82.92 355.12 78.74 362.67 74.28L362.69 74.26Z" fill="#EF9652"/>
</g>
<defs>
<clipPath id="clip0_338_2">
<rect width="383.32" height="382.89" fill="white"/>
</clipPath>
</defs>
</svg>
